<?xml version="1.0" encoding="UTF-8" standalone="no"?>
<!-- Created with Inkscape (http://www.inkscape.org/) -->

<svg
   xmlns:dc="http://purl.org/dc/elements/1.1/"
   xmlns:cc="http://creativecommons.org/ns#"
   xmlns:rdf="http://www.w3.org/1999/02/22-rdf-syntax-ns#"
   xmlns:svg="http://www.w3.org/2000/svg"
   xmlns="http://www.w3.org/2000/svg"
   xmlns:sodipodi="http://sodipodi.sourceforge.net/DTD/sodipodi-0.dtd"
   xmlns:inkscape="http://www.inkscape.org/namespaces/inkscape"
   width="1476.8102"
   height="620"
   id="svg2"
   version="1.1"
   inkscape:version="0.48.0 r9654"
   sodipodi:docname="UCR.svg"
   inkscape:export-filename="../UCR.png"
   inkscape:export-xdpi="10"
   inkscape:export-ydpi="10">
  <defs
     id="defs4" />
  <sodipodi:namedview
     id="base"
     pagecolor="#ffffff"
     bordercolor="#666666"
     borderopacity="1.0"
     inkscape:pageopacity="0.0"
     inkscape:pageshadow="2"
     inkscape:zoom="0.88772411"
     inkscape:cx="738.40509"
     inkscape:cy="310"
     inkscape:document-units="px"
     inkscape:current-layer="layer1"
     showgrid="false"
     borderlayer="true"
     inkscape:showpageshadow="false"
     fit-margin-top="10"
     fit-margin-left="10"
     fit-margin-right="10"
     fit-margin-bottom="10"
     inkscape:window-width="1440"
     inkscape:window-height="780"
     inkscape:window-x="0"
     inkscape:window-y="24"
     inkscape:window-maximized="1" />
  <metadata
     id="metadata7">
    <rdf:RDF>
      <cc:Work
         rdf:about="">
        <dc:format>image/svg+xml</dc:format>
        <dc:type
           rdf:resource="http://purl.org/dc/dcmitype/StillImage" />
        <dc:title></dc:title>
      </cc:Work>
    </rdf:RDF>
  </metadata>
  <g
     inkscape:label="Capa 1"
     inkscape:groupmode="layer"
     id="layer1"
     transform="translate(148.46822,8.6417069)">
    <path
       style="fill:#000000"
       d="m -138.46822,593.91961 c 0,-6.92304 3.80448,-9.34727 18.37222,-11.70708 239.93712,-38.86654 432.39889,-57.08041 649.5119,-61.46735 232.90611,-4.70609 490.9042,13.0997 702.4671,48.48087 87.8994,14.70006 86.4575,14.30236 86.4575,23.84679 0,9.72522 -4.2117,9.98282 -65.5858,4.01107 -22.9955,-2.23752 -87.1902,-6.98702 -142.6549,-10.55447 -370.79787,-23.84952 -783.87712,-19.28456 -1212.9043,13.40385 -33.79477,2.57487 -35.66372,2.25974 -35.66372,-6.01368 z M 123.92369,449.66152 C 93.593361,442.52376 61.005025,424.00798 43.2285,403.81281 13.612455,370.16718 11.734945,358.82353 8.8744984,196.24972 6.1185794,39.613082 6.0716762,39.347874 -19.133061,37.894523 c -8.279904,-0.477461 -10.621951,-2.409138 -8.655475,-7.138881 1.482746,-3.566372 3.674789,-9.888576 4.871144,-14.049343 1.89597,-6.593983 8.075346,-7.5652036 48.141867,-7.5665004 l 45.966713,-0.00143 0,161.0285514 0,161.02851 11.933771,24.30039 c 14.055481,28.62085 32.985691,43.16105 69.975111,53.74756 66.14789,18.93172 140.8351,-9.8527 160.97222,-62.03862 6.9919,-18.11971 7.84563,-35.38515 7.84563,-158.66419 0,-76.0826 -1.57815,-147.57214 -3.50702,-158.86565 l -3.50706,-20.5336551 33.24502,0 33.24498,0 -2.57902,29.1794041 c -1.41847,16.048672 -3.76544,85.592921 -5.21547,154.542771 -2.81665,133.9313 -6.51859,162.08424 -25.14067,191.19331 -20.48467,32.02057 -56.41922,56.09466 -98.05092,65.6885 -23.23493,5.3544 -103.60202,5.30119 -126.48407,-0.0839 z m 487.83104,-0.0683 C 560.06871,442.06173 522.33412,424.20316 490.82076,392.35913 437.9191,338.90242 412.92074,252.11363 429.6232,179.89482 457.69366,58.522546 554.93422,-5.4414738 700.16945,1.9317941 739.13614,3.910028 791.49446,13.278 798.34016,19.496542 c 0.79978,0.726502 -12.83578,47.27621 -18.26613,62.357639 -1.44557,4.014741 -7.51178,1.283635 -20.44634,-9.205215 C 723.94366,43.712075 706.77493,37.558031 661.26358,37.390822 580.58309,37.094273 529.74971,71.58208 505.71764,142.92023 c -34.66245,102.89384 5.11777,215.38758 89.94567,254.35561 47.26345,21.71177 125.97539,17.03096 172.54538,-10.26086 10.19662,-5.97564 20.12207,-9.88659 22.05647,-8.69105 1.93444,1.19553 -0.52441,14.76836 -5.46411,30.16182 -8.5912,26.77243 -9.7451,28.18367 -26.56645,32.49103 -21.00095,5.37761 -89.50883,13.55061 -107.77821,12.85796 -7.13274,-0.27062 -24.54848,-2.17904 -38.70166,-4.24144 z m 260.07391,-12.48736 c 1.73944,-3.56637 3.74884,-89.15929 4.46531,-190.20649 1.42638,-201.161207 1.34973,-201.845691 -23.39539,-208.942511 -12.73787,-3.653175 -13.319,-4.680938 -9.24875,-16.35685 l 4.34315,-12.4587407 98.21862,0 c 73.90682,0 103.52472,1.5757307 119.65482,6.3658657 54.7389,16.255694 78.6274,80.973451 50.3797,136.486896 -9.2673,18.21249 -18.0819,27.57709 -39.9865,42.48137 -15.4543,10.5153 -27.8929,21.26288 -27.6414,23.88349 1.0046,10.46559 115.7366,170.74499 140.0193,195.60545 14.2747,14.61439 25.954,27.81091 25.954,29.32569 0,1.51474 -20.7688,2.20195 -46.153,1.5271 l -46.1531,-1.22696 -21.079,-36.74443 c -30.9527,-53.95588 -85.0391,-133.33229 -105.25972,-154.47754 -12.20581,-12.76398 -21.21009,-18.43745 -29.26175,-18.43745 -10.43745,0 -11.36337,-1.21953 -9.02573,-11.88791 4.87542,-22.25013 5.39192,-22.69258 26.60362,-22.79002 22.91038,-0.10504 50.99208,-11.1844 63.22838,-24.94562 10.8477,-12.19967 19.7033,-38.39919 19.9329,-58.9714 0.5082,-45.552209 -35.75,-75.995794 -90.35869,-75.868226 -15.58185,0.03458 -30.87765,1.681512 -33.99064,3.655769 -4.56958,2.898012 -5.29625,39.320824 -3.77179,189.059537 1.03852,102.00852 3.24859,191.30592 4.9113,198.43867 l 3.02307,12.96862 -39.28568,0 c -33.44432,0 -38.81545,-0.96413 -36.12303,-6.48431 z"
       id="path2996"
       inkscape:connector-curvature="0" />
  </g>
</svg>
