<?xml version="1.0" encoding="UTF-8" standalone="no"?>
<!-- Created with Inkscape (http://www.inkscape.org/) -->

<svg
   xmlns:dc="http://purl.org/dc/elements/1.1/"
   xmlns:cc="http://creativecommons.org/ns#"
   xmlns:rdf="http://www.w3.org/1999/02/22-rdf-syntax-ns#"
   xmlns:svg="http://www.w3.org/2000/svg"
   xmlns="http://www.w3.org/2000/svg"
   xmlns:sodipodi="http://sodipodi.sourceforge.net/DTD/sodipodi-0.dtd"
   xmlns:inkscape="http://www.inkscape.org/namespaces/inkscape"
   width="758.15906"
   height="620"
   id="svg2"
   sodipodi:version="0.32"
   inkscape:version="0.48.0 r9654"
   sodipodi:docname="UNA.svg"
   inkscape:output_extension="org.inkscape.output.svg.inkscape"
   version="1.0"
   inkscape:export-filename="../UNA.png"
   inkscape:export-xdpi="10"
   inkscape:export-ydpi="10">
  <sodipodi:namedview
     id="base"
     pagecolor="#ffffff"
     bordercolor="#666666"
     borderopacity="1.0"
     inkscape:pageopacity="0.0"
     inkscape:pageshadow="2"
     inkscape:zoom="0.8983871"
     inkscape:cx="379.07953"
     inkscape:cy="310"
     inkscape:document-units="px"
     inkscape:current-layer="layer1"
     showgrid="false"
     showguides="true"
     inkscape:guide-bbox="true"
     inkscape:window-width="1440"
     inkscape:window-height="780"
     inkscape:window-x="0"
     inkscape:window-y="24"
     units="px"
     borderlayer="true"
     inkscape:showpageshadow="false"
     fit-margin-top="10"
     fit-margin-left="10"
     fit-margin-right="10"
     fit-margin-bottom="10"
     inkscape:window-maximized="1" />
  <defs
     id="defs4">
    <inkscape:perspective
       sodipodi:type="inkscape:persp3d"
       inkscape:vp_x="0 : 526.18109 : 1"
       inkscape:vp_y="0 : 1000 : 0"
       inkscape:vp_z="1417.3228 : 526.18109 : 1"
       inkscape:persp3d-origin="708.66138 : 350.78739 : 1"
       id="perspective101" />
  </defs>
  <metadata
     id="metadata7">
    <rdf:RDF>
      <cc:Work
         rdf:about="">
        <dc:format>image/svg+xml</dc:format>
        <dc:type
           rdf:resource="http://purl.org/dc/dcmitype/StillImage" />
        <dc:title></dc:title>
      </cc:Work>
    </rdf:RDF>
  </metadata>
  <g
     id="layer1"
     inkscape:groupmode="layer"
     inkscape:label="Capa 1"
     transform="translate(-802.77156,-94.236419)">
    <g
       id="g3011"
       transform="matrix(1.230269,0,0,1.230269,-187.15613,-162.16384)">
      <path
         id="text3149"
         d="m 850.26987,223.06603 c 6.81786,2e-4 14.24022,-0.31411 22.26706,-0.94291 4.35179,0.67716 6.52773,1.28159 6.52781,1.81327 -8e-5,2.12778 -1.49906,3.40917 -4.49693,3.84415 -5.65751,1.16071 -9.40494,3.79599 -11.24233,7.9059 -1.78917,4.06193 -2.68372,9.35671 -2.68365,15.88433 l 0,12.76548 0,73.98178 c -7e-5,11.50835 0.72525,21.59016 2.17593,30.2455 1.45056,8.60707 4.59357,16.34371 9.42905,23.20997 3.67484,5.07719 8.38936,9.30818 14.14356,12.69295 5.75406,3.3848 11.96755,5.8992 18.64052,7.54323 6.72111,1.59569 13.41813,2.39354 20.09121,2.39352 24.95041,2e-5 43.01069,-6.33437 54.18069,-19.00316 11.21803,-12.71708 16.82704,-31.7444 16.82721,-57.08201 l 0,-68.9046 0,-5.3673 c -1.7e-4,-10.54103 -1.25734,-18.35021 -3.77153,-23.42756 -2.46632,-5.12535 -5.10165,-8.29254 -7.906,-9.50158 -2.80467,-1.25701 -6.06851,-2.19992 -9.79167,-2.82872 -3.7235,-0.62841 -5.58509,-1.6922 -5.58492,-3.19137 -1.7e-4,-1.98232 0.99112,-2.97358 2.97385,-2.97378 7.0111,0.82222 15.03791,1.23323 24.08027,1.23303 2.56254,-0.0966 6.4067,-0.3141 11.5324,-0.65278 5.1738,-0.38663 9.453,-0.58005 12.838,-0.58025 0.7736,2e-4 1.4021,0.38704 1.8859,1.16051 0.5316,0.7255 0.8944,1.32993 1.088,1.81327 -2e-4,1.35411 -0.9915,2.46626 -2.9739,3.33643 -5.6092,2.22447 -9.4049,5.7785 -11.3873,10.66208 -1.9344,4.88395 -2.9014,10.9282 -2.9013,18.13279 -1e-4,1.30573 0.048,3.21571 0.1453,5.72996 0.096,2.51456 0.1452,4.35202 0.1452,5.51238 l 0,66.58358 c -10e-5,26.3047 -5.2466,46.71012 -15.73919,61.21631 -4.93231,6.52782 -11.17,12.016 -18.71305,16.46456 -7.49503,4.40023 -15.59446,7.63996 -24.29797,9.71917 -8.65549,2.12758 -17.18999,3.19137 -25.60351,3.19138 -18.03619,-10e-6 -33.2919,-3.2639 -45.76717,-9.79171 -12.47542,-6.52779 -21.88029,-16.12606 -28.21462,-28.79487 -6.33442,-12.66872 -9.50161,-28.02113 -9.50157,-46.05727 l 0,-74.85215 -0.29013,-8.05096 c -0.24181,-9.04206 -1.59572,-15.61821 -4.06175,-19.72848 -2.41773,-4.10991 -4.64202,-6.47927 -6.67286,-7.10805 -2.0309,-0.67677 -5.02886,-1.3779 -8.99387,-2.1034 -3.91669,-0.77348 -5.87502,-2.12739 -5.87502,-4.06175 0.82201,-1.98232 2.70782,-2.97358 5.65744,-2.97378 4.4969,2e-4 10.03344,0.16944 16.60962,0.50772 6.57612,0.29032 11.65329,0.43539 15.23155,0.43519 m 348.236,56.42923 0,93.27506 c -10e-5,-0.0484 0.097,2.68371 0.2902,8.19602 0.1933,5.51241 0.2898,10.42035 0.2902,14.72383 -4e-4,19.19659 -1.7893,28.79487 -5.3674,28.79487 -1.0639,0 -1.9828,-0.26595 -2.7562,-0.79785 -0.7255,-0.48354 -1.4024,-1.18467 -2.0309,-2.1034 -0.6287,-0.91872 -1.209,-1.74075 -1.7408,-2.46605 l -122.36,-139.62248 c -1.3057,-1.59554 -2.3935,-2.39339 -3.2638,-2.39352 -1.9827,1.3e-4 -2.9738,1.49912 -2.9738,4.49693 l 0,2.03088 0,98.06211 0,4.13427 c 0,6.52784 0.3867,11.70172 1.1604,15.52168 0.7736,3.81998 2.6353,7.08389 5.5849,9.79169 2.998,2.6595 7.6641,4.52113 13.9986,5.5849 3.1913,0.4352 4.7869,1.74075 4.7869,3.91669 0,1.98251 -0.9912,2.97378 -2.9736,2.97378 -1.8375,0 -6.818,-0.36266 -14.9414,-1.08797 -8.0753,-0.67696 -14.9658,-1.01544 -20.6715,-1.01544 -2.2242,0 -5.464,0.29013 -9.7191,0.87038 -4.2553,0.58025 -7.4707,0.87037 -9.6467,0.87037 -2.2242,0 -3.6024,-0.67695 -4.1342,-2.03088 -10e-5,-0.0967 -0.048,-0.24176 -0.1452,-0.43518 -0.097,-0.19342 -0.1453,-0.33848 -0.1453,-0.43518 0,-1.20885 1.6441,-2.36936 4.9322,-3.48151 3.2879,-1.11213 6.3101,-2.58692 9.0663,-4.42439 2.8045,-1.83744 5.3674,-5.51235 7.6883,-11.02474 2.3692,-5.56069 3.554,-13.32153 3.554,-23.28249 l 0,-93.85533 c 0,-13.53899 -2.3452,-25.86928 -7.0356,-36.99088 -4.642,-11.16961 -12.6929,-17.57652 -24.1527,-19.22075 -2.3694,-0.38664 -3.6509,-1.25701 -3.8441,-2.61113 0,-2.22408 0.8944,-3.33623 2.6835,-3.33643 l 26.1112,0 c 2.3694,2e-4 4.8354,1.49917 7.3983,4.49693 l 133.4572,151.22746 c 1.6439,2.17597 2.9253,3.26394 3.8441,3.26391 1.1605,3e-5 1.7406,-1.69236 1.7408,-5.0772 l 0,-69.1947 c -2e-4,-2.94949 0.096,-7.253 0.2902,-12.91056 0.2416,-5.70565 0.3624,-10.61358 0.3626,-14.72382 -2e-4,-12.42685 -1.1123,-22.82297 -3.3363,-31.18839 -1.6926,-6.33421 -4.5214,-10.63772 -8.4862,-12.91055 -3.9653,-2.3208 -8.704,-4.08573 -14.2161,-5.29478 -5.4643,-1.25701 -8.2929,-2.70763 -8.4861,-4.35187 -2e-4,-2.22408 0.9911,-3.33623 2.9736,-3.33643 3.5781,2e-4 8.4136,0.3145 14.5063,0.94291 6.1408,0.58044 10.8312,0.87056 14.0711,0.87036 l 8.5586,0 c 2.0791,2e-4 5.1254,-0.28992 9.1389,-0.87036 4.0133,-0.62841 7.2045,-0.94271 9.5741,-0.94291 1.0153,2e-4 1.9098,0.3145 2.6837,0.94291 0.8218,0.58044 1.2328,1.37829 1.2331,2.39352 -3e-4,0.72552 -2.1037,1.95855 -6.3103,3.6991 -4.2069,1.69257 -6.7698,3.53003 -7.6883,5.51236 -2.5629,4.59382 -3.8443,12.91072 -3.8441,24.95072 -2e-4,2.17609 0.048,5.48835 0.1452,9.93676 0.097,4.44874 0.1452,7.76098 0.1452,9.93677 m 127.3627,43.37363 -22.8474,-57.29961 c -1.4508,-5.36714 -3.0465,-8.0508 -4.7871,-8.05096 -0.4836,1.6e-4 -1.2814,0.89471 -2.3935,2.68366 l -28.2146,62.95704 c -1.1606,2.03097 -1.7408,3.82007 -1.7408,5.3673 0.1935,2.56286 2.5628,3.84425 7.108,3.84416 l 3.264,0 39.8197,0 4.1341,0 c 4.7387,9e-5 7.108,-1.08788 7.1082,-3.2639 -2e-4,-0.62852 -0.4838,-2.70774 -1.4506,-6.23769 m 29.0848,84.06362 c 0,-3.23971 -0.3868,-6.35855 -1.1604,-9.35653 -0.7738,-3.04629 -1.9826,-6.74536 -3.6265,-11.09726 -1.5958,-4.35184 -2.7565,-7.51902 -3.4815,-9.50159 -6.1411,-18.13273 -10.2995,-27.9486 -12.4754,-29.44764 -1.4991,-0.96702 -3.5784,-1.45054 -6.2377,-1.45063 l -3.6266,0 -52.8751,0 c -6.5279,9e-5 -10.8556,0.72539 -12.9831,2.17594 -2.1276,1.40234 -4.5212,5.1256 -7.1806,11.1698 -2.5145,5.41571 -4.9081,10.54125 -7.1806,15.37659 -2.2244,4.78711 -4.2068,9.67087 -5.9475,14.65131 -1.7408,4.98049 -2.6113,9.13894 -2.6111,12.47535 -2e-4,5.02884 1.3296,8.58286 3.9892,10.66208 2.6594,2.07923 6.9629,3.77163 12.9105,5.07718 2.9979,0.48354 4.4969,1.66823 4.4969,3.55402 0,1.59569 -1.4023,2.39354 -4.2068,2.39354 -4.5936,0 -11.2906,-0.2176 -20.0912,-0.65278 -8.752,-0.38683 -15.9084,-0.58025 -21.4692,-0.58025 -0.2418,0 -1.1846,0.14508 -2.8286,0.43518 -1.6441,0.29013 -2.9739,0.43519 -3.9892,0.43519 -3.3849,0 -5.0773,-0.96709 -5.0773,-2.90124 0,-1.20885 0.7979,-2.20012 2.3936,-2.97379 3.8682,-1.01542 7.0839,-2.46604 9.6466,-4.35187 2.6112,-1.93415 4.7387,-4.13425 6.3827,-6.60033 1.6441,-2.46604 2.9496,-4.76285 3.9168,-6.89046 0.967,-2.17591 2.8286,-6.52778 5.5848,-13.0556 l 74.562,-165.80623 c 0.2902,-0.48333 0.6044,-1.08775 0.9429,-1.81327 0.3867,-0.72511 0.7736,-1.28118 1.1605,-1.66822 0.4352,-0.43498 1.0154,-0.65257 1.7408,-0.65278 1.8375,2.1e-4 3.3364,1.37831 4.4969,4.13427 l 62.3768,159.56854 c 3.8199,10.15439 6.5034,16.92396 8.0509,20.30873 1.5956,3.3848 4.3519,6.62453 8.2686,9.71917 3.9165,3.09468 9.3806,5.24644 16.392,6.45527 2.756,0.4352 4.1342,1.52317 4.1343,3.2639 -10e-5,1.78912 -0.9914,2.68366 -2.9737,2.68366 -2.1761,0 -5.3916,-0.0967 -9.6467,-0.29012 -4.2553,-0.19342 -7.4708,-0.29012 -9.6466,-0.29012 -4.884,0 -12.1854,0.1934 -21.9045,0.58024 -9.7192,0.38683 -16.9724,0.58025 -21.7593,0.58025 -2.6113,0 -3.9168,-0.96709 -3.9166,-2.90124 -2e-4,-1.35392 1.6922,-2.61112 5.0772,-3.77163 3.433,-1.16049 6.0198,-2.24846 7.7608,-3.2639 1.7406,-1.06378 2.611,-3.19135 2.611,-6.38273"
         style="font-size:144px;font-style:normal;font-weight:normal;fill:#d90000;fill-opacity:1;stroke:none;font-family:Bitstream Vera Sans"
         inkscape:connector-curvature="0" />
      <path
         id="text3155"
         d="m 847.99984,470.20203 c 2.27262,7e-5 4.74675,-0.10464 7.42235,-0.3143 1.4506,0.22572 2.17592,0.4272 2.17594,0.60443 -2e-5,0.70926 -0.49969,1.13639 -1.49897,1.28138 -1.88583,0.38689 -3.13499,1.26533 -3.74745,2.6353 -0.59639,1.35398 -0.89456,3.11889 -0.89455,5.29476 l 0,4.25517 0,24.6606 c -1e-5,3.83611 0.24175,7.19672 0.72531,10.08182 0.48353,2.86902 1.53119,5.44791 3.14302,7.73665 1.22494,1.69241 2.79645,3.10274 4.71452,4.23099 1.91803,1.12828 3.98919,1.96641 6.2135,2.51442 2.24037,0.5319 4.47272,0.79785 6.69705,0.79785 8.31685,0 14.33694,-2.11147 18.06025,-6.33439 3.73933,-4.23903 5.60902,-10.58147 5.60908,-19.02734 l 0,-22.9682 0,-1.7891 c -6e-5,-3.51369 -0.41912,-6.11674 -1.25721,-7.80919 -0.82207,-1.70846 -1.70051,-2.76419 -2.63529,-3.16719 -0.93491,-0.41901 -2.02287,-0.73331 -3.26391,-0.94291 -1.24113,-0.20948 -1.86168,-0.56407 -1.86163,-1.06378 -5e-5,-0.66079 0.33036,-0.9912 0.99126,-0.99127 2.33706,0.27408 5.01265,0.41107 8.02678,0.411 0.8542,-0.0322 2.13558,-0.10464 3.84415,-0.21758 1.72456,-0.1289 3.15101,-0.19335 4.27935,-0.19342 0.25781,7e-5 0.46734,0.12907 0.62859,0.38683 0.17723,0.24184 0.29811,0.44332 0.36266,0.60444 -7e-5,0.45136 -0.33049,0.82207 -0.99125,1.11213 -1.86977,0.7415 -3.13503,1.92616 -3.7958,3.55402 -0.6448,1.62799 -0.96716,3.64274 -0.96709,6.04427 -7e-5,0.43525 0.0165,1.07191 0.0484,1.90999 0.0322,0.83818 0.0484,1.45068 0.0484,1.83745 l 0,22.19454 c -7e-5,8.76823 -1.74887,15.57004 -5.24642,20.40543 -1.6441,2.17594 -3.72333,4.00534 -6.23769,5.48819 -2.49835,1.46675 -5.19812,2.54665 -8.09931,3.23972 -2.88517,0.7092 -5.73,1.06379 -8.53451,1.06379 -6.01204,0 -11.09729,-1.08795 -15.25571,-3.26389 -4.15846,-2.17594 -7.29343,-5.37537 -9.40487,-9.59829 -2.11148,-4.22292 -3.1672,-9.34038 -3.1672,-15.35243 l 0,-24.95072 -0.0967,-2.68366 c -0.0805,-3.014 -0.5319,-5.20606 -1.35391,-6.57615 -0.80591,-1.36997 -1.54735,-2.15976 -2.22429,-2.36936 -0.67697,-0.22558 -1.67629,-0.45929 -2.99796,-0.70112 -1.30555,-0.25783 -1.95834,-0.70913 -1.95834,-1.35391 0.274,-0.66079 0.9026,-0.9912 1.88581,-0.99127 1.49898,7e-5 3.34448,0.0565 5.53655,0.16924 2.19204,0.0967 3.88443,0.14508 5.07717,0.14508 m 114.36287,18.80974 0,31.09168 c -1.6e-4,-0.0165 0.033,0.89459 0.0974,2.73202 0.0644,1.83747 0.0974,3.47345 0.0974,4.90794 -1.7e-4,6.39885 -0.59649,9.59829 -1.78913,9.59829 -0.35469,0 -0.66102,-0.0886 -0.91883,-0.26594 -0.24179,-0.16126 -0.46741,-0.3949 -0.67686,-0.70115 -0.20961,-0.30623 -0.40305,-0.58024 -0.58031,-0.82201 L 917.8058,489.01179 c -0.43524,-0.53184 -0.79785,-0.7978 -1.088,-0.79785 -0.66086,5e-5 -0.99129,0.49972 -0.99129,1.49899 l 0,0.67695 0,32.68738 0,1.37809 c 0,2.17595 0.12874,3.90057 0.38688,5.17389 0.2578,1.27334 0.87839,2.3613 1.86158,3.26391 0.99937,0.88649 2.55479,1.50702 4.66626,1.86163 1.06374,0.14508 1.59569,0.58024 1.59569,1.30555 0,0.66084 -0.33043,0.99127 -0.99128,0.99127 -0.6125,0 -2.27272,-0.12082 -4.98051,-0.36266 -2.69178,-0.22566 -4.9886,-0.33849 -6.89046,-0.33849 -0.74139,0 -1.82134,0.0967 -3.23972,0.29014 -1.41839,0.19341 -2.49024,0.29012 -3.21554,0.29012 -0.74143,0 -1.2008,-0.22565 -1.37809,-0.67696 -2e-5,-0.0322 -0.0165,-0.0805 -0.0484,-0.14508 -0.0322,-0.0645 -0.0484,-0.11289 -0.0484,-0.14507 0,-0.40295 0.54801,-0.7898 1.64405,-1.16051 1.09602,-0.3707 2.10339,-0.86231 3.02212,-1.47479 0.93484,-0.61248 1.7891,-1.83746 2.56278,-3.67491 0.78976,-1.85356 1.18472,-4.44052 1.18472,-7.76084 l 0,-31.2851 c 0,-4.513 -0.78184,-8.6231 -2.34523,-12.3303 -1.54733,-3.7232 -4.23099,-5.85884 -8.05096,-6.40692 -0.78977,-0.1289 -1.2169,-0.41901 -1.28137,-0.87037 -2e-5,-0.74136 0.29818,-1.11208 0.89455,-1.11215 l 8.70374,0 c 0.78974,7e-5 1.61185,0.49972 2.46614,1.49898 l 44.48573,50.40914 c 0.54797,0.72534 0.97511,1.08799 1.28128,1.08797 0.38687,2e-5 0.58031,-0.5641 0.58031,-1.69239 l 0,-23.06491 c 0,-0.98316 0.033,-2.41765 0.0974,-4.30351 0.0809,-1.90187 0.12048,-3.53785 0.12048,-4.90794 0,-4.14227 -0.3707,-7.60765 -1.1121,-10.39613 -0.56413,-2.1114 -1.50705,-3.54591 -2.8286,-4.30351 -1.32187,-0.7736 -2.90139,-1.36192 -4.73871,-1.76494 -1.82148,-0.41899 -2.7644,-0.90253 -2.82877,-1.45061 0,-0.74136 0.33043,-1.11208 0.99128,-1.11215 1.19264,7e-5 2.80451,0.10481 4.83543,0.31431 2.04694,0.19348 3.61028,0.29018 4.69036,0.29012 l 2.85286,0 c 0.69304,6e-5 1.70842,-0.0965 3.04631,-0.29012 1.33771,-0.20947 2.40145,-0.31424 3.19138,-0.31431 0.33835,7e-5 0.63659,0.10481 0.89456,0.31431 0.27382,0.19348 0.41081,0.45943 0.41097,0.79784 -1.6e-4,0.24183 -0.70129,0.65284 -2.10338,1.23303 -1.40242,0.56419 -2.25671,1.17668 -2.56287,1.83745 -0.8543,1.53128 -1.28144,4.30358 -1.28128,8.31691 -1.6e-4,0.72537 0.0165,1.82945 0.0479,3.31226 0.033,1.4829 0.0479,2.58699 0.0479,3.31225 m 23.46827,-4.44858 0,36.14469 c 0,4.0134 0.46742,7.20477 1.40225,9.57412 0.93484,2.36936 3.04631,3.82803 6.33441,4.37604 1.64405,0.24178 2.46599,0.63667 2.46615,1.18468 -1.6e-4,0.33849 -0.16934,0.62054 -0.50785,0.84619 -0.33852,0.24178 -0.70113,0.36266 -1.08784,0.36266 -0.75757,0 -1.86983,-0.0725 -3.33645,-0.2176 -1.46679,-0.1289 -2.6596,-0.1934 -3.57826,-0.1934 -2.03092,0 -4.63391,0.0645 -7.80911,0.1934 -3.1592,0.14508 -5.57683,0.2176 -7.25323,0.2176 -0.75758,0 -1.18456,-0.29819 -1.28127,-0.89454 0,-0.48355 0.52369,-0.90262 1.57142,-1.25721 1.04773,-0.35459 1.92612,-0.74143 2.63534,-1.16051 0.72522,-0.43518 1.42635,-1.3942 2.10338,-2.87706 0.67703,-1.49897 1.01538,-3.66685 1.01538,-6.50363 l 0,-41.48782 c 0,-2.46601 -0.12874,-4.35181 -0.38671,-5.65742 -0.25797,-1.32163 -0.91074,-2.41765 -1.95847,-3.28809 -1.04756,-0.87031 -2.70779,-1.51503 -4.98034,-1.93417 -0.91883,-0.17723 -1.41843,-0.50764 -1.49898,-0.99125 0,-0.74136 0.53179,-1.11208 1.59569,-1.11215 1.33772,7e-5 3.05423,0.0726 5.14969,0.2176 2.09529,0.12907 3.71508,0.19347 4.85953,0.19341 1.20881,6e-5 2.95767,-0.0644 5.2464,-0.19341 2.3049,-0.14507 4.18266,-0.21753 5.63327,-0.2176 0.56414,7e-5 0.89457,0.20155 0.99129,0.60443 0,0.59644 -0.39497,1.12832 -1.18472,1.59569 -1.93421,0.72537 -3.33646,1.57963 -4.20676,2.56276 -0.87047,0.98326 -1.41034,2.11959 -1.61979,3.40896 -0.20961,1.28951 -0.31442,3.2559 -0.31442,5.89921 l 0,0.60442 m 20.37683,-2.97378 18.6165,42.86591 c 0.4511,1.06381 0.8542,1.59571 1.2088,1.59569 0.258,-0.0165 0.4917,-0.1934 0.7011,-0.5319 0.2256,-0.33846 0.4272,-0.71723 0.6044,-1.13631 0.1773,-0.41906 0.3304,-0.78977 0.4595,-1.11215 l 0.7979,-1.76493 10.5895,-25.1683 c 2.0953,-4.91596 3.7715,-9.07441 5.0288,-12.47536 1.2732,-3.40086 1.9098,-6.10868 1.91,-8.12349 -2e-4,-1.40221 -0.3385,-2.27257 -1.0156,-2.61112 -0.6768,-0.33842 -1.7326,-0.64467 -3.1671,-0.91873 -1.4346,-0.29006 -2.1517,-0.76554 -2.1517,-1.42645 0,-0.5963 0.3948,-0.89448 1.1847,-0.89455 0.7896,7e-5 1.7325,0.0404 2.8286,0.12082 1.0961,0.0645 1.9342,0.0967 2.5145,0.0967 1.1443,6e-5 2.7562,-0.0322 4.8355,-0.0967 2.0791,-0.0805 3.8682,-0.12082 5.3672,-0.12082 0.6608,7e-5 0.9913,0.33048 0.9913,0.99127 0,0.40302 -0.3305,0.73343 -0.9913,0.99125 -0.9832,0.29019 -1.8213,0.7415 -2.5144,1.35391 -0.6932,0.59644 -1.2654,1.26533 -1.7166,2.00669 -0.4353,0.72538 -0.8382,1.5474 -1.2089,2.46606 -0.3707,0.90267 -0.7656,1.86976 -1.1847,2.90126 l -24.0803,56.33253 c -0.5803,1.59568 -1.2008,2.39352 -1.8615,2.39352 -0.8543,0 -1.5475,-0.83008 -2.0793,-2.49024 l -24.56393,-57.03365 c -0.9832,-2.14364 -1.95831,-3.82798 -2.92549,-5.053 -0.96702,-1.24104 -2.30491,-2.03081 -4.01333,-2.36936 -0.67702,-0.11273 -1.41842,-0.25782 -2.22436,-0.43518 -0.82194,-0.17725 -1.23291,-0.53184 -1.23291,-1.06379 0,-0.66079 0.36261,-0.9912 1.08784,-0.99127 0.61249,7e-5 1.33788,0.0404 2.176,0.12082 0.83812,0.0645 1.49897,0.0967 1.98256,0.0967 0.69304,6e-5 1.74869,0.0165 3.16712,0.0484 1.41843,0.0324 2.47408,0.0484 3.16729,0.0484 2.41771,6e-5 4.73071,-0.10464 6.93881,-0.31431 0.9349,7e-5 1.5876,0.12907 1.9583,0.38683 0.3868,0.24185 0.6205,0.44332 0.7012,0.60444 0,0.46748 -0.4836,0.87849 -1.4506,1.23303 -0.951,0.35466 -1.6119,0.63672 -1.9826,0.84619 -0.3545,0.20959 -0.532,0.7415 -0.532,1.59569 0,1.51514 0.6933,3.86032 2.0793,7.03551 m 61.3425,-3.48149 0,19.31747 c 0,1.32171 0.1618,2.18402 0.4836,2.58694 0.3384,0.38687 1.1362,0.58029 2.3935,0.58024 1.3055,5e-5 3.0382,0.0324 5.1981,0.0967 2.1598,0.0645 3.6588,0.0967 4.4969,0.0967 2.1115,3e-5 3.8522,-0.153 5.2223,-0.45937 1.3861,-0.30619 2.5385,-0.91869 3.4573,-1.83745 0.9186,-0.91869 1.5633,-2.2323 1.9342,-3.94085 0.1122,-0.78974 0.5077,-1.18464 1.1845,-1.18469 0.5964,5e-5 0.8946,0.33046 0.8946,0.99127 0,1.1283 -0.073,2.58697 -0.2175,4.37605 -0.1288,1.78913 -0.1935,3.13498 -0.1935,4.03755 0,0.96712 0.064,2.37745 0.1935,4.23099 0.1452,1.8536 0.2175,3.35259 0.2175,4.49693 0,0.85428 -0.2659,1.28141 -0.7978,1.28139 -0.6931,2e-5 -1.1524,-0.3707 -1.378,-1.11214 -0.2096,-0.75753 -0.4755,-1.71654 -0.7979,-2.87707 -0.3225,-1.16047 -1.0639,-2.10338 -2.2243,-2.82872 -1.1445,-0.74139 -2.982,-1.11211 -5.5123,-1.11214 l -10.5896,0 c -2.7724,3e-5 -4.1586,0.83011 -4.1586,2.49023 0,0.2418 0.033,0.53192 0.097,0.87037 0.064,0.33852 0.097,0.53999 0.097,0.60443 l 0,16.15027 c 0,3.01409 0.4435,5.06913 1.3298,6.16515 0.8866,1.09604 2.7562,1.64405 5.609,1.64405 4.2068,0 7.8012,-0.14508 10.783,-0.4352 2.9979,-0.30623 5.9394,-1.08795 8.8247,-2.34518 2.885,-1.25719 5.1657,-3.16717 6.8421,-5.72994 0.2901,-0.59637 0.6527,-0.89455 1.088,-0.89457 0.5156,2e-5 0.7735,0.33045 0.7735,0.99127 0,2.24042 -0.7333,4.36799 -2.2001,6.38274 -1.4506,1.99864 -3.3283,3.60237 -5.6332,4.81124 -2.2888,1.19272 -4.5615,1.78909 -6.8179,1.78909 -2.1921,0 -5.4641,-0.18536 -9.8159,-0.55606 -4.3358,-0.35461 -7.6964,-0.5319 -10.0818,-0.5319 -1.8214,0 -4.1746,0.14507 -7.0597,0.43518 -2.869,0.30625 -4.908,0.45936 -6.1168,0.45936 -0.951,0 -1.4747,-0.33041 -1.5715,-0.99125 0,-0.29012 0.104,-0.52384 0.3143,-0.70114 0.2256,-0.1934 0.5077,-0.35459 0.8462,-0.48354 0.3385,-0.14508 0.6769,-0.24982 1.0154,-0.31431 0.3547,-0.0805 0.6527,-0.14507 0.8945,-0.1934 2.4338,-0.69307 3.6507,-3.36868 3.6507,-8.02679 0,-0.51577 -0.016,-1.20078 -0.048,-2.05504 -0.031,-0.85424 -0.048,-1.45061 -0.048,-1.78911 l 0,-38.82835 0,-0.5077 c 0,-3.65875 -0.411,-6.29405 -1.2329,-7.9059 -0.8059,-1.61175 -1.6521,-2.53048 -2.5386,-2.7562 -0.8865,-0.24169 -1.9504,-0.38676 -3.1914,-0.43518 -1.2412,-0.0484 -1.8616,-0.40288 -1.8616,-1.06379 0,-0.80583 0.7333,-1.20878 2.2001,-1.20885 1.1927,7e-5 2.3936,0.0404 3.6024,0.12082 1.225,0.0645 3.2235,0.18543 5.9959,0.36266 2.7883,0.16125 4.7387,0.27406 5.8508,0.33848 1.1283,0.0484 2.611,0.0726 4.4485,0.0725 2.2404,6e-5 4.7066,-0.0725 7.3983,-0.21759 2.6917,-0.16108 5.3833,-0.31423 8.075,-0.45936 2.6918,-0.14508 5.1578,-0.21753 7.3984,-0.2176 0.9186,7e-5 1.3779,0.53195 1.3779,1.59569 0,0.43525 -0.097,1.66828 -0.2901,3.69909 -0.1934,2.01481 -0.3545,3.65079 -0.4834,4.90793 -0.033,5e-5 -2e-4,-0.33036 0.097,-0.99126 -0.016,0.24183 -0.04,0.61254 -0.073,1.11215 -0.031,0.48359 -0.089,0.95102 -0.1692,1.40227 -0.081,0.45135 -0.2338,0.84625 -0.4593,1.18467 -0.2258,0.33854 -0.524,0.53195 -0.8945,0.58026 -0.5965,5e-5 -0.8948,-0.53186 -0.8946,-1.59569 -2e-4,-3.40085 -1.1766,-5.58484 -3.5299,-6.55199 -2.3533,-0.98313 -5.5608,-1.47473 -9.6225,-1.47479 -1.5473,6e-5 -3.2962,0.0564 -5.2464,0.16924 -1.9502,0.0967 -3.2076,0.14508 -3.7715,0.14508 -1.7732,6e-5 -3.0142,0.25795 -3.7234,0.77366 -0.693,0.51584 -1.0396,1.60381 -1.0396,3.26391 m 63.9037,25.26502 13.3699,19.70428 c 0.1453,0.20955 0.8703,1.28141 2.1759,3.21555 1.3217,1.93417 2.5224,3.4815 3.6023,4.64199 1.0961,1.1444 2.2968,2.07118 3.6024,2.78036 1.3055,0.69309 2.7401,1.03963 4.3036,1.03963 1.1121,0 1.6682,0.26594 1.6682,0.79784 -0.081,0.66084 -0.9672,1.13631 -2.6595,1.42644 -1.6764,0.30624 -3.0948,0.45936 -4.2551,0.45936 -3.1592,0 -5.8912,-0.9026 -8.1961,-2.70782 -2.3049,-1.80522 -4.5291,-4.30351 -6.6728,-7.49489 l -12.0885,-18.3262 c -0.7737,-1.4506 -1.7731,-2.35321 -2.9981,-2.70784 -1.225,-0.37068 -2.9253,-0.55603 -5.1013,-0.55606 -2.9174,3e-5 -4.3761,0.62863 -4.376,1.88581 l 0,15.15901 c -10e-5,2.65948 0.1933,4.81929 0.5802,6.47945 0.3869,1.66016 1.2088,2.99796 2.4661,4.01339 1.2732,1.01543 3.1993,1.64403 5.7782,1.88581 1.0639,0.1773 1.6603,0.47547 1.7892,0.89455 0,0.78977 -0.532,1.18467 -1.5957,1.18467 -1.3539,0 -3.3365,-0.0725 -5.9476,-0.21759 -2.595,-0.1289 -4.7065,-0.19342 -6.3344,-0.19342 -4.5452,0 -7.9461,0.16924 -10.2026,0.50773 -0.9188,0 -1.3782,-0.33043 -1.3782,-0.99127 0,-0.53189 0.395,-0.86231 1.1848,-0.99127 2.595,-0.54801 4.2793,-1.79714 5.0529,-3.74743 0.7898,-1.9664 1.1847,-4.51304 1.1847,-7.63995 l 0,-3.1672 0,-32.39724 0,-7.32565 c -0.064,-2.56271 -0.5238,-4.46464 -1.3781,-5.70578 -0.8543,-1.24102 -1.6924,-1.99052 -2.5144,-2.24846 -0.8059,-0.25784 -1.8777,-0.50766 -3.2156,-0.74951 -1.3377,-0.25782 -2.0067,-0.62046 -2.0067,-1.08796 0,-0.8703 0.4998,-1.30549 1.499,-1.30555 0.9994,6e-5 2.3371,0.0886 4.0135,0.26594 1.6924,0.16125 2.9577,0.24184 3.7958,0.24178 1.5957,6e-5 3.9247,-0.0806 6.9871,-0.24178 3.0785,-0.17723 5.5366,-0.26588 7.3739,-0.26594 6.3184,6e-5 11.5567,1.1525 15.7151,3.45732 4.1584,2.28881 6.415,6.35862 6.7697,12.20941 0,3.88449 -1.088,7.36597 -3.2639,10.44448 -2.16,3.06246 -5.0693,5.52046 -8.7279,7.37401 m -14.1437,-1.08797 5.4399,0 c 4.1907,3e-5 7.4948,-1.16853 9.9126,-3.50568 2.4338,-2.35318 3.6507,-5.64127 3.6507,-9.86424 0,-2.43377 -0.4917,-4.62581 -1.4749,-6.57616 -0.9831,-1.96634 -2.3128,-3.6265 -3.989,-4.98046 -1.6602,-1.35386 -3.5702,-2.38542 -5.73,-3.09466 -2.1438,-0.72526 -4.3842,-1.08791 -6.7213,-1.08797 -3.0463,6e-5 -4.5695,1.41844 -4.5694,4.25515 l 0,1.66821 0,19.6076 c -10e-5,1.07995 0.081,1.86167 0.2417,2.34518 0.1774,0.46745 0.4997,0.78981 0.9672,0.96707 0.4674,0.17735 1.2249,0.26599 2.2725,0.26596 m 38.6807,-16.15028 c 0.3061,-5.44784 2.4498,-9.64658 6.4309,-12.59625 3.9811,-2.94953 8.7763,-4.42432 14.3855,-4.42439 2.1436,7e-5 3.9407,0.20154 5.3915,0.60442 1.4666,0.38691 2.9334,0.89462 4.4002,1.52316 1.4828,0.62867 2.5062,0.94297 3.0704,0.9429 0.3223,7e-5 0.7254,-0.21753 1.2089,-0.65278 0.4835,-0.43512 0.9025,-0.65272 1.2572,-0.65277 0.8058,5e-5 1.2088,0.7979 1.2088,2.39352 0,1.59574 0.2578,3.82004 0.7736,6.67287 0.5158,2.85295 0.814,4.58563 0.8946,5.19806 0,0.99937 -0.3626,1.49904 -1.0878,1.49899 -0.5482,5e-5 -1.0397,-0.75751 -1.4749,-2.27266 -0.6124,-1.88574 -1.5876,-3.59426 -2.9255,-5.12553 -1.3377,-1.54727 -2.869,-2.82059 -4.5936,-3.81997 -1.7084,-1.01538 -3.5702,-1.78903 -5.5848,-2.321 -1.9987,-0.54795 -3.9731,-0.82196 -5.9233,-0.82203 -2.0632,7e-5 -4.0377,0.44333 -5.9236,1.32975 -1.8858,0.88656 -3.417,2.15182 -4.5936,3.79579 -1.1766,1.6441 -1.7648,3.52991 -1.7648,5.65744 0,4.20686 1.4183,7.25316 4.2552,9.13893 2.8528,1.88584 7.3095,3.87641 13.3699,5.97172 6.0601,2.09538 10.646,4.41637 13.7568,6.96299 3.1107,2.53056 4.6661,6.39889 4.6661,11.60499 0,4.31965 -1.0477,8.07515 -3.143,11.2665 -2.0794,3.17526 -4.9082,5.59297 -8.4863,7.25311 -3.5781,1.64405 -7.519,2.46606 -11.8225,2.46606 -2.4176,0 -5.1577,-0.33041 -8.2202,-0.99125 -3.0623,-0.66084 -5.3431,-1.54733 -6.8422,-2.65948 -0.548,-0.51577 -1.3779,-2.91735 -2.4902,-7.20475 -1.1122,-4.30351 -1.6682,-7.01939 -1.6682,-8.14768 0,-0.27398 0.1205,-0.52381 0.3626,-0.74948 0.2418,-0.22564 0.4836,-0.33847 0.7254,-0.33848 0.2901,10e-6 0.9186,1.01546 1.8858,3.04631 0.9671,2.01477 2.1438,3.98923 3.5298,5.92337 1.3862,1.91806 3.3686,3.64269 5.9477,5.1739 2.5948,1.53122 5.7701,2.29681 9.5256,2.29681 2.7239,0 5.3028,-0.57219 7.7366,-1.71657 2.45,-1.14436 4.4326,-2.77229 5.9477,-4.88376 1.515,-2.11145 2.2726,-4.53722 2.2726,-7.27729 0,-4.01337 -1.4104,-6.91461 -4.231,-8.70374 -2.8207,-1.80519 -7.3337,-3.81188 -13.5392,-6.02008 -6.1893,-2.22427 -10.8555,-4.65807 -13.9984,-7.30148 -3.127,-2.65943 -4.6903,-6.67282 -4.6903,-12.04017 m 56.4103,-1.57151 0,36.14469 c 0,4.0134 0.4674,7.20477 1.4022,9.57412 0.9349,2.36936 3.0463,3.82803 6.3344,4.37604 1.6441,0.24178 2.466,0.63667 2.466,1.18469 0,0.33848 -0.1691,0.62053 -0.5077,0.84618 -0.3385,0.24178 -0.7011,0.36267 -1.088,0.36267 -0.7575,0 -1.8696,-0.0725 -3.3364,-0.21761 -1.4666,-0.1289 -2.6594,-0.1934 -3.5781,-0.1934 -2.0309,0 -4.6341,0.0645 -7.8093,0.1934 -3.159,0.14508 -5.5768,0.21761 -7.253,0.21761 -0.7575,0 -1.1848,-0.2982 -1.2815,-0.89455 0,-0.48355 0.5239,-0.90262 1.5716,-1.25721 1.0477,-0.35459 1.9261,-0.74143 2.6353,-1.16051 0.7253,-0.43518 1.4264,-1.3942 2.1034,-2.87706 0.6769,-1.49897 1.0154,-3.66685 1.0154,-6.50363 l 0,-41.48782 c 0,-2.46601 -0.1287,-4.3518 -0.3869,-5.65742 -0.2578,-1.32163 -0.9105,-2.41765 -1.9583,-3.28809 -1.0477,-0.87031 -2.7078,-1.51503 -4.9805,-1.93417 -0.9186,-0.17723 -1.4184,-0.50764 -1.499,-0.99125 0,-0.74136 0.532,-1.11208 1.5957,-1.11214 1.3379,6e-5 3.0544,0.0726 5.1497,0.2176 2.0955,0.12906 3.7153,0.19347 4.8597,0.1934 1.2089,7e-5 2.9577,-0.0644 5.2464,-0.1934 2.3049,-0.14508 4.1825,-0.21754 5.6333,-0.2176 0.5641,6e-5 0.8944,0.20154 0.9913,0.60442 -2e-4,0.59644 -0.395,1.12832 -1.1847,1.59569 -1.9343,0.72537 -3.3365,1.57963 -4.2068,2.56276 -0.8705,0.98326 -1.4105,2.11959 -1.62,3.40897 -0.2095,1.2895 -0.3142,3.25589 -0.3142,5.8992 l 0,0.60442 m 17.1226,38.80417 0,-41.48783 c 0,-2.85283 -0.4109,-4.96428 -1.233,-6.33438 -0.806,-1.36997 -1.6279,-2.20811 -2.466,-2.5144 -0.8221,-0.32231 -1.8696,-0.61243 -3.1431,-0.87039 -1.2571,-0.27393 -1.8858,-0.66077 -1.8858,-1.16049 0,-0.3223 0.1535,-0.58825 0.4593,-0.79784 0.3224,-0.20947 0.6368,-0.31424 0.9429,-0.3143 0.4836,0.0324 1.3621,0.1048 2.6354,0.2176 1.2893,0.11289 2.2242,0.19347 2.8045,0.24176 0.5803,0.0324 1.1444,0.0484 1.6924,0.0484 2.0469,6e-5 5.0691,-0.16109 9.0664,-0.48354 3.9972,-0.33842 7.108,-0.50766 9.3324,-0.50773 11.6694,7e-5 20.7519,2.61119 27.2476,7.83336 3.5942,2.78848 6.4068,6.3828 8.4377,10.78298 2.0308,4.38414 3.0462,8.93748 3.0463,13.66002 -10e-5,5.1578 -0.8221,9.90457 -2.4661,14.24028 -1.6441,4.31966 -4.0214,8.0671 -7.1323,11.24234 -3.0946,3.15913 -6.818,5.60101 -11.1696,7.32564 -4.3359,1.70852 -9.0988,2.56278 -14.2888,2.56278 -1.6924,0 -4.1584,-0.12082 -7.3981,-0.36267 -3.2236,-0.22565 -5.7784,-0.33848 -7.6641,-0.33848 -2.0954,0 -6.0201,0.2982 -11.7742,0.89457 -0.9672,0 -1.499,-0.33043 -1.5957,-0.99127 0,-0.40295 0.4753,-0.8059 1.4263,-1.20885 0.9511,-0.40295 1.7408,-0.8059 2.3695,-1.20885 0.6285,-0.40295 1.241,-1.24108 1.8375,-2.51442 0.6123,-1.28944 0.9186,-3.11077 0.9186,-5.46402 l 0,-2.49023 m 7.4224,-45.35615 0,48.74093 c 0,1.48288 0.2659,2.63532 0.7979,3.45733 0.5318,0.82202 1.4909,1.48286 2.8769,1.98251 4.2392,1.45063 8.4297,2.17594 12.5721,2.17594 4.1584,0 7.8737,-0.71726 11.1456,-2.15176 3.2719,-1.45061 6.004,-3.46536 8.1962,-6.04426 2.208,-2.57887 3.8763,-5.59294 5.0046,-9.04221 1.1281,-3.46536 1.6922,-7.22892 1.6924,-11.29068 -2e-4,-6.44718 -1.3138,-12.20938 -3.9409,-17.28661 -2.6112,-5.07713 -6.3506,-9.04216 -11.2182,-11.8951 -4.8516,-2.85284 -10.4928,-4.27927 -16.9239,-4.27934 -4.6258,7e-5 -7.6319,0.5239 -9.0181,1.57151 -0.7898,0.66089 -1.1846,2.01482 -1.1846,4.06174 m 86.5672,25.45844 -7.6158,-19.09988 c -0.4836,-1.78904 -1.0154,-2.68359 -1.5957,-2.68364 -0.1617,5e-5 -0.4271,0.29823 -0.7978,0.89455 l -9.4048,20.98567 c -0.3869,0.677 -0.5804,1.27337 -0.5804,1.78911 0.064,0.85428 0.8543,1.28141 2.3695,1.28138 l 1.0878,0 13.2732,0 1.3782,0 c 1.5795,3e-5 2.3693,-0.36262 2.3693,-1.08797 0,-0.2095 -0.1618,-0.90257 -0.4835,-2.07922 m 9.695,28.0212 c 0,-1.07991 -0.1287,-2.11952 -0.3869,-3.11884 -0.2579,-1.01543 -0.6608,-2.24846 -1.2088,-3.69909 -0.5319,-1.45061 -0.9188,-2.50634 -1.1605,-3.1672 -2.047,-6.04423 -3.4331,-9.31619 -4.1585,-9.81587 -0.4996,-0.32234 -1.1927,-0.48353 -2.0791,-0.48354 l -1.2089,0 -17.6252,0 c -2.1758,10e-6 -3.6185,0.24179 -4.3275,0.7253 -0.7093,0.46745 -1.5071,1.70854 -2.3936,3.72327 -0.8381,1.80524 -1.6359,3.51375 -2.3935,5.12554 -0.7414,1.5957 -1.4023,3.22361 -1.9826,4.88375 -0.5803,1.66018 -0.8703,3.04632 -0.8703,4.15847 0,1.67627 0.4432,2.86096 1.3296,3.55403 0.8865,0.69307 2.3211,1.25721 4.3037,1.69239 0.9992,0.16125 1.4988,0.55607 1.499,1.18467 -2e-4,0.5319 -0.4676,0.79785 -1.4025,0.79785 -1.5311,0 -3.7634,-0.0725 -6.697,-0.21761 -2.9174,-0.1289 -5.3028,-0.1934 -7.1563,-0.1934 -0.081,0 -0.395,0.0484 -0.9429,0.14508 -0.548,0.0967 -0.9913,0.14508 -1.3298,0.14508 -1.1283,0 -1.6924,-0.32238 -1.6924,-0.96709 0,-0.40295 0.266,-0.73338 0.7978,-0.99127 1.2895,-0.33846 2.3614,-0.822 3.2156,-1.45061 0.8703,-0.64473 1.5796,-1.37809 2.1277,-2.20011 0.548,-0.82201 0.9832,-1.58762 1.3055,-2.29682 0.3224,-0.72531 0.9429,-2.17594 1.8616,-4.35187 l 24.854,-55.26874 c 0.097,-0.16109 0.2014,-0.3626 0.3143,-0.60443 0.1287,-0.2417 0.2578,-0.42706 0.3869,-0.55606 0.1452,-0.14492 0.3385,-0.21754 0.5803,-0.2176 0.6123,6e-5 1.1121,0.45942 1.4989,1.37809 l 20.7922,53.1895 c 1.2734,3.38481 2.1679,5.64133 2.6837,6.76959 0.5318,1.12826 1.4506,2.20817 2.7561,3.23972 1.3056,1.03156 3.1269,1.74881 5.4641,2.15176 0.9187,0.14508 1.378,0.50772 1.378,1.08797 0,0.59635 -0.3304,0.89455 -0.9912,0.89455 -0.7254,0 -1.7973,-0.0322 -3.2155,-0.0967 -1.4184,-0.0645 -2.4903,-0.0967 -3.2155,-0.0967 -1.628,0 -4.0618,0.0645 -7.3016,0.19342 -3.2397,0.1289 -5.6574,0.19342 -7.2531,0.19342 -0.8704,0 -1.3055,-0.32237 -1.3055,-0.96709 0,-0.45131 0.564,-0.87036 1.6924,-1.2572 1.1443,-0.38683 2.0067,-0.74949 2.587,-1.08797 0.5801,-0.35459 0.8703,-1.06379 0.8703,-2.12758 m 22.0629,-8.1235 0,-41.48782 c -2e-4,-2.85283 -0.4112,-4.96428 -1.2331,-6.33439 -0.8059,-1.36997 -1.6279,-2.2081 -2.4662,-2.5144 -0.8219,-0.3223 -1.8696,-0.61243 -3.143,-0.87038 -1.2572,-0.27393 -1.8857,-0.66077 -1.8857,-1.16049 0,-0.32231 0.1535,-0.58825 0.4594,-0.79785 0.3223,-0.20946 0.6366,-0.31423 0.9429,-0.3143 0.4834,0.0324 1.362,0.10481 2.6353,0.2176 1.2894,0.1129 2.2242,0.19347 2.8045,0.24177 0.5802,0.0324 1.1443,0.0484 1.6924,0.0484 2.047,7e-5 5.069,-0.16108 9.0663,-0.48354 3.9973,-0.33841 7.1082,-0.50765 9.3324,-0.50772 11.6694,7e-5 20.7519,2.61118 27.2475,7.83336 3.5943,2.78848 6.4069,6.38279 8.4378,10.78297 2.0309,4.38414 3.0463,8.93749 3.0463,13.66003 0,5.1578 -0.8221,9.90457 -2.466,14.24028 -1.644,4.31965 -4.0215,8.0671 -7.1322,11.24234 -3.0947,3.15913 -6.818,5.60101 -11.1699,7.32563 -4.3358,1.70852 -9.0986,2.56278 -14.2885,2.56278 -1.6925,0 -4.1586,-0.12081 -7.3982,-0.36266 -3.2237,-0.22565 -5.7783,-0.33848 -7.6642,-0.33848 -2.0953,0 -6.0201,0.29819 -11.7742,0.89456 -0.9671,0 -1.499,-0.33043 -1.5957,-0.99126 0,-0.40295 0.4755,-0.8059 1.4265,-1.20885 0.951,-0.40295 1.7408,-0.8059 2.3693,-1.20885 0.6286,-0.40295 1.2411,-1.24109 1.8375,-2.51442 0.6124,-1.28944 0.9186,-3.11077 0.9188,-5.46402 l 0,-2.49024 m 7.4222,-45.35615 0,48.74094 c 0,1.48288 0.2659,2.63531 0.7979,3.45732 0.5319,0.82203 1.4908,1.48287 2.8771,1.98252 4.2389,1.45063 8.4297,2.17593 12.5721,2.17593 4.1584,0 7.8736,-0.71725 11.1455,-2.15175 3.272,-1.45062 6.004,-3.46536 8.196,-6.04427 2.2082,-2.57887 3.8764,-5.59293 5.0048,-9.0422 1.1281,-3.46537 1.6923,-7.22892 1.6923,-11.29069 0,-6.44718 -1.3137,-12.20937 -3.9409,-17.2866 -2.6111,-5.07713 -6.3504,-9.04216 -11.218,-11.89511 -4.8516,-2.85283 -10.493,-4.27926 -16.924,-4.27933 -4.626,7e-5 -7.632,0.5239 -9.0181,1.57151 -0.7897,0.66089 -1.1847,2.01482 -1.1847,4.06173"
         style="font-size:60px;font-style:normal;font-variant:normal;font-weight:bold;font-stretch:normal;text-align:start;line-height:125%;writing-mode:lr-tb;text-anchor:start;fill:#d90000;fill-opacity:1;stroke:none;font-family:Goudy Old Style;-inkscape-font-specification:Goudy Old Style Bold"
         inkscape:connector-curvature="0" />
      <path
         id="text3165"
         d="m 898.20198,578.02272 0,31.09168 c -6e-5,-0.0165 0.0322,0.89457 0.0967,2.73201 0.0644,1.83747 0.0967,3.47344 0.0967,4.90793 -7e-5,6.39887 -0.59644,9.59829 -1.78911,9.59829 -0.35466,0 -0.6609,-0.0886 -0.91873,-0.26594 -0.24183,-0.16109 -0.46748,-0.3949 -0.67696,-0.70113 -0.2096,-0.30625 -0.403,-0.58024 -0.58025,-0.82202 L 853.6437,578.02272 c -0.43522,-0.53186 -0.79787,-0.7978 -1.08797,-0.79785 -0.66086,5e-5 -0.99128,0.4997 -0.99127,1.49897 l 0,0.67697 0,32.68738 0,1.37809 c -1e-5,2.17593 0.1289,3.90056 0.38684,5.17388 0.25787,1.27333 0.87841,2.3613 1.86164,3.2639 0.99928,0.88649 2.55467,1.50704 4.66615,1.86163 1.06378,0.14508 1.59568,0.58026 1.59569,1.30557 -1e-5,0.66084 -0.33044,0.99125 -0.99125,0.99125 -0.61251,0 -2.27267,-0.12082 -4.98047,-0.36265 -2.69173,-0.22565 -4.98855,-0.33848 -6.89047,-0.33848 -0.74143,0 -1.82134,0.0967 -3.23972,0.29013 -1.4184,0.19342 -2.49024,0.29012 -3.21555,0.29012 -0.74143,0 -1.20079,-0.22566 -1.37809,-0.67697 0,-0.0322 -0.0165,-0.0805 -0.0484,-0.14507 -0.0322,-0.0645 -0.0484,-0.1129 -0.0484,-0.14508 -10e-6,-0.40295 0.548,-0.78978 1.64404,-1.16049 1.09602,-0.37072 2.10339,-0.86231 3.02212,-1.47481 0.93484,-0.61248 1.7891,-1.83744 2.56278,-3.67491 0.78977,-1.85356 1.18465,-4.4405 1.18467,-7.76083 l 0,-31.28511 c -2e-5,-4.51299 -0.78174,-8.62308 -2.34518,-12.33029 -1.54733,-3.7232 -4.23099,-5.85883 -8.05096,-6.40691 -0.78977,-0.1289 -1.2169,-0.41901 -1.28137,-0.87039 -2e-5,-0.74136 0.29818,-1.11208 0.89455,-1.11214 l 8.70374,0 c 0.78976,6e-5 1.61178,0.49973 2.46606,1.49899 l 44.48576,50.40914 c 0.54797,0.72533 0.9751,1.08799 1.28139,1.08797 0.38678,2e-5 0.58018,-0.56412 0.58025,-1.69239 l 0,-23.06491 c -7e-5,-0.98316 0.0322,-2.41766 0.0967,-4.30351 0.0805,-1.90189 0.12081,-3.53787 0.12081,-4.90795 -6e-5,-4.14228 -0.37078,-7.60766 -1.11215,-10.39612 -0.56418,-2.1114 -1.50709,-3.54591 -2.82872,-4.30353 -1.32172,-0.7736 -2.90129,-1.3619 -4.73869,-1.76492 -1.8214,-0.41901 -2.7643,-0.90255 -2.82872,-1.45063 -5e-5,-0.74136 0.33038,-1.11208 0.99127,-1.11214 1.19267,6e-5 2.80447,0.1048 4.83539,0.3143 2.04694,0.19349 3.61039,0.29019 4.69036,0.29012 l 2.8529,0 c 0.693,7e-5 1.70843,-0.0967 3.0463,-0.29012 1.33773,-0.20946 2.40152,-0.31424 3.19136,-0.3143 0.33842,6e-5 0.6366,0.1048 0.89457,0.3143 0.27393,0.19349 0.41094,0.45943 0.411,0.79784 -6e-5,0.24185 -0.70121,0.65285 -2.1034,1.23303 -1.40233,0.56421 -2.25659,1.17668 -2.56277,1.83746 -0.85433,1.53127 -1.28146,4.30358 -1.28139,8.31692 -7e-5,0.72535 0.0165,1.82944 0.0484,3.31224 0.0322,1.48291 0.0484,2.58699 0.0484,3.31226 m 61.91957,14.45787 -7.61584,-19.09986 c -0.48342,-1.78904 -1.01538,-2.68361 -1.59569,-2.68366 -0.16174,5e-5 -0.42714,0.29825 -0.79784,0.89455 l -9.40481,20.98569 c -0.38687,0.67698 -0.58031,1.27335 -0.58031,1.78909 0.0644,0.8543 0.8543,1.28143 2.36944,1.28139 l 1.088,0 13.27322,0 1.37799,0 c 1.57951,4e-5 2.36927,-0.36263 2.36944,-1.08796 -1.7e-4,-0.2095 -0.16175,-0.90259 -0.4836,-2.07924 m 9.69496,28.02121 c 0,-1.0799 -0.12873,-2.11951 -0.38687,-3.11885 -0.25781,-1.01541 -0.66086,-2.24844 -1.20882,-3.69908 -0.53195,-1.4506 -0.91866,-2.50633 -1.16045,-3.16719 -2.0471,-6.04425 -3.43318,-9.3162 -4.15841,-9.81589 -0.49976,-0.32232 -1.1928,-0.48351 -2.07928,-0.48354 l -1.20882,0 -17.62505,0 c -2.176,3e-5 -3.61852,0.24179 -4.32774,0.72532 -0.70921,0.46744 -1.50706,1.70854 -2.39353,3.72327 -0.83812,1.80523 -1.63597,3.51374 -2.39354,5.12552 -0.7414,1.59571 -1.40225,3.22363 -1.98256,4.88377 -0.58015,1.66016 -0.87031,3.04632 -0.87031,4.15845 0,1.67629 0.44316,2.86096 1.3298,3.55403 0.88648,0.69307 2.32091,1.25721 4.30348,1.69239 0.9992,0.16125 1.49897,0.55608 1.49897,1.18467 0,0.5319 -0.46742,0.79785 -1.40225,0.79785 -1.53132,0 -3.76361,-0.0725 -6.69702,-0.21759 -2.9174,-0.1289 -5.30285,-0.19342 -7.15651,-0.19342 -0.0809,0 -0.39479,0.0484 -0.94292,0.14508 -0.54796,0.0967 -0.99128,0.14508 -1.32963,0.14508 -1.12827,0 -1.69241,-0.32236 -1.69241,-0.96709 0,-0.40295 0.26589,-0.73336 0.79784,-0.99125 1.28936,-0.33848 2.36119,-0.82202 3.21548,-1.45063 0.87047,-0.64471 1.57952,-1.37809 2.12764,-2.20011 0.54797,-0.82201 0.9832,-1.58762 1.30554,-2.29682 0.32234,-0.72531 0.94292,-2.17592 1.86158,-4.35187 l 24.85402,-55.26873 c 0.0974,-0.16108 0.20153,-0.36259 0.31426,-0.60444 0.12873,-0.2417 0.25797,-0.42704 0.38687,-0.55606 0.14524,-0.14508 0.33851,-0.21752 0.58031,-0.2176 0.6125,8e-5 1.1121,0.45944 1.49897,1.3781 l 20.79217,53.18951 c 1.27335,3.3848 2.16792,5.64132 2.6837,6.76957 0.53195,1.12827 1.45061,2.20817 2.75614,3.23973 1.30554,1.03155 3.12685,1.7488 5.4641,2.15175 0.91866,0.14508 1.378,0.50772 1.37816,1.08797 -1.6e-4,0.59637 -0.33059,0.89455 -0.99128,0.89455 -0.72539,0 -1.79722,-0.0322 -3.21565,-0.0967 -1.41842,-0.0645 -2.49025,-0.0967 -3.21547,-0.0967 -1.62804,0 -4.06185,0.0645 -7.30143,0.1934 -3.2399,0.12891 -5.65753,0.19342 -7.25323,0.19342 -0.87046,0 -1.30553,-0.32235 -1.30553,-0.96708 0,-0.45129 0.56414,-0.87037 1.69241,-1.25721 1.14428,-0.38682 2.00666,-0.74949 2.58697,-1.08795 0.58015,-0.35461 0.8703,-1.06379 0.8703,-2.12759 m 92.14087,-55.46215 1.4748,11.60498 c 0.033,0.1129 0.064,0.28212 0.097,0.50771 0.048,0.2257 0.081,0.38689 0.097,0.48354 0,0.78984 -0.2982,1.18472 -0.8945,1.18469 -0.2097,3e-5 -1.0235,-1.08792 -2.4419,-3.2639 -1.4185,-2.19202 -3.0866,-4.34377 -5.0046,-6.45529 -1.9021,-2.12751 -4.4486,-4.02943 -7.64,-5.70578 -3.1754,-1.6762 -6.8904,-2.51434 -11.1456,-2.5144 -5.593,6e-5 -10.3881,1.19279 -14.3853,3.57819 -3.9973,2.36942 -7.0276,5.70585 -9.0907,10.00931 -2.0469,4.28743 -3.0704,9.23568 -3.0704,14.84471 0,4.40024 0.5963,8.63929 1.7891,12.71713 1.2089,4.06176 2.998,7.72055 5.3673,10.97638 2.3854,3.25585 5.3512,5.83473 8.8972,7.73666 3.5459,1.88581 7.5995,2.82872 12.161,2.8287 2.9496,2e-5 6.0442,-0.53189 9.284,-1.59568 3.2557,-1.07991 6.2053,-2.63529 8.8487,-4.66617 2.6435,-2.03086 4.5937,-4.36798 5.851,-7.01135 0.031,-0.0644 0.1692,-0.3707 0.411,-0.91873 0.2578,-0.54799 0.5077,-0.95899 0.7495,-1.23302 0.2416,-0.27399 0.5157,-0.41099 0.8219,-0.41101 0.3869,2e-5 0.6447,0.19344 0.7738,0.58025 -2e-4,2.70783 -0.5239,5.61715 -1.5716,8.72792 -0.1123,0.90262 -1.0316,1.91805 -2.7562,3.0463 -1.7086,1.12827 -3.9087,2.19206 -6.6003,3.19137 -2.6918,0.99932 -5.6333,1.82134 -8.8246,2.46605 -3.1752,0.66084 -6.0926,0.99127 -8.7521,0.99127 -4.8354,0 -9.3647,-0.75756 -13.5874,-2.27264 -4.207,-1.51509 -7.8899,-3.72326 -11.0491,-6.62452 -3.159,-2.91735 -5.609,-6.4069 -7.3497,-10.46866 -1.7246,-4.07784 -2.587,-8.58283 -2.587,-13.51498 0,-6.64058 1.4506,-12.6929 4.3518,-18.15695 2.9174,-5.48008 7.0034,-9.77554 12.2579,-12.88638 5.2705,-3.12683 11.2584,-4.69028 17.9635,-4.69035 2.74,7e-5 5.3753,0.28214 7.9059,0.84621 2.5467,0.5642 4.7628,1.21697 6.6486,1.95833 1.8859,0.72537 3.5943,1.46681 5.1256,2.2243 1.5473,0.74149 2.3774,1.11219 2.4903,1.11214 0.3223,5e-5 0.709,-0.17724 1.1604,-0.5319 0.4674,-0.37065 0.8784,-0.556 1.2331,-0.55606 0.419,0.0484 0.7495,0.66895 0.9913,1.86163 m 32.7184,8.5345 0,36.14469 c 0,4.0134 0.4674,7.20477 1.4022,9.57411 0.9349,2.36935 3.0463,3.82804 6.3344,4.37605 1.6441,0.24176 2.466,0.63666 2.466,1.18467 0,0.33848 -0.1691,0.62055 -0.5076,0.8462 -0.3386,0.24176 -0.7012,0.36265 -1.088,0.36265 -0.7576,0 -1.8697,-0.0725 -3.3363,-0.21759 -1.4668,-0.1289 -2.6596,-0.19342 -3.5783,-0.19342 -2.0309,0 -4.6339,0.0645 -7.8093,0.19342 -3.159,0.14508 -5.5768,0.21759 -7.253,0.21759 -0.7576,0 -1.1848,-0.29818 -1.2813,-0.89455 -2e-4,-0.48354 0.5237,-0.9026 1.5714,-1.25721 1.0477,-0.35459 1.9261,-0.74141 2.6353,-1.16049 0.7253,-0.43518 1.4264,-1.39422 2.1034,-2.87708 0.6769,-1.49897 1.0154,-3.66684 1.0154,-6.50363 l 0,-41.48782 c 0,-2.46599 -0.1287,-4.3518 -0.3867,-5.65742 -0.258,-1.32161 -0.9107,-2.41765 -1.9585,-3.28808 -1.0475,-0.87031 -2.7078,-1.51504 -4.9803,-1.93416 -0.9188,-0.17723 -1.4184,-0.50766 -1.4991,-0.99127 0,-0.74136 0.5319,-1.11208 1.5956,-1.11214 1.3379,6e-5 3.0544,0.0726 5.1499,0.2176 2.0953,0.12907 3.7151,0.19348 4.8595,0.19342 1.2088,6e-5 2.9577,-0.0644 5.2464,-0.19342 2.3049,-0.14508 4.1827,-0.21754 5.6333,-0.2176 0.5641,6e-5 0.8946,0.20154 0.9913,0.60442 0,0.59644 -0.395,1.12834 -1.1847,1.59569 -1.9342,0.72537 -3.3365,1.57963 -4.2068,2.56278 -0.8705,0.98326 -1.4103,2.11957 -1.62,3.40896 -0.2094,1.2895 -0.3142,3.2559 -0.3142,5.89919 l 0,0.60444 m 22.1208,18.80974 c 0,-4.93208 0.8865,-9.50154 2.6596,-13.70838 1.789,-4.22289 4.2792,-7.86556 7.4706,-10.92804 3.2076,-3.07849 6.9469,-5.44783 11.2182,-7.10805 4.2873,-1.6762 8.889,-2.51435 13.8052,-2.51442 4.8676,7e-5 9.4128,0.78986 13.6358,2.36936 4.2228,1.57963 7.8977,3.84421 11.0247,6.79375 3.1269,2.94965 5.5607,6.47949 7.3015,10.58955 1.7406,4.09402 2.611,8.59901 2.611,13.51496 0,5.06111 -0.8381,9.74339 -2.5143,14.04688 -1.6602,4.30353 -4.0619,8.05903 -7.2047,11.26651 -3.1432,3.20749 -6.8504,5.6816 -11.1215,7.42235 -4.2713,1.74075 -8.9133,2.61112 -13.926,2.61112 -5.0934,0 -9.7918,-0.79785 -14.0953,-2.39354 -4.2873,-1.6118 -7.9945,-3.92472 -11.1213,-6.93881 -3.1108,-3.03017 -5.5125,-6.66478 -7.2049,-10.90384 -1.6924,-4.25513 -2.5386,-8.9616 -2.5386,-14.1194 m 7.6399,-3.1672 c 0,4.27131 0.6771,8.48617 2.031,12.64461 1.3539,4.15847 3.3283,7.91397 5.9234,11.2665 2.5949,3.35255 5.7379,6.00398 9.4291,7.95426 3.707,1.93415 7.8091,2.90124 12.306,2.90124 3.8522,0 7.3579,-0.78979 10.5171,-2.36936 3.1752,-1.57956 5.8589,-3.74743 8.0509,-6.50362 2.192,-2.75617 3.8522,-5.93142 4.9805,-9.52576 1.1443,-3.59429 1.7165,-7.33369 1.7165,-11.21816 0,-4.35183 -0.7414,-8.51027 -2.2242,-12.47535 -1.483,-3.9811 -3.6025,-7.52708 -6.3587,-10.6379 -2.74,-3.11073 -6.004,-5.54454 -9.7917,-7.30147 -3.7877,-1.77292 -7.8655,-2.65941 -12.2335,-2.65948 -3.949,7e-5 -7.4546,0.72538 -10.5169,2.17594 -3.0625,1.43457 -5.6173,3.44126 -7.6642,6.02008 -2.047,2.57894 -3.5864,5.55272 -4.6179,8.92133 -1.0316,3.36872 -1.5474,6.97109 -1.5474,10.80714 m 134.9278,-11.19397 0,31.09169 c 0,-0.0165 0.031,0.89457 0.097,2.732 0.064,1.83747 0.097,3.47345 0.097,4.90794 0,6.39887 -0.5965,9.59829 -1.7891,9.59829 -0.3547,0 -0.6609,-0.0886 -0.9187,-0.26594 -0.2418,-0.16109 -0.4676,-0.3949 -0.677,-0.70113 -0.2096,-0.30625 -0.4031,-0.58025 -0.5802,-0.82203 l -40.7868,-46.54082 c -0.4351,-0.53185 -0.7979,-0.79779 -1.0878,-0.79784 -0.6609,5e-5 -0.9913,0.4997 -0.9913,1.49897 l 0,0.67696 0,32.68738 0,1.37809 c 0,2.17594 0.1287,3.90056 0.3868,5.17388 0.2579,1.27334 0.8784,2.3613 1.8616,3.26391 0.9992,0.88649 2.5547,1.50704 4.6661,1.86163 1.0639,0.14508 1.5957,0.58026 1.5957,1.30557 0,0.66084 -0.3304,0.99125 -0.9913,0.99125 -0.6125,0 -2.2725,-0.12082 -4.9803,-0.36265 -2.6918,-0.22565 -4.9886,-0.33848 -6.8905,-0.33848 -0.7415,0 -1.8214,0.0967 -3.2397,0.29012 -1.4184,0.19342 -2.4903,0.29012 -3.2156,0.29012 -0.7414,0 -1.2008,-0.22565 -1.378,-0.67696 0,-0.0322 -0.016,-0.0805 -0.048,-0.14508 -0.033,-0.0645 -0.048,-0.11289 -0.048,-0.14507 0,-0.40295 0.548,-0.78978 1.6441,-1.16049 1.0959,-0.37072 2.1034,-0.86232 3.022,-1.47481 0.9349,-0.61248 1.7892,-1.83744 2.5629,-3.67491 0.7898,-1.85356 1.1846,-4.4405 1.1846,-7.76084 l 0,-31.2851 c 0,-4.513 -0.7817,-8.62309 -2.3452,-12.3303 -1.5474,-3.7232 -4.2309,-5.85883 -8.0509,-6.4069 -0.7898,-0.12891 -1.2169,-0.41901 -1.2815,-0.87039 0,-0.74136 0.2983,-1.11208 0.8946,-1.11215 l 8.7038,0 c 0.7898,7e-5 1.6117,0.49974 2.466,1.49899 l 44.4858,50.40915 c 0.5479,0.72532 0.9751,1.08799 1.2814,1.08797 0.3867,2e-5 0.5801,-0.56412 0.5803,-1.69239 l 0,-23.06491 c -2e-4,-0.98316 0.033,-2.41767 0.097,-4.30351 0.081,-1.90189 0.1205,-3.53787 0.1205,-4.90796 0,-4.14227 -0.3707,-7.60765 -1.1121,-10.39612 -0.5643,-2.1114 -1.5072,-3.5459 -2.8288,-4.30352 -1.3217,-0.7736 -2.9012,-1.3619 -4.7387,-1.76492 -1.8213,-0.41901 -2.7642,-0.90255 -2.8288,-1.45063 0,-0.74136 0.3305,-1.11208 0.9913,-1.11215 1.1928,7e-5 2.8045,0.10481 4.8354,0.31431 2.047,0.19348 3.6105,0.29018 4.6904,0.29012 l 2.8529,0 c 0.693,6e-5 1.7084,-0.0967 3.0463,-0.29012 1.3377,-0.20947 2.4016,-0.31424 3.1913,-0.31431 0.3386,7e-5 0.6366,0.10481 0.8946,0.31431 0.274,0.19348 0.411,0.45943 0.411,0.79784 0,0.24185 -0.7011,0.65285 -2.1034,1.23303 -1.4023,0.5642 -2.2565,1.17668 -2.5627,1.83745 -0.8543,1.53128 -1.2815,4.30358 -1.2815,8.31692 0,0.72536 0.017,1.82945 0.048,3.31225 0.033,1.48291 0.048,2.58699 0.048,3.31226 m 59.0311,14.45787 -7.6157,-19.09986 c -0.4835,-1.78905 -1.0155,-2.68361 -1.5956,-2.68366 -0.1618,5e-5 -0.4272,0.29824 -0.7979,0.89455 l -9.405,20.98569 c -0.3867,0.67698 -0.5801,1.27335 -0.5801,1.78909 0.064,0.85429 0.8541,1.28142 2.3693,1.28139 l 1.088,0 13.2732,0 1.3781,0 c 1.5796,3e-5 2.3693,-0.36263 2.3693,-1.08797 0,-0.20949 -0.1617,-0.90258 -0.4836,-2.07923 m 9.6951,28.0212 c -10e-5,-1.07989 -0.1287,-2.1195 -0.3868,-3.11884 -0.258,-1.01541 -0.6609,-2.24844 -1.2088,-3.69909 -0.532,-1.45059 -0.9189,-2.50633 -1.1607,-3.16718 -2.0469,-6.04425 -3.4331,-9.31621 -4.1584,-9.81589 -0.4997,-0.32233 -1.1928,-0.48351 -2.0793,-0.48354 l -1.2088,0 -17.625,0 c -2.176,3e-5 -3.6185,0.24179 -4.3278,0.72532 -0.7092,0.46743 -1.507,1.70853 -2.3935,3.72326 -0.8381,1.80524 -1.636,3.51374 -2.3935,5.12553 -0.7414,1.5957 -1.4023,3.22363 -1.9824,4.88377 -0.5803,1.66016 -0.8705,3.04632 -0.8705,4.15845 0,1.67628 0.4433,2.86095 1.3298,3.55403 0.8865,0.69307 2.3209,1.2572 4.3035,1.69239 0.9993,0.16125 1.4989,0.55608 1.4989,1.18467 0,0.5319 -0.4674,0.79784 -1.4022,0.79784 -1.5312,0 -3.7636,-0.0725 -6.697,-0.21758 -2.9174,-0.1289 -5.3029,-0.19342 -7.1564,-0.19342 -0.081,0 -0.3949,0.0484 -0.9429,0.14508 -0.5481,0.0967 -0.9913,0.14507 -1.3298,0.14507 -1.1283,0 -1.6924,-0.32235 -1.6924,-0.96708 0,-0.40295 0.2659,-0.73336 0.7978,-0.99125 1.2896,-0.33848 2.3614,-0.82203 3.2157,-1.45063 0.8703,-0.64471 1.5795,-1.37809 2.1275,-2.20012 0.5479,-0.822 0.9832,-1.58761 1.3055,-2.29681 0.3223,-0.72531 0.9429,-2.17592 1.8618,-4.35187 l 24.854,-55.26873 c 0.097,-0.16109 0.2013,-0.3626 0.3142,-0.60444 0.1288,-0.2417 0.2578,-0.42705 0.3869,-0.55607 0.1452,-0.14507 0.3383,-0.21751 0.5801,-0.2176 0.6125,9e-5 1.1121,0.45945 1.499,1.37811 l 20.7924,53.18951 c 1.2731,3.3848 2.1677,5.64131 2.6836,6.76957 0.5318,1.12827 1.4505,2.20817 2.7562,3.23972 1.3055,1.03156 3.1268,1.74881 5.4639,2.15176 0.9187,0.14508 1.378,0.50772 1.3782,1.08797 -2e-4,0.59637 -0.3306,0.89454 -0.9913,0.89454 -0.7254,0 -1.7972,-0.0322 -3.2155,-0.0967 -1.4186,-0.0645 -2.4904,-0.0967 -3.2156,-0.0967 -1.6279,0 -4.0619,0.0645 -7.3014,0.1934 -3.2398,0.1289 -5.6576,0.19342 -7.2531,0.19342 -0.8705,0 -1.3057,-0.32235 -1.3057,-0.96708 0,-0.4513 0.5641,-0.87037 1.6924,-1.25721 1.1445,-0.38683 2.0067,-0.74949 2.587,-1.08795 0.5801,-0.35461 0.8703,-1.06379 0.8704,-2.1276 m 50.0324,-48.62005 0,40.49657 c 0.097,2.09536 0.1773,3.78775 0.2418,5.07718 0.081,1.28944 0.3223,2.24847 0.7252,2.87706 0.4191,0.62862 1.1847,1.06381 2.2968,1.30557 1.1283,0.24178 2.845,0.36266 5.1499,0.36266 4.7225,0 9.5499,-0.58024 14.482,-1.74075 4.9482,-1.16049 8.1717,-3.19137 9.6709,-6.09262 0.5479,-0.85425 1.0154,-1.28138 1.4022,-1.28139 0.4513,10e-6 0.6769,0.26597 0.6769,0.79784 0,2.62726 -1.3217,5.32703 -3.965,8.09932 -2.7401,2.91737 -6.963,4.37605 -12.6688,4.37605 -1.9342,0 -4.0456,-0.0805 -6.3344,-0.24178 -2.2727,-0.14508 -4.5614,-0.29012 -6.8663,-0.43518 -2.2888,-0.14508 -4.3921,-0.21759 -6.3102,-0.2176 -3.1592,10e-6 -6.955,0.29819 -11.3873,0.89456 -0.9189,0 -1.3782,-0.26596 -1.3782,-0.79784 0,-0.56414 0.4272,-0.99127 1.2814,-1.28139 1.4828,-0.46742 2.603,-1.07184 3.3606,-1.81328 0.7737,-0.75754 1.3136,-1.62792 1.62,-2.61112 0.3061,-0.98319 0.4834,-2.1437 0.5317,-3.4815 0.064,-1.33778 0.1123,-2.63528 0.1453,-3.89251 l 0,-41.19768 c 0,-3.20744 -0.5077,-5.52037 -1.5231,-6.93883 -0.9994,-1.43444 -2.9738,-2.4821 -5.9234,-3.143 -0.7898,-0.19336 -1.1847,-0.52378 -1.1847,-0.99127 0,-0.74136 0.5319,-1.11208 1.5957,-1.11215 1.3378,7e-5 3.1349,0.0888 5.3914,0.26596 2.2566,0.16126 3.9571,0.24183 5.1015,0.24177 1.1121,6e-5 2.7643,-0.0806 4.9563,-0.24177 2.192,-0.17723 3.9408,-0.26589 5.2464,-0.26596 0.7252,7e-5 1.088,0.29826 1.088,0.89457 0,0.80596 -0.4595,1.27338 -1.3782,1.40227 -0.7092,0.16125 -1.4425,0.35465 -2.2001,0.58024 -0.7576,0.2096 -1.4103,0.60449 -1.9583,1.18467 -0.5481,0.56421 -0.9994,1.57158 -1.3539,3.02214 -0.3547,1.45068 -0.5319,3.41707 -0.5319,5.89919"
         style="font-size:60px;font-style:normal;font-variant:normal;font-weight:bold;font-stretch:normal;text-align:start;line-height:125%;writing-mode:lr-tb;text-anchor:start;fill:#d90000;fill-opacity:1;stroke:none;font-family:Goudy Old Style;-inkscape-font-specification:Goudy Old Style Bold"
         inkscape:connector-curvature="0" />
      <path
         id="text3171"
         d="m 866.10764,655.13412 0.68826,5.41566 c 0.0149,0.0526 0.03,0.1317 0.0451,0.23692 0.0224,0.1053 0.0376,0.18055 0.0451,0.22566 -1e-5,0.36858 -0.13913,0.55286 -0.41746,0.55284 -0.0979,2e-5 -0.47765,-0.50769 -1.13954,-1.52315 -0.66193,-1.02294 -1.44043,-2.02709 -2.33549,-3.01247 -0.8876,-0.99283 -2.07603,-1.88039 -3.56531,-2.66269 -1.48181,-0.78223 -3.21558,-1.17337 -5.2013,-1.1734 -2.61006,3e-5 -4.84778,0.55664 -6.71316,1.66983 -1.86539,1.10573 -3.27948,2.66273 -4.24226,4.67101 -0.95527,2.0008 -1.4329,4.30998 -1.4329,6.92754 0,2.05345 0.2783,4.03166 0.83491,5.93465 0.56412,1.89549 1.39904,3.60293 2.50475,5.12232 1.1132,1.51939 2.4972,2.72288 4.15201,3.61044 1.65477,0.88004 3.54649,1.32006 5.67515,1.32006 1.37646,0 2.82064,-0.24822 4.33253,-0.74465 1.51937,-0.50396 2.89585,-1.22981 4.12944,-2.17755 1.23354,-0.94773 2.14368,-2.03839 2.7304,-3.27196 0.0149,-0.03 0.0789,-0.17299 0.1918,-0.42873 0.12032,-0.25574 0.23691,-0.44755 0.34977,-0.57543 0.11273,-0.12791 0.24066,-0.19178 0.38361,-0.1918 0.18048,2e-5 0.30083,0.0903 0.36104,0.27078 -3e-5,1.26366 -0.24449,2.62134 -0.73338,4.07304 -0.0526,0.42122 -0.48141,0.89509 -1.2862,1.42161 -0.79734,0.52652 -1.82406,1.02296 -3.08018,1.4893 -1.25615,0.46635 -2.62886,0.84995 -4.11814,1.15084 -1.48181,0.30837 -2.84325,0.46258 -4.08431,0.46258 -2.25655,0 -4.37016,-0.35352 -6.34084,-1.06057 -1.96319,-0.70704 -3.68191,-1.73752 -5.15616,-3.09145 -1.47426,-1.36142 -2.61757,-2.98989 -3.42992,-4.88537 -0.80483,-1.90299 -1.20723,-4.00532 -1.20723,-6.30699 0,-3.09894 0.67694,-5.92335 2.03087,-8.47325 1.36142,-2.55736 3.2682,-4.56191 5.72029,-6.01363 2.45959,-1.4592 5.25393,-2.18879 8.38299,-2.18883 1.27868,4e-5 2.50847,0.13171 3.68941,0.3949 1.18842,0.26328 2.22266,0.56791 3.10272,0.91389 0.88002,0.3385 1.67732,0.68451 2.39192,1.03799 0.72205,0.34604 1.10942,0.51903 1.16211,0.51901 0.15035,2e-5 0.33093,-0.0827 0.54157,-0.24821 0.2181,-0.17298 0.4099,-0.25948 0.57541,-0.25951 0.19553,0.0226 0.34974,0.31217 0.46258,0.86877 m 37.00528,12.76064 c 0,-2.30164 0.4137,-4.43405 1.24109,-6.39726 0.83491,-1.97066 1.99702,-3.67058 3.48632,-5.09974 1.49683,-1.43661 3.24187,-2.54233 5.23516,-3.31708 2.00072,-0.78223 4.14817,-1.17336 6.44235,-1.1734 2.27156,4e-5 4.3926,0.36859 6.36345,1.1057 1.97068,0.73715 3.68553,1.79396 5.14473,3.17042 1.45919,1.3765 2.59506,3.02375 3.40743,4.94178 0.81237,1.91054 1.21855,4.01287 1.21855,6.30699 0,2.36185 -0.39116,4.54691 -1.17349,6.55521 -0.77474,2.00831 -1.89542,3.76088 -3.36221,5.25769 -1.46679,1.49684 -3.19666,2.65142 -5.18995,3.46378 -1.9933,0.81233 -4.15956,1.21852 -6.4988,1.21852 -2.37686,0 -4.56953,-0.37234 -6.57768,-1.11699 -2.00089,-0.75217 -3.73084,-1.83154 -5.19005,-3.2381 -1.45171,-1.41409 -2.57245,-3.11024 -3.36223,-5.08847 -0.78979,-1.98573 -1.18467,-4.18208 -1.18467,-6.58905 m 3.5653,-1.47803 c 0,1.99327 0.31592,3.96022 0.94774,5.90082 0.63183,1.94062 1.55324,3.69318 2.76426,5.25771 1.21089,1.56451 2.67768,2.80185 4.40013,3.71197 1.73004,0.9026 3.64427,1.35391 5.74287,1.35391 1.79771,0 3.43367,-0.36855 4.90805,-1.10569 1.48164,-0.73712 2.73403,-1.74881 3.757,-3.03503 1.02297,-1.28621 1.79771,-2.768 2.32422,-4.44536 0.53409,-1.67734 0.80114,-3.42238 0.80114,-5.23512 0,-2.03086 -0.3461,-3.97147 -1.03799,-5.82185 -0.69205,-1.85784 -1.68118,-3.51263 -2.96741,-4.96435 -1.27863,-1.45167 -2.80187,-2.58745 -4.56937,-3.40735 -1.76767,-0.82737 -3.67068,-1.24106 -5.70903,-1.24108 -1.84294,2e-5 -3.4789,0.3385 -4.90806,1.01543 -1.42899,0.66947 -2.62122,1.60592 -3.57647,2.80937 -0.95527,1.20351 -1.67359,2.59127 -2.15499,4.16329 -0.4814,1.57207 -0.72209,3.25318 -0.72209,5.04333 m 68.42091,-6.56648 c 0.14359,-2.54233 1.14329,-4.50174 3.00125,-5.87826 1.85778,-1.37644 4.09551,-2.06467 6.71302,-2.06471 1.00036,4e-5 1.83914,0.0941 2.51617,0.28207 0.68445,0.18055 1.36891,0.41747 2.05337,0.7108 0.69205,0.29337 1.16953,0.44005 1.43295,0.44002 0.15019,3e-5 0.33835,-0.10151 0.56414,-0.30463 0.22562,-0.20306 0.42104,-0.3046 0.58658,-0.30463 0.37615,3e-5 0.56414,0.37236 0.56414,1.11698 0,0.74468 0.12048,1.78268 0.36112,3.11401 0.24064,1.33136 0.37978,2.13995 0.41741,2.42575 0,0.46638 -0.16934,0.69956 -0.50769,0.69953 -0.25582,3e-5 -0.48524,-0.3535 -0.68825,-1.06057 -0.28587,-0.88001 -0.74091,-1.67733 -1.36528,-2.3919 -0.62422,-0.72208 -1.33888,-1.31628 -2.14366,-1.78266 -0.79735,-0.47384 -1.666,-0.83488 -2.60628,-1.08313 -0.93269,-0.25571 -1.85416,-0.38359 -2.76424,-0.38361 -0.96272,2e-5 -1.88419,0.20687 -2.76423,0.62053 -0.88004,0.41373 -1.59454,1.00419 -2.14365,1.77137 -0.54912,0.76725 -0.82376,1.6473 -0.82376,2.64014 0,1.9632 0.66201,3.38481 1.98587,4.26484 1.33128,0.88005 3.41106,1.809 6.23917,2.7868 2.82827,0.97784 4.96813,2.06097 6.41989,3.24939 1.45161,1.18094 2.17749,2.98616 2.17749,5.41566 0,2.01584 -0.48887,3.76841 -1.46662,5.25771 -0.97032,1.48179 -2.29038,2.61004 -3.96034,3.38478 -1.6698,0.76723 -3.50877,1.15084 -5.51709,1.15084 -1.12827,0 -2.40707,-0.15416 -3.83606,-0.46258 -1.42915,-0.3084 -2.49355,-0.72209 -3.19303,-1.2411 -0.25583,-0.24069 -0.64319,-1.36144 -1.16211,-3.36223 -0.51908,-2.00829 -0.77853,-3.2757 -0.77853,-3.80224 0,-0.12791 0.0561,-0.24445 0.16917,-0.34975 0.11224,-0.1053 0.22579,-0.15796 0.33852,-0.15796 0.13534,2e-5 0.42879,0.47389 0.88004,1.42162 0.45141,0.94023 1.00036,1.86165 1.64735,2.76425 0.64682,0.89509 1.57192,1.69992 2.77546,2.41448 1.21096,0.71456 2.69277,1.07184 4.44542,1.07184 1.27104,0 2.47457,-0.26701 3.61044,-0.80106 1.14329,-0.53405 2.06839,-1.29373 2.77546,-2.27909 0.70706,-0.98534 1.0606,-2.11736 1.0606,-3.39608 0,-1.8729 -0.65822,-3.22681 -1.97448,-4.06173 -1.31626,-0.84242 -3.42245,-1.77888 -6.31823,-2.80937 -2.88835,-1.038 -5.066,-2.17378 -6.53262,-3.40737 -1.45936,-1.24107 -2.18888,-3.11397 -2.18888,-5.61873 m 79.57151,-5.22386 -6.3297,0 c -0.6394,3e-5 -1.053,0.1053 -1.2411,0.31592 -0.188,0.21063 -0.2821,0.64689 -0.2821,1.30877 l 0,21.25647 c 0,1.63221 0.1617,2.83946 0.4852,3.62173 0.331,0.77474 1.1696,1.2787 2.516,1.51186 0.4965,0.0827 0.7598,0.23694 0.7898,0.4626 0,0.15795 -0.061,0.28958 -0.1806,0.39488 -0.1204,0.1053 -0.2632,0.15795 -0.4286,0.15795 -0.2558,0 -0.6356,-0.0414 -1.1397,-0.12412 -0.5038,-0.0753 -0.91,-0.11289 -1.2183,-0.11289 -0.9327,0 -2.1401,0.03 -3.6219,0.0903 -1.4742,0.0677 -2.6063,0.10151 -3.396,0.10151 -0.6468,0 -0.9703,-0.13914 -0.9703,-0.41746 0,-0.27078 0.2444,-0.44002 0.7334,-0.50771 1.2637,-0.13534 2.0722,-0.51525 2.4258,-1.13954 0.3609,-0.62432 0.5415,-1.57206 0.5415,-2.84323 l 0,-0.97031 0,-21.25646 c 0,-0.70702 -0.071,-1.19217 -0.2144,-1.45545 -0.1353,-0.26324 -0.5115,-0.39487 -1.1283,-0.3949 l -6.0135,0 c -1.0606,3e-5 -1.858,0.19935 -2.3919,0.59797 -0.5267,0.39869 -0.8989,0.94401 -1.1171,1.63598 -0.2106,0.68451 -0.3685,1.21856 -0.4738,1.60215 -0.1057,0.37611 -0.2709,0.56415 -0.4965,0.56411 -0.2783,4e-5 -0.4174,-0.21809 -0.4174,-0.65438 0,-0.27827 0.079,-0.84617 0.2368,-1.70368 0.068,-0.35349 0.1387,-0.98156 0.2144,-1.8842 0.083,-0.90258 0.2107,-1.54568 0.3836,-1.92932 0.1806,-0.3911 0.5041,-0.58666 0.9703,-0.5867 l 24.2577,0 c 0.7974,4e-5 1.2975,0.10151 1.5007,0.30463 0.203,0.20311 0.3045,0.6281 0.3045,1.27494 0,1.00794 0.076,2.13244 0.2258,3.3735 -2e-4,0.45885 -0.1502,0.68826 -0.4514,0.68825 -0.3009,10e-6 -0.4889,-0.2294 -0.5642,-0.68825 -0.188,-1.07558 -0.5341,-1.7751 -1.038,-2.09857 -0.4964,-0.33092 -1.32,-0.4964 -2.4707,-0.49643 m 55.0429,13.3135 -3.554,-8.91329 c -0.2258,-0.83488 -0.4741,-1.25233 -0.7447,-1.25235 -0.076,2e-5 -0.1994,0.13913 -0.3724,0.41746 l -4.389,9.79331 c -0.1805,0.31592 -0.2706,0.59422 -0.2706,0.83491 0.03,0.39866 0.3986,0.59799 1.1056,0.59797 l 0.5077,0 6.1941,0 0.6432,0 c 0.7371,2e-5 1.1057,-0.16922 1.1057,-0.5077 0,-0.0977 -0.076,-0.42121 -0.2256,-0.97031 m 4.5243,13.07656 c 0,-0.50396 -0.061,-0.98912 -0.1806,-1.45546 -0.1205,-0.47387 -0.3083,-1.04928 -0.5641,-1.72625 -0.2483,-0.67694 -0.4288,-1.16961 -0.5416,-1.47802 -0.9553,-2.82064 -1.6021,-4.34755 -1.9406,-4.58075 -0.2332,-0.15036 -0.5565,-0.22564 -0.9703,-0.22564 l -0.5642,0 -8.225,0 c -1.0154,0 -1.6886,0.1129 -2.0195,0.33847 -0.3309,0.21814 -0.7033,0.79732 -1.1171,1.73753 -0.391,0.84244 -0.7633,1.63974 -1.1169,2.39192 -0.3461,0.74465 -0.6544,1.50435 -0.9252,2.27909 -0.2707,0.77474 -0.4062,1.42161 -0.4062,1.94061 0,0.78226 0.207,1.33511 0.6206,1.65854 0.4138,0.32343 1.0832,0.5867 2.0083,0.78979 0.4664,0.0753 0.6995,0.25949 0.6995,0.55285 0,0.24822 -0.2181,0.37232 -0.6543,0.37232 -0.7146,0 -1.7564,-0.0338 -3.1253,-0.10151 -1.3615,-0.0602 -2.4746,-0.0903 -3.3396,-0.0903 -0.038,0 -0.1844,0.0226 -0.4401,0.0677 -0.2558,0.0451 -0.4626,0.0677 -0.6205,0.0677 -0.5266,0 -0.7898,-0.15036 -0.7898,-0.45129 0,-0.18806 0.1238,-0.34225 0.3723,-0.4626 0.6016,-0.15795 1.1019,-0.38361 1.5005,-0.67695 0.4062,-0.30088 0.7373,-0.64311 0.9929,-1.02672 0.2559,-0.38362 0.4589,-0.7409 0.6092,-1.07186 0.1502,-0.33846 0.4401,-1.01542 0.8688,-2.03087 l 11.5987,-25.79207 c 0.044,-0.0753 0.094,-0.16921 0.1469,-0.28207 0.059,-0.11273 0.1205,-0.1993 0.1805,-0.25951 0.068,-0.0677 0.1585,-0.1015 0.2709,-0.1015 0.2857,3e-5 0.5189,0.2144 0.6995,0.64311 l 9.703,24.82177 c 0.5942,1.57958 1.0116,2.63262 1.2524,3.15913 0.2482,0.52654 0.6769,1.03048 1.2862,1.51188 0.6092,0.48139 1.4592,0.81611 2.5499,1.00415 0.4287,0.0677 0.643,0.23693 0.6431,0.50773 -10e-5,0.2783 -0.1534,0.41745 -0.4626,0.41745 -0.3385,0 -0.8388,-0.0149 -1.5006,-0.045 -0.662,-0.03 -1.1621,-0.0451 -1.5006,-0.0451 -0.7597,0 -1.8954,0.03 -3.4073,0.0903 -1.512,0.0601 -2.6403,0.0903 -3.3848,0.0903 -0.4062,0 -0.6094,-0.15036 -0.6094,-0.45129 0,-0.21062 0.2633,-0.40619 0.79,-0.5867 0.5339,-0.18053 0.9363,-0.34977 1.2071,-0.50772 0.2709,-0.16548 0.4062,-0.49644 0.4062,-0.99287 m 102.6071,-13.1217 6.2394,9.19534 c 0.068,0.0979 0.4061,0.59799 1.0153,1.50059 0.6168,0.90262 1.1772,1.62471 1.6812,2.16626 0.5115,0.53405 1.0719,0.96655 1.681,1.2975 0.6094,0.32345 1.2788,0.48516 2.0084,0.48516 0.519,0 0.7785,0.12412 0.7785,0.37232 -0.038,0.30839 -0.4512,0.53028 -1.241,0.66567 -0.7823,0.14293 -1.4443,0.21438 -1.9859,0.21438 -1.4742,0 -2.7492,-0.42122 -3.8248,-1.26366 -1.0756,-0.84242 -2.1136,-2.00829 -3.114,-3.49761 l -5.6412,-8.55223 c -0.3611,-0.67695 -0.8274,-1.09817 -1.3991,-1.26364 -0.5717,-0.17299 -1.3653,-0.25949 -2.3807,-0.25951 -1.3614,2e-5 -2.0421,0.29336 -2.0421,0.88004 l 0,7.07422 c 0,1.24108 0.091,2.249 0.2708,3.02374 0.1804,0.77474 0.5642,1.39903 1.1508,1.8729 0.5943,0.47388 1.4932,0.76723 2.6965,0.88006 0.4965,0.0827 0.7748,0.22189 0.835,0.41746 0,0.36855 -0.2482,0.55284 -0.7447,0.55284 -0.6318,0 -1.5569,-0.0338 -2.7755,-0.1015 -1.2109,-0.0602 -2.1964,-0.0903 -2.956,-0.0903 -2.1212,0 -3.7083,0.0791 -4.7613,0.23693 -0.4288,0 -0.643,-0.15416 -0.643,-0.46259 0,-0.24821 0.1842,-0.40242 0.5527,-0.46259 1.211,-0.25573 1.9971,-0.83867 2.3581,-1.74881 0.3685,-0.91765 0.5529,-2.10609 0.5529,-3.5653 l 0,-1.47803 0,-15.11872 0,-3.41864 c -0.03,-1.19592 -0.2445,-2.08349 -0.6432,-2.66269 -0.3986,-0.57914 -0.7898,-0.92891 -1.1733,-1.04928 -0.3762,-0.12032 -0.8763,-0.23691 -1.5007,-0.34976 -0.6242,-0.12032 -0.9365,-0.28956 -0.9365,-0.50772 0,-0.40615 0.2333,-0.60923 0.6997,-0.60926 0.4663,3e-5 1.0906,0.0414 1.8728,0.12412 0.7898,0.0753 1.3803,0.11289 1.7715,0.11289 0.7445,3e-5 1.8315,-0.0376 3.2607,-0.11289 1.4365,-0.0827 2.5836,-0.12412 3.4411,-0.12412 2.9486,3e-5 5.3931,0.53783 7.3337,1.61342 1.9405,1.06811 2.9937,2.96734 3.1591,5.69772 0,1.81277 -0.5077,3.43746 -1.5231,4.87409 -1.008,1.42915 -2.3656,2.57621 -4.0731,3.4412 m -6.6003,-0.50773 2.5386,0 c 1.9557,2e-5 3.4976,-0.5453 4.6259,-1.63597 1.1358,-1.09816 1.7036,-2.6326 1.7036,-4.60331 0,-1.13577 -0.2294,-2.15872 -0.6883,-3.06887 -0.4588,-0.91763 -1.0792,-1.69237 -1.8615,-2.32423 -0.7748,-0.63179 -1.666,-1.11319 -2.674,-1.44417 -1.0004,-0.33845 -2.0459,-0.50769 -3.1366,-0.50771 -1.4215,2e-5 -2.1324,0.66193 -2.1324,1.98573 l 0,0.7785 0,9.15022 c 0,0.50396 0.038,0.86877 0.1122,1.09441 0.083,0.21814 0.2331,0.36858 0.4513,0.4513 0.2182,0.0827 0.5717,0.12412 1.0606,0.12412 m 62.815,-8.27016 0,16.86753 c 0,1.87292 0.2182,3.36222 0.6544,4.46792 0.4363,1.10569 1.4216,1.78642 2.9561,2.04214 0.7673,0.1129 1.1508,0.29712 1.1508,0.55287 0,0.15795 -0.079,0.28958 -0.237,0.39488 -0.1584,0.11289 -0.3271,0.16924 -0.5077,0.16924 -0.3535,0 -0.8724,-0.0338 -1.5569,-0.10151 -0.6846,-0.0602 -1.2411,-0.0903 -1.6699,-0.0903 -0.9477,0 -2.1625,0.03 -3.6443,0.0903 -1.4742,0.0677 -2.6025,0.10151 -3.3847,0.10151 -0.3535,0 -0.5529,-0.13914 -0.5981,-0.41746 0,-0.22565 0.2446,-0.42122 0.7335,-0.5867 0.4889,-0.16548 0.8988,-0.34599 1.2298,-0.54156 0.3385,-0.20309 0.6656,-0.65064 0.9815,-1.34263 0.3159,-0.69951 0.4739,-1.7112 0.4739,-3.03502 l 0,-19.36098 c 0,-1.15081 -0.059,-2.03086 -0.1804,-2.64014 -0.1205,-0.61675 -0.425,-1.12824 -0.9141,-1.53444 -0.4888,-0.40615 -1.2636,-0.70702 -2.3242,-0.90262 -0.4286,-0.0827 -0.6618,-0.23689 -0.6995,-0.46258 0,-0.34597 0.2483,-0.51896 0.7447,-0.51899 0.6243,3e-5 1.4254,0.0338 2.4031,0.1015 0.978,0.0602 1.7339,0.0903 2.268,0.0903 0.5641,3e-5 1.3801,-0.03 2.4483,-0.0903 1.0756,-0.0677 1.9519,-0.1015 2.6287,-0.1015 0.2633,3e-5 0.4176,0.0941 0.4627,0.28206 0,0.27832 -0.1842,0.52656 -0.5528,0.74465 -0.9026,0.3385 -1.557,0.73716 -1.9632,1.19596 -0.4062,0.45885 -0.6582,0.98914 -0.756,1.59084 -0.097,0.60177 -0.1468,1.51942 -0.1468,2.75296 l 0,0.28207 m 68.7094,-3.98276 0.6882,5.41566 c 0.016,0.0526 0.03,0.13171 0.045,0.23693 0.023,0.1053 0.038,0.18055 0.045,0.22566 0,0.36858 -0.1387,0.55286 -0.4174,0.55284 -0.097,2e-5 -0.4777,-0.50769 -1.1397,-1.52315 -0.6618,-1.02294 -1.4404,-2.02709 -2.3354,-3.01247 -0.8877,-0.99283 -2.076,-1.8804 -3.5654,-2.66269 -1.4818,-0.78224 -3.2155,-1.17337 -5.2012,-1.1734 -2.6101,3e-5 -4.8478,0.55664 -6.7132,1.66983 -1.8654,1.10573 -3.2795,2.66273 -4.2422,4.67101 -0.9553,2.0008 -1.433,4.30998 -1.433,6.92754 0,2.05345 0.2783,4.03166 0.835,5.93465 0.5641,1.89549 1.3989,3.60293 2.5048,5.12232 1.1131,1.51939 2.4972,2.72287 4.1519,3.61044 1.6548,0.88004 3.5464,1.32006 5.6752,1.32006 1.3764,0 2.8205,-0.24822 4.3326,-0.74465 1.5192,-0.50396 2.8957,-1.22981 4.1293,-2.17755 1.2336,-0.94773 2.1437,-2.03839 2.7304,-3.27196 0.016,-0.03 0.079,-0.17299 0.1918,-0.42873 0.1205,-0.25574 0.237,-0.44755 0.3497,-0.57543 0.1123,-0.12791 0.2407,-0.19178 0.3838,-0.1918 0.1804,2e-5 0.3007,0.0903 0.3609,0.27078 0,1.26366 -0.2444,2.62133 -0.7333,4.07304 -0.053,0.42122 -0.4814,0.89509 -1.2862,1.42161 -0.7973,0.52652 -1.8241,1.02296 -3.0801,1.4893 -1.2562,0.46635 -2.6289,0.84995 -4.1183,1.15083 -1.4818,0.30838 -2.8432,0.46259 -4.0843,0.46259 -2.2566,0 -4.3702,-0.35352 -6.3409,-1.06057 -1.9631,-0.70704 -3.6819,-1.73752 -5.1561,-3.09145 -1.4742,-1.36142 -2.6175,-2.98989 -3.4299,-4.88537 -0.8047,-1.903 -1.2073,-4.00532 -1.2073,-6.30699 0,-3.09894 0.677,-5.92335 2.0309,-8.47325 1.3615,-2.55737 3.2682,-4.56191 5.7203,-6.01363 2.4597,-1.4592 5.254,-2.1888 8.383,-2.18883 1.2788,3e-5 2.5085,0.13171 3.6895,0.3949 1.1883,0.26328 2.2225,0.56791 3.1027,0.91389 0.8801,0.3385 1.6772,0.6845 2.3919,1.03799 0.7221,0.34604 1.1095,0.51903 1.1621,0.51901 0.1502,2e-5 0.3309,-0.0827 0.5415,-0.24822 0.2182,-0.17297 0.41,-0.25947 0.5754,-0.2595 0.1956,0.0226 0.3497,0.31217 0.4626,0.86876 m 56.6758,12.80578 -3.554,-8.91328 c -0.2257,-0.83489 -0.4739,-1.25234 -0.7447,-1.25236 -0.076,2e-5 -0.1992,0.13914 -0.3724,0.41746 l -4.3888,9.79331 c -0.1806,0.31592 -0.2708,0.59422 -0.2708,0.83491 0.03,0.39866 0.3986,0.59799 1.1056,0.59798 l 0.5077,0 6.1943,0 0.643,0 c 0.7371,10e-6 1.1057,-0.16923 1.1057,-0.50771 0,-0.0977 -0.074,-0.42121 -0.2256,-0.97031 m 4.5243,13.07656 c 0,-0.50396 -0.059,-0.98912 -0.1804,-1.45546 -0.1205,-0.47387 -0.3085,-1.04928 -0.5642,-1.72625 -0.2482,-0.67694 -0.4288,-1.16961 -0.5416,-1.47802 -0.9553,-2.82064 -1.6022,-4.34755 -1.9405,-4.58075 -0.2332,-0.15036 -0.5567,-0.22564 -0.9703,-0.22564 l -0.5642,0 -8.225,0 c -1.0156,0 -1.6886,0.1129 -2.0197,0.33847 -0.3309,0.21814 -0.7033,0.79732 -1.1169,1.73753 -0.3912,0.84244 -0.7635,1.63974 -1.1171,2.39192 -0.3459,0.74465 -0.6544,1.50435 -0.925,2.27909 -0.2709,0.77474 -0.4062,1.42162 -0.4062,1.94061 0,0.78227 0.2068,1.33511 0.6205,1.65854 0.4137,0.32343 1.0831,0.5867 2.0084,0.78979 0.4662,0.0753 0.6994,0.25949 0.6994,0.55285 0,0.24822 -0.2182,0.37232 -0.6544,0.37232 -0.7145,0 -1.7563,-0.0338 -3.1253,-0.10151 -1.3614,-0.0602 -2.4746,-0.0903 -3.3396,-0.0903 -0.038,0 -0.1842,0.0226 -0.4401,0.0677 -0.2556,0.0451 -0.4626,0.0677 -0.6205,0.0677 -0.5265,0 -0.7898,-0.15036 -0.7898,-0.45129 0,-0.18806 0.1238,-0.34225 0.3724,-0.4626 0.6017,-0.15795 1.1018,-0.38361 1.5006,-0.67695 0.4062,-0.30088 0.7371,-0.64311 0.9927,-1.02672 0.2559,-0.38362 0.4589,-0.7409 0.6094,-1.07185 0.1502,-0.33847 0.44,-1.01543 0.8687,-2.03088 l 11.5986,-25.79207 c 0.044,-0.0753 0.094,-0.16921 0.1469,-0.28207 0.059,-0.11273 0.1205,-0.1993 0.1804,-0.25951 0.068,-0.0677 0.1584,-0.1015 0.2708,-0.1015 0.2859,3e-5 0.5189,0.2144 0.6995,0.64311 l 9.703,24.82177 c 0.5942,1.57958 1.0118,2.63262 1.2524,3.15913 0.2483,0.52654 0.6771,1.03048 1.2863,1.51188 0.6092,0.4814 1.4592,0.81611 2.5498,1.00415 0.4288,0.0677 0.6432,0.23693 0.6432,0.50773 0,0.2783 -0.1535,0.41745 -0.4626,0.41745 -0.3386,0 -0.8387,-0.0149 -1.5007,-0.045 -0.6618,-0.03 -1.1621,-0.0451 -1.5004,-0.0451 -0.7597,0 -1.8956,0.03 -3.4075,0.0903 -1.5118,0.0601 -2.6401,0.0903 -3.3848,0.0903 -0.4062,0 -0.6092,-0.15036 -0.6092,-0.45129 0,-0.21062 0.2633,-0.40619 0.7898,-0.5867 0.5339,-0.18053 0.9365,-0.34977 1.2072,-0.50772 0.2708,-0.16548 0.4061,-0.49644 0.4061,-0.99287"
         style="font-size:60px;font-style:normal;font-variant:normal;font-weight:bold;font-stretch:normal;text-align:justify;line-height:125%;writing-mode:lr-tb;text-anchor:start;fill:#d90000;fill-opacity:1;stroke:none;font-family:Goudy Old Style;-inkscape-font-specification:Goudy Old Style Bold"
         inkscape:connector-curvature="0" />
      <rect
         style="fill:#a8a8a8;fill-opacity:1"
         id="rect3211"
         width="573.03149"
         height="8.7530279"
         x="836.38025"
         y="448.28326" />
      <rect
         style="fill:#a8a8a8;fill-opacity:1"
         id="rect3213"
         width="573.03149"
         height="3.2094433"
         x="836.38025"
         y="545.95258" />
      <rect
         style="fill:#a8a8a8;fill-opacity:1"
         id="rect3215"
         width="573.03149"
         height="8.7530279"
         x="836.30731"
         y="695.4834" />
      <rect
         style="fill:#a8a8a8;fill-opacity:1"
         id="rect3217"
         width="572.97992"
         height="3.1310573"
         x="836.35889"
         y="635.1568" />
    </g>
  </g>
</svg>
