<?xml version="1.0" encoding="UTF-8" standalone="no"?>
<!-- Created with Inkscape (http://www.inkscape.org/) -->

<svg
   xmlns:dc="http://purl.org/dc/elements/1.1/"
   xmlns:cc="http://creativecommons.org/ns#"
   xmlns:rdf="http://www.w3.org/1999/02/22-rdf-syntax-ns#"
   xmlns:svg="http://www.w3.org/2000/svg"
   xmlns="http://www.w3.org/2000/svg"
   xmlns:sodipodi="http://sodipodi.sourceforge.net/DTD/sodipodi-0.dtd"
   xmlns:inkscape="http://www.inkscape.org/namespaces/inkscape"
   width="530.12488"
   height="620"
   id="svg2"
   sodipodi:version="0.32"
   inkscape:version="0.48.0 r9654"
   sodipodi:docname="TEC.svg"
   inkscape:output_extension="org.inkscape.output.svg.inkscape"
   version="1.0"
   inkscape:export-filename="../TEC.png"
   inkscape:export-xdpi="10"
   inkscape:export-ydpi="10">
  <defs
     id="defs4">
    <inkscape:perspective
       sodipodi:type="inkscape:persp3d"
       inkscape:vp_x="0 : 526.18109 : 1"
       inkscape:vp_y="0 : 1000 : 0"
       inkscape:vp_z="744.09448 : 526.18109 : 1"
       inkscape:persp3d-origin="372.04724 : 350.78739 : 1"
       id="perspective10" />
    <inkscape:perspective
       id="perspective2390"
       inkscape:persp3d-origin="372.04724 : 350.78739 : 1"
       inkscape:vp_z="744.09448 : 526.18109 : 1"
       inkscape:vp_y="0 : 1000 : 0"
       inkscape:vp_x="0 : 526.18109 : 1"
       sodipodi:type="inkscape:persp3d" />
    <inkscape:perspective
       id="perspective2403"
       inkscape:persp3d-origin="372.04724 : 350.78739 : 1"
       inkscape:vp_z="744.09448 : 526.18109 : 1"
       inkscape:vp_y="0 : 1000 : 0"
       inkscape:vp_x="0 : 526.18109 : 1"
       sodipodi:type="inkscape:persp3d" />
    <inkscape:perspective
       id="perspective2484"
       inkscape:persp3d-origin="372.04724 : 350.78739 : 1"
       inkscape:vp_z="744.09448 : 526.18109 : 1"
       inkscape:vp_y="0 : 1000 : 0"
       inkscape:vp_x="0 : 526.18109 : 1"
       sodipodi:type="inkscape:persp3d" />
    <inkscape:perspective
       id="perspective2555"
       inkscape:persp3d-origin="372.04724 : 350.78739 : 1"
       inkscape:vp_z="744.09448 : 526.18109 : 1"
       inkscape:vp_y="0 : 1000 : 0"
       inkscape:vp_x="0 : 526.18109 : 1"
       sodipodi:type="inkscape:persp3d" />
    <inkscape:perspective
       id="perspective4358"
       inkscape:persp3d-origin="372.04724 : 350.78739 : 1"
       inkscape:vp_z="744.09448 : 526.18109 : 1"
       inkscape:vp_y="0 : 1000 : 0"
       inkscape:vp_x="0 : 526.18109 : 1"
       sodipodi:type="inkscape:persp3d" />
    <inkscape:perspective
       id="perspective4371"
       inkscape:persp3d-origin="372.04724 : 350.78739 : 1"
       inkscape:vp_z="744.09448 : 526.18109 : 1"
       inkscape:vp_y="0 : 1000 : 0"
       inkscape:vp_x="0 : 526.18109 : 1"
       sodipodi:type="inkscape:persp3d" />
  </defs>
  <sodipodi:namedview
     id="base"
     pagecolor="#ffffff"
     bordercolor="#666666"
     borderopacity="1.0"
     inkscape:pageopacity="0.0"
     inkscape:pageshadow="2"
     inkscape:zoom="0.8983871"
     inkscape:cx="265.06244"
     inkscape:cy="310"
     inkscape:document-units="px"
     inkscape:current-layer="layer1"
     showgrid="false"
     showguides="true"
     inkscape:guide-bbox="true"
     inkscape:window-width="1440"
     inkscape:window-height="780"
     inkscape:window-x="0"
     inkscape:window-y="24"
     height="400px"
     inkscape:showpageshadow="false"
     borderlayer="true"
     fit-margin-top="10"
     fit-margin-left="10"
     fit-margin-right="10"
     fit-margin-bottom="10"
     inkscape:window-maximized="1" />
  <metadata
     id="metadata7">
    <rdf:RDF>
      <cc:Work
         rdf:about="">
        <dc:format>image/svg+xml</dc:format>
        <dc:type
           rdf:resource="http://purl.org/dc/dcmitype/StillImage" />
        <dc:title></dc:title>
      </cc:Work>
    </rdf:RDF>
  </metadata>
  <g
     inkscape:label="Capa 1"
     inkscape:groupmode="layer"
     id="layer1"
     transform="translate(-32.22359,164.88899)">
    <g
       id="g2415"
       transform="matrix(1.515444,0,0,1.515444,-312.72915,-290.04755)"
       style="fill:#000000">
      <g
         style="fill:#000000;fill-opacity:1;stroke:none"
         transform="matrix(1.402258,-1.402258,1.402258,1.402258,-591.10386,-203.2825)"
         id="g2540">
        <path
           style="fill:#000000;fill-opacity:1;fill-rule:evenodd;stroke:none"
           d="m 140,568.62381 20,0 -20,-20 16,0 -16,-20.00922 12,0 -12,-20.03125 8,0 -8,-19.97308 4.02167,0 L 140,468.61239 l 0.99437,0 L 140,448.57033 l 0,120.05348 z"
           id="path2526"
           inkscape:connector-curvature="0" />
        <path
           style="fill:#000000;fill-opacity:1;fill-rule:evenodd;stroke:none"
           d="m 160,568.62418 20,0 -20,-20 16,0 -16,-20.00922 12,0 -12,-20.03125 8,0 -8,-19.97308 4.02167,0 L 160,468.61276 l 0.99437,0 L 160,448.5707 l 0,120.05348 z"
           id="path2528"
           inkscape:connector-curvature="0" />
        <path
           style="fill:#000000;fill-opacity:1;fill-rule:evenodd;stroke:none"
           d="m 180,568.62418 20,0 -20,-20 16,0 -16,-20.00922 12,0 -12,-20.03125 8,0 -8,-19.97308 4.02167,0 L 180,468.61276 l 0.99437,0 L 180,448.5707 l 0,120.05348 z"
           id="path2530"
           inkscape:connector-curvature="0" />
        <path
           style="fill:#000000;fill-opacity:1;fill-rule:evenodd;stroke:none"
           d="m 200,568.62418 20,0 -20,-20 16,0 -16,-20.00922 12,0 -12,-20.03125 8,0 -8,-19.97308 4.02167,0 L 200,468.61276 l 0.99437,0 L 200,448.5707 l 0,120.05348 z"
           id="path2532"
           inkscape:connector-curvature="0" />
        <path
           style="fill:#000000;fill-opacity:1;fill-rule:evenodd;stroke:none"
           d="m 220,568.62418 20,0 -20,-20 16,0 -16,-20.00922 12,0 -12,-20.03125 8,0 -8,-19.97308 4.02167,0 L 220,468.61276 l 0.99437,0 L 220,448.5707 l 0,120.05348 z"
           id="path2534"
           inkscape:connector-curvature="0" />
        <path
           style="fill:#000000;fill-opacity:1;fill-rule:evenodd;stroke:none"
           d="m 240,568.62418 20,0 -20,-20 16,0 -16,-20.00922 12,0 -12,-20.03125 8,0 -8,-19.97308 4.02167,0 L 240,468.61276 l 0.99437,0 L 240,448.5707 l 0,120.05348 z"
           id="path2536"
           inkscape:connector-curvature="0" />
      </g>
      <path
         sodipodi:nodetypes="cssssssssssssccsscccssscccccssscccsssccsssscccsscccccsssscccccccssscccc"
         id="path2561"
         d="m 445.47539,484.15731 c -12.66509,-3.56318 -20.61367,-16.07562 -19.3144,-30.40417 1.23174,-13.5839 11.33915,-24.17528 24.55261,-25.72826 3.5714,-0.41975 7.24502,-0.10435 12.34092,1.05952 6.80309,1.55379 7.32539,1.56203 8.37101,0.13206 2.10956,-2.885 3.16771,-1.6931 3.24805,3.65864 0.0428,2.85107 0.1442,7.00935 0.22538,9.24062 0.199,5.47081 -1.18757,5.80492 -3.74163,0.90153 -4.12977,-7.92854 -8.66053,-11.07587 -15.94434,-11.07587 -5.2576,0 -8.73778,1.58097 -12.80838,5.81855 -7.5951,7.90671 -8.4639,24.85474 -1.77933,34.71047 6.53477,9.63486 18.38931,10.98517 29.4776,3.35782 5.72329,-3.93696 7.90079,-3.00117 3.42694,1.47264 -6.50601,6.50603 -18.70377,9.4871 -28.05443,6.85645 z M 342.0717,482.72515 c 0,-0.47339 1.43089,-1.12916 3.17976,-1.45722 1.74887,-0.32807 3.57446,-1.33399 4.05686,-2.23542 0.50017,-0.93452 0.87709,-11.15627 0.87709,-23.78546 l 0,-22.14657 -5.45012,0 c -4.59642,0 -5.79955,0.34942 -7.68088,2.23076 -1.22692,1.22692 -2.47625,3.45822 -2.77629,4.95835 -0.30004,1.50023 -1.10334,2.72766 -1.78512,2.72766 -0.94848,0 -1.2396,-1.69379 -1.2396,-7.2122 l 0,-7.21219 23.43964,0 23.43963,0 0,7.21219 c 0,5.51841 -0.29112,7.2122 -1.2396,7.2122 -0.68178,0 -1.48508,-1.22743 -1.78512,-2.72766 -0.30004,-1.50013 -1.54936,-3.73143 -2.77629,-4.95835 -1.88133,-1.88134 -3.08446,-2.23076 -7.68087,-2.23076 l -5.45013,0 0,22.14657 c 0,12.62919 0.37692,22.85094 0.87709,23.78546 0.48241,0.90143 2.30799,1.90735 4.05686,2.23542 6.92497,1.29919 2.77524,2.31791 -9.44157,2.31791 -7.41384,0 -12.62134,-0.35511 -12.62134,-0.86069 z m 37.86402,0.36305 c 0,-0.27371 1.24602,-0.93209 2.76895,-1.463 1.56065,-0.54398 3.13425,-1.9261 3.60609,-3.16705 1.11812,-2.94095 1.0762,-35.59633 -0.0495,-38.55711 -0.59113,-1.55477 -1.78817,-2.51237 -3.59146,-2.87303 -6.70405,-1.34081 -0.21055,-2.12448 17.60342,-2.12448 l 19.32956,0 0,5.40914 c 0,2.97503 -0.37227,5.40915 -0.82727,5.40915 -0.45501,0 -1.57065,-1.51177 -2.47919,-3.35944 -1.94363,-3.95265 -5.26697,-4.98263 -14.72402,-4.56333 l -5.85991,0.25981 -0.25692,9.24063 -0.25692,9.24062 6.59238,0 c 7.31013,0 10.03314,-1.22616 10.96459,-4.93738 0.31402,-1.25113 1.17174,-2.27481 1.90605,-2.27481 1.08486,0 1.33512,1.59533 1.33512,8.51129 0,4.68116 -0.39448,8.75506 -0.87663,9.05301 -0.48214,0.29796 -1.59981,-0.99654 -2.48369,-2.87676 l -1.60707,-3.41849 -7.88383,-0.26054 -7.88384,-0.26045 0,9.90252 0,9.90243 4.28224,0.27479 c 8.32992,0.53451 14.59585,-0.6885 17.42775,-3.40163 1.43573,-1.37555 2.84527,-3.24089 3.1323,-4.1453 0.28704,-0.90441 1.15379,-1.64429 1.92612,-1.64429 1.48242,0 1.36289,1.63572 -0.67167,9.19149 l -0.92356,3.42985 -20.24954,0 c -11.13725,0 -20.24955,-0.22394 -20.24955,-0.49764 z"
         style="fill:#000000"
         inkscape:connector-curvature="0" />
    </g>
  </g>
</svg>
