<?xml version="1.0" encoding="UTF-8" standalone="no"?>
<!-- Created with Inkscape (http://www.inkscape.org/) -->

<svg
   xmlns:dc="http://purl.org/dc/elements/1.1/"
   xmlns:cc="http://creativecommons.org/ns#"
   xmlns:rdf="http://www.w3.org/1999/02/22-rdf-syntax-ns#"
   xmlns:svg="http://www.w3.org/2000/svg"
   xmlns="http://www.w3.org/2000/svg"
   xmlns:xlink="http://www.w3.org/1999/xlink"
   xmlns:sodipodi="http://sodipodi.sourceforge.net/DTD/sodipodi-0.dtd"
   xmlns:inkscape="http://www.inkscape.org/namespaces/inkscape"
   version="1.0"
   width="96"
   height="96"
   id="svg2408"
   inkscape:version="0.48.2 r9819"
   sodipodi:docname="document_spell.svg"
   inkscape:export-filename="/home/cjenkins/Hacking/nested/nested/icons/src/document_spell.png"
   inkscape:export-xdpi="22.5"
   inkscape:export-ydpi="22.5">
  <sodipodi:namedview
     pagecolor="#ffffff"
     bordercolor="#666666"
     borderopacity="1"
     objecttolerance="10"
     gridtolerance="10"
     guidetolerance="10"
     inkscape:pageopacity="0"
     inkscape:pageshadow="2"
     inkscape:window-width="1366"
     inkscape:window-height="713"
     id="namedview93"
     showgrid="false"
     inkscape:zoom="5.65625"
     inkscape:cx="48"
     inkscape:cy="48"
     inkscape:window-x="0"
     inkscape:window-y="26"
     inkscape:window-maximized="1"
     inkscape:current-layer="svg2408" />
  <defs
     id="defs2410">
    <inkscape:path-effect
       is_visible="true"
       id="path-effect3396"
       effect="spiro" />
    <inkscape:path-effect
       effect="spiro"
       id="path-effect3394"
       is_visible="true" />
    <inkscape:path-effect
       effect="spiro"
       id="path-effect3392"
       is_visible="true" />
    <inkscape:path-effect
       is_visible="true"
       id="path-effect3390"
       effect="spiro" />
    <inkscape:path-effect
       effect="spiro"
       id="path-effect3380"
       is_visible="true" />
    <inkscape:path-effect
       is_visible="true"
       id="path-effect3378"
       effect="spiro" />
    <inkscape:path-effect
       is_visible="true"
       id="path-effect3372"
       effect="spiro" />
    <inkscape:path-effect
       effect="spiro"
       id="path-effect3368"
       is_visible="true" />
    <inkscape:path-effect
       effect="spiro"
       id="path-effect3364"
       is_visible="true" />
    <inkscape:path-effect
       effect="spiro"
       id="path-effect3360"
       is_visible="true" />
    <linearGradient
       id="linearGradient3637">
      <stop
         id="stop3639"
         style="stop-color:#f0f0f0;stop-opacity:1"
         offset="0" />
      <stop
         id="stop3641"
         style="stop-color:#aaaaaa;stop-opacity:1"
         offset="1" />
    </linearGradient>
    <linearGradient
       x1="45.447727"
       y1="92.539597"
       x2="45.447727"
       y2="7.0165396"
       id="ButtonShadow"
       gradientUnits="userSpaceOnUse"
       gradientTransform="scale(1.0058652,0.994169)">
      <stop
         id="stop3750"
         style="stop-color:#000000;stop-opacity:1"
         offset="0" />
      <stop
         id="stop3752"
         style="stop-color:#000000;stop-opacity:0.58823532"
         offset="1" />
    </linearGradient>
    <linearGradient
       id="linearGradient3737">
      <stop
         id="stop3739"
         style="stop-color:#ffffff;stop-opacity:1"
         offset="0" />
      <stop
         id="stop3741"
         style="stop-color:#ffffff;stop-opacity:0"
         offset="1" />
    </linearGradient>
    <linearGradient
       id="linearGradient3700">
      <stop
         id="stop3702"
         style="stop-color:#2276c5;stop-opacity:1"
         offset="0" />
      <stop
         id="stop3704"
         style="stop-color:#68baf4;stop-opacity:1"
         offset="1" />
    </linearGradient>
    <filter
       color-interpolation-filters="sRGB"
       id="filter3174">
      <feGaussianBlur
         id="feGaussianBlur3176"
         stdDeviation="1.71" />
    </filter>
    <linearGradient
       x1="36.357143"
       y1="6"
       x2="36.357143"
       y2="63.893143"
       id="linearGradient3188"
       xlink:href="#linearGradient3737"
       gradientUnits="userSpaceOnUse" />
    <filter
       x="-0.192"
       y="-0.192"
       width="1.3839999"
       height="1.3839999"
       color-interpolation-filters="sRGB"
       id="filter3794">
      <feGaussianBlur
         id="feGaussianBlur3796"
         stdDeviation="5.28" />
    </filter>
    <linearGradient
       x1="48"
       y1="20.220806"
       x2="48"
       y2="138.66119"
       id="linearGradient3613"
       xlink:href="#linearGradient3737"
       gradientUnits="userSpaceOnUse" />
    <radialGradient
       cx="48"
       cy="90.171875"
       r="42"
       fx="48"
       fy="90.171875"
       id="radialGradient3619"
       xlink:href="#linearGradient3737"
       gradientUnits="userSpaceOnUse"
       gradientTransform="matrix(1.1573129,0,0,0.99590774,-7.5510206,0.19713193)" />
    <clipPath
       id="clipPath3613">
      <rect
         width="84"
         height="84"
         rx="6"
         ry="6"
         x="6"
         y="6"
         id="rect3615"
         style="fill:#ffffff;fill-opacity:1;fill-rule:nonzero;stroke:none" />
    </clipPath>
    <linearGradient
       x1="48"
       y1="90"
       x2="48"
       y2="5.9877172"
       id="linearGradient2843"
       xlink:href="#linearGradient3700"
       gradientUnits="userSpaceOnUse"
       gradientTransform="translate(0,100)" />
    <clipPath
       id="clipPath3625">
      <path
         d="M 0,0 0,96 96,96 96,0 0,0 z m 12,6 72,0 c 3.324,0 6,2.676 6,6 l 0,72 c 0,3.324 -2.676,6 -6,6 L 12,90 C 8.676,90 6,87.324 6,84 L 6,12 C 6,8.676 8.676,6 12,6 z"
         inkscape:connector-curvature="0"
         id="path3627"
         style="fill:#ffffff;fill-opacity:1;stroke:none" />
    </clipPath>
    <linearGradient
       x1="44.512066"
       y1="6"
       x2="44.512066"
       y2="90.015434"
       id="linearGradient3643"
       xlink:href="#linearGradient3637"
       gradientUnits="userSpaceOnUse" />
    <clipPath
       id="clipPath3649">
      <rect
         width="76"
         height="76"
         rx="4"
         ry="4"
         x="10"
         y="10"
         id="rect3651"
         style="fill:#ffffff;fill-opacity:1;fill-rule:nonzero;stroke:none" />
    </clipPath>
    <filter
       color-interpolation-filters="sRGB"
       id="filter3657">
      <feGaussianBlur
         id="feGaussianBlur3659"
         stdDeviation="1.14" />
    </filter>
    <linearGradient
       x1="45.447727"
       y1="92.539597"
       x2="45.447727"
       y2="7.0165396"
       id="ButtonShadow-0"
       gradientUnits="userSpaceOnUse"
       gradientTransform="matrix(1.0058652,0,0,0.994169,100,0)">
      <stop
         id="stop3750-8"
         style="stop-color:#000000;stop-opacity:1"
         offset="0" />
      <stop
         id="stop3752-5"
         style="stop-color:#000000;stop-opacity:0.58823532"
         offset="1" />
    </linearGradient>
    <linearGradient
       x1="32.251034"
       y1="6.1317081"
       x2="32.251034"
       y2="90.238609"
       id="linearGradient3780"
       xlink:href="#ButtonShadow-0"
       gradientUnits="userSpaceOnUse"
       gradientTransform="matrix(1.0238095,0,0,-1.0119048,-1.1428571,98.071429)" />
    <linearGradient
       x1="32.251034"
       y1="6.1317081"
       x2="32.251034"
       y2="90.238609"
       id="linearGradient3772"
       xlink:href="#ButtonShadow-0"
       gradientUnits="userSpaceOnUse"
       gradientTransform="matrix(1.0238095,0,0,-1.0119048,-1.1428571,98.071429)" />
    <linearGradient
       x1="32.251034"
       y1="6.1317081"
       x2="32.251034"
       y2="90.238609"
       id="linearGradient3725"
       xlink:href="#ButtonShadow-0"
       gradientUnits="userSpaceOnUse"
       gradientTransform="matrix(1.0238095,0,0,-1.0119048,-1.1428571,98.071429)" />
    <linearGradient
       x1="32.251034"
       y1="6.1317081"
       x2="32.251034"
       y2="90.238609"
       id="linearGradient3721"
       xlink:href="#ButtonShadow-0"
       gradientUnits="userSpaceOnUse"
       gradientTransform="matrix(1,0,0,-1,0,97)" />
    <linearGradient
       x1="32.251034"
       y1="6.1317081"
       x2="32.251034"
       y2="90.238609"
       id="linearGradient3199"
       xlink:href="#ButtonShadow-0"
       gradientUnits="userSpaceOnUse"
       gradientTransform="matrix(1.0238095,0,0,-1.0119048,-1.1428571,98.071429)" />
    <linearGradient
       x1="36.357143"
       y1="6"
       x2="36.357143"
       y2="63.893143"
       id="linearGradient3188-8"
       xlink:href="#linearGradient3737-3"
       gradientUnits="userSpaceOnUse" />
    <linearGradient
       id="linearGradient3737-3">
      <stop
         id="stop3739-6"
         style="stop-color:#ffffff;stop-opacity:1"
         offset="0" />
      <stop
         id="stop3741-1"
         style="stop-color:#ffffff;stop-opacity:0"
         offset="1" />
    </linearGradient>
    <radialGradient
       cx="48"
       cy="90.171875"
       r="42"
       fx="48"
       fy="90.171875"
       id="radialGradient3619-3"
       xlink:href="#linearGradient3737-3"
       gradientUnits="userSpaceOnUse"
       gradientTransform="matrix(1.1573129,0,0,0.99590774,-7.551021,0.1971319)" />
    <linearGradient
       x1="104"
       y1="8"
       x2="120"
       y2="8"
       id="linearGradient3905"
       xlink:href="#linearGradient3637"
       gradientUnits="userSpaceOnUse"
       gradientTransform="translate(-104,104)" />
    <linearGradient
       x1="104"
       y1="8"
       x2="120"
       y2="8"
       id="linearGradient3913"
       xlink:href="#linearGradient3183-0"
       gradientUnits="userSpaceOnUse"
       gradientTransform="translate(-144,104)" />
    <linearGradient
       id="linearGradient3183-0">
      <stop
         id="stop3185-9"
         style="stop-color:#c80000;stop-opacity:1"
         offset="0" />
      <stop
         id="stop3187-6"
         style="stop-color:#f3604d;stop-opacity:1"
         offset="1" />
    </linearGradient>
    <linearGradient
       x1="9.1734705"
       y1="3.149884"
       x2="9.1734705"
       y2="18.002266"
       id="linearGradient3887"
       xlink:href="#linearGradient3637"
       gradientUnits="userSpaceOnUse"
       gradientTransform="matrix(3,0,0,3,16,22)" />
    <linearGradient
       inkscape:collect="always"
       xlink:href="#linearGradient3637"
       id="linearGradient3073"
       gradientUnits="userSpaceOnUse"
       gradientTransform="matrix(3,0,0,3,16,22)"
       x1="9.1734705"
       y1="3.149884"
       x2="9.1734705"
       y2="18.002266" />
    <linearGradient
       inkscape:collect="always"
       xlink:href="#linearGradient3183-0"
       id="linearGradient3080"
       gradientUnits="userSpaceOnUse"
       gradientTransform="translate(-144,104)"
       x1="104"
       y1="8"
       x2="120"
       y2="8" />
    <linearGradient
       inkscape:collect="always"
       xlink:href="#linearGradient3637"
       id="linearGradient3085"
       gradientUnits="userSpaceOnUse"
       gradientTransform="translate(-104,104)"
       x1="104"
       y1="8"
       x2="120"
       y2="8" />
    <linearGradient
       inkscape:collect="always"
       xlink:href="#linearGradient3637"
       id="linearGradient3098"
       gradientUnits="userSpaceOnUse"
       gradientTransform="matrix(3,0,0,3,16,22)"
       x1="9.1734705"
       y1="3.149884"
       x2="9.1734705"
       y2="18.002266" />
    <linearGradient
       inkscape:collect="always"
       xlink:href="#linearGradient3637"
       id="linearGradient3103"
       gradientUnits="userSpaceOnUse"
       gradientTransform="matrix(3,0,0,3,7.0508475,16.305085)"
       x1="9.1734705"
       y1="3.149884"
       x2="9.1734705"
       y2="18.002266" />
    <linearGradient
       inkscape:collect="always"
       xlink:href="#linearGradient3637"
       id="linearGradient3123"
       gradientUnits="userSpaceOnUse"
       gradientTransform="matrix(3,0,0,3,7.0508475,16.305085)"
       x1="9.1734705"
       y1="3.149884"
       x2="9.1734705"
       y2="18.002266" />
    <linearGradient
       inkscape:collect="always"
       xlink:href="#linearGradient3637-8"
       id="linearGradient3123-8"
       gradientUnits="userSpaceOnUse"
       gradientTransform="matrix(3,0,0,3,7.0508475,16.305085)"
       x1="9.1734705"
       y1="3.149884"
       x2="9.1734705"
       y2="18.002266" />
    <linearGradient
       id="linearGradient3637-8">
      <stop
         id="stop3639-5"
         style="stop-color:#f0f0f0;stop-opacity:1"
         offset="0" />
      <stop
         id="stop3641-8"
         style="stop-color:#aaaaaa;stop-opacity:1"
         offset="1" />
    </linearGradient>
    <linearGradient
       inkscape:collect="always"
       xlink:href="#linearGradient3637-8"
       id="linearGradient3176"
       gradientUnits="userSpaceOnUse"
       gradientTransform="matrix(3,0,0,3,-102.47735,60.507178)"
       x1="9.1734705"
       y1="3.149884"
       x2="9.1734705"
       y2="18.002266" />
    <linearGradient
       inkscape:collect="always"
       xlink:href="#linearGradient3637-1"
       id="linearGradient3123-5"
       gradientUnits="userSpaceOnUse"
       gradientTransform="matrix(3,0,0,3,7.0508475,16.305085)"
       x1="9.1734705"
       y1="3.149884"
       x2="9.1734705"
       y2="18.002266" />
    <linearGradient
       id="linearGradient3637-1">
      <stop
         id="stop3639-9"
         style="stop-color:#f0f0f0;stop-opacity:1"
         offset="0" />
      <stop
         id="stop3641-4"
         style="stop-color:#aaaaaa;stop-opacity:1"
         offset="1" />
    </linearGradient>
    <linearGradient
       y2="18.002266"
       x2="9.1734705"
       y1="3.149884"
       x1="9.1734705"
       gradientTransform="matrix(3,0,0,3,-66.872881,61.10911)"
       gradientUnits="userSpaceOnUse"
       id="linearGradient3196"
       xlink:href="#linearGradient3637-1"
       inkscape:collect="always" />
    <linearGradient
       inkscape:collect="always"
       xlink:href="#linearGradient3637-1"
       id="linearGradient3215"
       x1="-94.17244"
       y1="71.403648"
       x2="-94.17244"
       y2="88.380409"
       gradientUnits="userSpaceOnUse" />
    <linearGradient
       inkscape:collect="always"
       xlink:href="#linearGradient3637-7"
       id="linearGradient3123-4"
       gradientUnits="userSpaceOnUse"
       gradientTransform="matrix(3,0,0,3,7.0508475,16.305085)"
       x1="9.1734705"
       y1="3.149884"
       x2="9.1734705"
       y2="18.002266" />
    <linearGradient
       id="linearGradient3637-7">
      <stop
         id="stop3639-1"
         style="stop-color:#f0f0f0;stop-opacity:1"
         offset="0" />
      <stop
         id="stop3641-84"
         style="stop-color:#aaaaaa;stop-opacity:1"
         offset="1" />
    </linearGradient>
    <linearGradient
       inkscape:collect="always"
       xlink:href="#linearGradient3637-7"
       id="linearGradient3280"
       gradientUnits="userSpaceOnUse"
       gradientTransform="matrix(3,0,0,3,123.69214,39.761416)"
       x1="9.1734705"
       y1="3.149884"
       x2="9.1734705"
       y2="18.002266" />
    <linearGradient
       inkscape:collect="always"
       xlink:href="#linearGradient3637-1"
       id="linearGradient3295"
       gradientUnits="userSpaceOnUse"
       x1="-94.17244"
       y1="71.403648"
       x2="-94.17244"
       y2="88.380409" />
    <linearGradient
       inkscape:collect="always"
       xlink:href="#linearGradient3637-1"
       id="linearGradient3298"
       gradientUnits="userSpaceOnUse"
       x1="-94.17244"
       y1="71.403648"
       x2="-94.17244"
       y2="88.380409"
       gradientTransform="matrix(2.2892975,0,0,2.2892975,338.26668,-120.27805)" />
    <linearGradient
       inkscape:collect="always"
       xlink:href="#linearGradient3637-1"
       id="linearGradient3308"
       gradientUnits="userSpaceOnUse"
       gradientTransform="matrix(2.2892975,0,0,2.2892975,338.26668,-120.27805)"
       x1="-94.17244"
       y1="71.403648"
       x2="-94.17244"
       y2="88.380409" />
    <linearGradient
       inkscape:collect="always"
       xlink:href="#linearGradient3637-1-9"
       id="linearGradient3308-2"
       gradientUnits="userSpaceOnUse"
       gradientTransform="matrix(2.2892975,0,0,2.2892975,338.26668,-120.27805)"
       x1="-94.17244"
       y1="71.403648"
       x2="-94.17244"
       y2="88.380409" />
    <linearGradient
       id="linearGradient3637-1-9">
      <stop
         id="stop3639-9-6"
         style="stop-color:#f0f0f0;stop-opacity:1"
         offset="0" />
      <stop
         id="stop3641-4-6"
         style="stop-color:#aaaaaa;stop-opacity:1"
         offset="1" />
    </linearGradient>
    <linearGradient
       y2="88.380409"
       x2="-94.17244"
       y1="71.403648"
       x1="-94.17244"
       gradientTransform="matrix(2.2892975,0,0,2.2892975,338.26668,-120.27805)"
       gradientUnits="userSpaceOnUse"
       id="linearGradient3328"
       xlink:href="#linearGradient3637-1-9"
       inkscape:collect="always" />
    <linearGradient
       inkscape:collect="always"
       xlink:href="#linearGradient3637-1-9"
       id="linearGradient3354"
       gradientUnits="userSpaceOnUse"
       gradientTransform="matrix(2.2892975,0,0,2.2892975,352.37093,-146.84554)"
       x1="-94.17244"
       y1="71.403648"
       x2="-94.17244"
       y2="88.380409" />
    <linearGradient
       inkscape:collect="always"
       xlink:href="#linearGradient3637-1"
       id="linearGradient3399"
       gradientUnits="userSpaceOnUse"
       gradientTransform="matrix(2.2892975,0,0,2.2892975,272.57177,-120.27805)"
       x1="-94.17244"
       y1="71.403648"
       x2="-94.17244"
       y2="88.380409" />
  </defs>
  <metadata
     id="metadata2413">
    <rdf:RDF>
      <cc:Work
         rdf:about="">
        <dc:format>image/svg+xml</dc:format>
        <dc:type
           rdf:resource="http://purl.org/dc/dcmitype/StillImage" />
        <dc:title></dc:title>
      </cc:Work>
    </rdf:RDF>
  </metadata>
  <g
     id="layer2"
     style="display:none">
    <rect
       width="86"
       height="85"
       rx="6"
       ry="6"
       x="5"
       y="7"
       clip-path="url(#clipPath3625)"
       id="rect3745"
       style="opacity:0.9;fill:url(#ButtonShadow);fill-opacity:1;fill-rule:nonzero;stroke:none;filter:url(#filter3174)" />
  </g>
  <g
     id="layer3">
    <path
       d="M 12,3.96875 C 6.4889098,3.96875 1.96875,8.4889098 1.96875,14 l 0,71 c 0,5.51109 4.5201597,10.03125 10.03125,10.03125 l 72,0 c 5.51109,0 10.03125,-4.52016 10.03125,-10.03125 l 0,-71 C 94.03125,8.4889097 89.51109,3.96875 84,3.96875 l -72,0 z M 12,6 84,6 c 3.324,0 6,2.676 6,6 l 0,72 c 0,3.324 -2.676,6 -6,6 L 12,90 C 8.676,90 6,87.324 6,84 L 6,12 C 6,8.676 8.676,6 12,6 z"
       inkscape:connector-curvature="0"
       id="path3786"
       style="opacity:0.07999998;fill:url(#linearGradient3199);fill-opacity:1;fill-rule:nonzero;stroke:none;display:inline" />
    <path
       d="M 12,4.96875 C 7.0283671,4.96875 2.96875,9.0283671 2.96875,14 l 0,71 c 0,4.971633 4.059617,9.03125 9.03125,9.03125 l 72,0 c 4.971633,0 9.03125,-4.059617 9.03125,-9.03125 l 0,-71 C 93.03125,9.028367 88.971633,4.96875 84,4.96875 l -72,0 z M 12,6 84,6 c 3.324,0 6,2.676 6,6 l 0,72 c 0,3.324 -2.676,6 -6,6 L 12,90 C 8.676,90 6,87.324 6,84 L 6,12 C 6,8.676 8.676,6 12,6 z"
       inkscape:connector-curvature="0"
       id="path3778"
       style="opacity:0.1;fill:url(#linearGradient3780);fill-opacity:1;fill-rule:nonzero;stroke:none;display:inline" />
    <path
       d="M 11.1875,6.03125 C 7.159982,6.4419011 4,9.8664375 4,14 l 0,71 c 0,4.409133 3.590867,8 8,8 l 72,0 c 4.409133,0 8,-3.590867 8,-8 L 92,14 C 92,9.8029382 88.741028,6.3539584 84.625,6.03125 87.657886,6.337417 90,8.88375 90,12 l 0,72 c 0,3.324 -2.676,6 -6,6 L 12,90 C 8.676,90 6,87.324 6,84 L 6,12 c 0,-3.11625 2.342114,-5.662583 5.375,-5.96875 -0.06227,0.00488 -0.12563,-0.00631 -0.1875,0 z"
       inkscape:connector-curvature="0"
       id="path3770"
       style="opacity:0.2;fill:url(#linearGradient3772);fill-opacity:1;fill-rule:nonzero;stroke:none;display:inline" />
    <path
       d="M 6.4375,9.75 C 5.5380109,10.927446 5,12.397277 5,14 l 0,71 c 0,3.878 3.122,7 7,7 l 72,0 c 3.878,0 7,-3.122 7,-7 L 91,14 C 91,12.397277 90.461989,10.927446 89.5625,9.75 89.841816,10.444095 90,11.203625 90,12 l 0,72 c 0,3.324 -2.676,6 -6,6 L 12,90 C 8.676,90 6,87.324 6,84 L 6,12 C 6,11.203625 6.1581836,10.444095 6.4375,9.75 z"
       inkscape:connector-curvature="0"
       id="rect3723"
       style="opacity:0.3;fill:url(#linearGradient3725);fill-opacity:1;fill-rule:nonzero;stroke:none;display:inline" />
    <path
       d="m 6,84 0,1 c 0,3.324 2.676,6 6,6 l 72,0 c 3.324,0 6,-2.676 6,-6 l 0,-1 c 0,3.324 -2.676,6 -6,6 L 12,90 C 8.676,90 6,87.324 6,84 z"
       inkscape:connector-curvature="0"
       id="rect3716"
       style="opacity:0.45;fill:url(#linearGradient3721);fill-opacity:1;fill-rule:nonzero;stroke:none;display:inline" />
  </g>
  <g
     id="layer1"
     style="display:none">
    <rect
       width="84"
       height="84"
       rx="6"
       ry="6"
       x="6"
       y="6"
       id="rect2419"
       style="opacity:0.8;fill:#000000;fill-opacity:1;fill-rule:nonzero;stroke:none" />
    <path
       d="m 14,10 c -2.216,0 -4,1.784 -4,4 l 0,68 c 0,2.216 1.784,4 4,4 l 68,0 c 2.216,0 4,-1.784 4,-4 l 0,-68 c 0,-2.216 -1.784,-4 -4,-4 l -68,0 z m 0,3.0625 68,0 c 0.578769,0 0.9375,0.358731 0.9375,0.9375 l 0,68 c 0,0.578769 -0.358731,0.9375 -0.9375,0.9375 l -68,0 c -0.578769,0 -0.9375,-0.358731 -0.9375,-0.9375 l 0,-68 c 0,-0.578769 0.358731,-0.9375 0.9375,-0.9375 z"
       inkscape:connector-curvature="0"
       id="rect3726"
       style="opacity:0.07999998;fill:#000000;fill-opacity:1;fill-rule:nonzero;stroke:none" />
    <path
       d="M 12,6 C 8.676,6 6,8.676 6,12 l 0,72 c 0,3.324 2.676,6 6,6 l 72,0 c 3.324,0 6,-2.676 6,-6 L 90,12 C 90,8.676 87.324,6 84,6 L 12,6 z m 2,4 68,0 c 2.216,0 4,1.784 4,4 l 0,68 c 0,2.216 -1.784,4 -4,4 l -68,0 c -2.216,0 -4,-1.784 -4,-4 l 0,-68 c 0,-2.216 1.784,-4 4,-4 z"
       inkscape:connector-curvature="0"
       id="rect3629"
       style="fill:url(#linearGradient3643);fill-opacity:1;fill-rule:nonzero;stroke:none" />
    <path
       d="M 12,6 C 8.676,6 6,8.676 6,12 l 0,2 0,68 0,2 c 0,0.334721 0.04135,0.6507 0.09375,0.96875 0.0487,0.295596 0.09704,0.596915 0.1875,0.875 0.00988,0.03038 0.020892,0.0636 0.03125,0.09375 0.098865,0.287771 0.2348802,0.547452 0.375,0.8125 0.1445918,0.273507 0.3156161,0.535615 0.5,0.78125 0.1843839,0.245635 0.3737765,0.473472 0.59375,0.6875 0.439947,0.428056 0.94291,0.814526 1.5,1.09375 0.278545,0.139612 0.5734731,0.246947 0.875,0.34375 -0.2562018,-0.100222 -0.4867109,-0.236272 -0.71875,-0.375 -0.00741,-0.0044 -0.023866,0.0045 -0.03125,0 -0.031933,-0.0193 -0.062293,-0.04251 -0.09375,-0.0625 -0.120395,-0.0767 -0.2310226,-0.163513 -0.34375,-0.25 -0.1061728,-0.0808 -0.2132809,-0.161112 -0.3125,-0.25 C 8.4783201,88.557317 8.3087904,88.373362 8.15625,88.1875 8.0486711,88.057245 7.9378561,87.922215 7.84375,87.78125 7.818661,87.74287 7.805304,87.69538 7.78125,87.65625 7.716487,87.553218 7.6510225,87.451733 7.59375,87.34375 7.4927417,87.149044 7.3880752,86.928049 7.3125,86.71875 7.30454,86.69694 7.288911,86.6782 7.28125,86.65625 7.2494249,86.5643 7.2454455,86.469419 7.21875,86.375 7.1884177,86.268382 7.1483606,86.171969 7.125,86.0625 7.0521214,85.720988 7,85.364295 7,85 L 7,83 7,15 7,13 C 7,10.218152 9.2181517,8 12,8 l 2,0 68,0 2,0 c 2.781848,0 5,2.218152 5,5 l 0,2 0,68 0,2 c 0,0.364295 -0.05212,0.720988 -0.125,1.0625 -0.04415,0.206893 -0.08838,0.397658 -0.15625,0.59375 -0.0077,0.02195 -0.0233,0.04069 -0.03125,0.0625 -0.06274,0.173739 -0.138383,0.367449 -0.21875,0.53125 -0.04158,0.0828 -0.07904,0.169954 -0.125,0.25 -0.0546,0.09721 -0.126774,0.18835 -0.1875,0.28125 -0.09411,0.140965 -0.204921,0.275995 -0.3125,0.40625 -0.143174,0.17445 -0.303141,0.346998 -0.46875,0.5 -0.01117,0.0102 -0.01998,0.02115 -0.03125,0.03125 -0.138386,0.125556 -0.285091,0.234436 -0.4375,0.34375 -0.102571,0.07315 -0.204318,0.153364 -0.3125,0.21875 -0.0074,0.0045 -0.02384,-0.0044 -0.03125,0 -0.232039,0.138728 -0.462548,0.274778 -0.71875,0.375 0.301527,-0.0968 0.596455,-0.204138 0.875,-0.34375 0.55709,-0.279224 1.060053,-0.665694 1.5,-1.09375 0.219973,-0.214028 0.409366,-0.441865 0.59375,-0.6875 0.184384,-0.245635 0.355408,-0.507743 0.5,-0.78125 0.14012,-0.265048 0.276135,-0.524729 0.375,-0.8125 0.01041,-0.03078 0.02133,-0.06274 0.03125,-0.09375 0.09046,-0.278085 0.1388,-0.579404 0.1875,-0.875 C 89.95865,84.6507 90,84.334721 90,84 l 0,-2 0,-68 0,-2 C 90,8.676 87.324,6 84,6 L 12,6 z"
       inkscape:connector-curvature="0"
       id="rect3728"
       style="fill:url(#linearGradient3188);fill-opacity:1;fill-rule:nonzero;stroke:none" />
    <path
       d="M 12,90 C 8.676,90 6,87.324 6,84 L 6,82 6,14 6,12 c 0,-0.334721 0.04135,-0.6507 0.09375,-0.96875 0.0487,-0.295596 0.09704,-0.596915 0.1875,-0.875 C 6.29113,10.12587 6.302142,10.09265 6.3125,10.0625 6.411365,9.774729 6.5473802,9.515048 6.6875,9.25 6.8320918,8.976493 7.0031161,8.714385 7.1875,8.46875 7.3718839,8.223115 7.5612765,7.995278 7.78125,7.78125 8.221197,7.353194 8.72416,6.966724 9.28125,6.6875 9.559795,6.547888 9.8547231,6.440553 10.15625,6.34375 9.9000482,6.443972 9.6695391,6.580022 9.4375,6.71875 c -0.00741,0.0044 -0.023866,-0.0045 -0.03125,0 -0.031933,0.0193 -0.062293,0.04251 -0.09375,0.0625 -0.120395,0.0767 -0.2310226,0.163513 -0.34375,0.25 -0.1061728,0.0808 -0.2132809,0.161112 -0.3125,0.25 C 8.4783201,7.442683 8.3087904,7.626638 8.15625,7.8125 8.0486711,7.942755 7.9378561,8.077785 7.84375,8.21875 7.818661,8.25713 7.805304,8.30462 7.78125,8.34375 7.716487,8.446782 7.6510225,8.548267 7.59375,8.65625 7.4927417,8.850956 7.3880752,9.071951 7.3125,9.28125 7.30454,9.30306 7.288911,9.3218 7.28125,9.34375 7.2494249,9.4357 7.2454455,9.530581 7.21875,9.625 7.1884177,9.731618 7.1483606,9.828031 7.125,9.9375 7.0521214,10.279012 7,10.635705 7,11 l 0,2 0,68 0,2 c 0,2.781848 2.2181517,5 5,5 l 2,0 68,0 2,0 c 2.781848,0 5,-2.218152 5,-5 l 0,-2 0,-68 0,-2 C 89,10.635705 88.94788,10.279012 88.875,9.9375 88.83085,9.730607 88.78662,9.539842 88.71875,9.34375 88.71105,9.3218 88.69545,9.30306 88.6875,9.28125 88.62476,9.107511 88.549117,8.913801 88.46875,8.75 88.42717,8.6672 88.38971,8.580046 88.34375,8.5 88.28915,8.40279 88.216976,8.31165 88.15625,8.21875 88.06214,8.077785 87.951329,7.942755 87.84375,7.8125 87.700576,7.63805 87.540609,7.465502 87.375,7.3125 87.36383,7.3023 87.35502,7.29135 87.34375,7.28125 87.205364,7.155694 87.058659,7.046814 86.90625,6.9375 86.803679,6.86435 86.701932,6.784136 86.59375,6.71875 c -0.0074,-0.0045 -0.02384,0.0044 -0.03125,0 -0.232039,-0.138728 -0.462548,-0.274778 -0.71875,-0.375 0.301527,0.0968 0.596455,0.204138 0.875,0.34375 0.55709,0.279224 1.060053,0.665694 1.5,1.09375 0.219973,0.214028 0.409366,0.441865 0.59375,0.6875 0.184384,0.245635 0.355408,0.507743 0.5,0.78125 0.14012,0.265048 0.276135,0.524729 0.375,0.8125 0.01041,0.03078 0.02133,0.06274 0.03125,0.09375 0.09046,0.278085 0.1388,0.579404 0.1875,0.875 C 89.95865,11.3493 90,11.665279 90,12 l 0,2 0,68 0,2 c 0,3.324 -2.676,6 -6,6 l -72,0 z"
       inkscape:connector-curvature="0"
       id="path3615"
       style="opacity:0.6;fill:url(#radialGradient3619);fill-opacity:1;fill-rule:nonzero;stroke:none" />
    <rect
       width="84"
       height="84"
       rx="6"
       ry="6"
       x="6"
       y="106"
       id="rect2841"
       style="fill:url(#linearGradient2843);fill-opacity:1;fill-rule:nonzero;stroke:none" />
    <rect
       width="76"
       height="76"
       rx="4"
       ry="4"
       x="10"
       y="110"
       id="rect3634"
       style="fill:#ff0000;fill-opacity:1;fill-rule:nonzero;stroke:none" />
    <path
       d="m 14,9 c -2.752703,0 -5,2.247297 -5,5 l 0,68 c 0,2.752703 2.247297,5 5,5 l 68,0 c 2.752703,0 5,-2.247297 5,-5 L 87,14 C 87,11.247297 84.752703,9 82,9 L 14,9 z m 0,2 68,0 c 1.679297,0 3,1.320703 3,3 l 0,68 c 0,1.679297 -1.320703,3 -3,3 l -68,0 c -1.679297,0 -3,-1.320703 -3,-3 l 0,-68 c 0,-1.679297 1.320703,-3 3,-3 z"
       inkscape:connector-curvature="0"
       transform="translate(-110,0)"
       clip-path="url(#clipPath3649)"
       id="rect3647"
       style="font-size:medium;font-style:normal;font-variant:normal;font-weight:normal;font-stretch:normal;text-indent:0;text-align:start;text-decoration:none;line-height:normal;letter-spacing:normal;word-spacing:normal;text-transform:none;direction:ltr;block-progression:tb;writing-mode:lr-tb;text-anchor:start;color:#000000;fill:#000000;fill-opacity:1;stroke:none;stroke-width:2;marker:none;visibility:visible;display:inline;overflow:visible;filter:url(#filter3657);enable-background:accumulate;font-family:Abandoned Bitplane;-inkscape-font-specification:Abandoned Bitplane" />
    <path
       d="m 14.089286,10 c -2.216,0 -4,1.784 -4,4 l 0,68 c 0,2.216 1.784,4 4,4 l 68,0 c 2.216,0 4,-1.784 4,-4 l 0,-68 c 0,-2.216 -1.784,-4 -4,-4 l -68,0 z m 0,2 68,0 c 1.140301,0 2,0.859699 2,2 l 0,68 c 0,1.140301 -0.859699,2 -2,2 l -68,0 c -1.140301,0 -2,-0.859699 -2,-2 l 0,-68 c 0,-1.140301 0.859699,-2 2,-2 z"
       inkscape:connector-curvature="0"
       id="path3709"
       style="opacity:0.16000001;fill:#000000;fill-opacity:1;fill-rule:nonzero;stroke:none" />
    <path
       d="m 14,10 c -2.216,0 -4,1.784 -4,4 l 0,68 c 0,2.216 1.784,4 4,4 l 68,0 c 2.216,0 4,-1.784 4,-4 l 0,-68 c 0,-2.216 -1.784,-4 -4,-4 l -68,0 z m 0,1 68,0 c 1.673848,0 3,1.326152 3,3 l 0,68 c 0,1.673848 -1.326152,3 -3,3 l -68,0 c -1.673848,0 -3,-1.326152 -3,-3 l 0,-68 c 0,-1.673848 1.326152,-3 3,-3 z"
       inkscape:connector-curvature="0"
       id="path3707"
       style="opacity:0.36000001;fill:#000000;fill-opacity:1;fill-rule:nonzero;stroke:none" />
  </g>
  <g
     id="layer4"
     style="display:inline">
    <rect
       width="84"
       height="84"
       rx="6"
       ry="6"
       x="6"
       y="6"
       id="rect2419-9"
       style="opacity:0.6;fill:#000000;fill-opacity:1;fill-rule:nonzero;stroke:none;display:inline" />
    <path
       d="M 12,6 C 8.676,6 6,8.676 6,12 l 0,2 0,68 0,2 c 0,0.334721 0.04135,0.6507 0.09375,0.96875 0.0487,0.295596 0.09704,0.596915 0.1875,0.875 0.00988,0.03038 0.020892,0.0636 0.03125,0.09375 0.098865,0.287771 0.2348802,0.547452 0.375,0.8125 0.1445918,0.273507 0.3156161,0.535615 0.5,0.78125 0.1843839,0.245635 0.3737765,0.473472 0.59375,0.6875 0.439947,0.428056 0.94291,0.814526 1.5,1.09375 0.278545,0.139612 0.5734731,0.246947 0.875,0.34375 -0.2562018,-0.100222 -0.4867109,-0.236272 -0.71875,-0.375 -0.00741,-0.0044 -0.023866,0.0045 -0.03125,0 -0.031933,-0.0193 -0.062293,-0.04251 -0.09375,-0.0625 -0.120395,-0.0767 -0.2310226,-0.163513 -0.34375,-0.25 -0.1061728,-0.0808 -0.2132809,-0.161112 -0.3125,-0.25 C 8.4783201,88.557317 8.3087904,88.373362 8.15625,88.1875 8.0486711,88.057245 7.9378561,87.922215 7.84375,87.78125 7.818661,87.74287 7.805304,87.69538 7.78125,87.65625 7.716487,87.553218 7.6510225,87.451733 7.59375,87.34375 7.4927417,87.149044 7.3880752,86.928049 7.3125,86.71875 7.30454,86.69694 7.288911,86.6782 7.28125,86.65625 7.2494249,86.5643 7.2454455,86.469419 7.21875,86.375 7.1884177,86.268382 7.1483606,86.171969 7.125,86.0625 7.0521214,85.720988 7,85.364295 7,85 L 7,83 7,15 7,13 C 7,10.218152 9.2181517,8 12,8 l 2,0 68,0 2,0 c 2.781848,0 5,2.218152 5,5 l 0,2 0,68 0,2 c 0,0.364295 -0.05212,0.720988 -0.125,1.0625 -0.04415,0.206893 -0.08838,0.397658 -0.15625,0.59375 -0.0077,0.02195 -0.0233,0.04069 -0.03125,0.0625 -0.06274,0.173739 -0.138383,0.367449 -0.21875,0.53125 -0.04158,0.0828 -0.07904,0.169954 -0.125,0.25 -0.0546,0.09721 -0.126774,0.18835 -0.1875,0.28125 -0.09411,0.140965 -0.204921,0.275995 -0.3125,0.40625 -0.143174,0.17445 -0.303141,0.346998 -0.46875,0.5 -0.01117,0.0102 -0.01998,0.02115 -0.03125,0.03125 -0.138386,0.125556 -0.285091,0.234436 -0.4375,0.34375 -0.102571,0.07315 -0.204318,0.153364 -0.3125,0.21875 -0.0074,0.0045 -0.02384,-0.0044 -0.03125,0 -0.232039,0.138728 -0.462548,0.274778 -0.71875,0.375 0.301527,-0.0968 0.596455,-0.204138 0.875,-0.34375 0.55709,-0.279224 1.060053,-0.665694 1.5,-1.09375 0.219973,-0.214028 0.409366,-0.441865 0.59375,-0.6875 0.184384,-0.245635 0.355408,-0.507743 0.5,-0.78125 0.14012,-0.265048 0.276135,-0.524729 0.375,-0.8125 0.01041,-0.03078 0.02133,-0.06274 0.03125,-0.09375 0.09046,-0.278085 0.1388,-0.579404 0.1875,-0.875 C 89.95865,84.6507 90,84.334721 90,84 l 0,-2 0,-68 0,-2 C 90,8.676 87.324,6 84,6 L 12,6 z"
       inkscape:connector-curvature="0"
       id="rect3728-4"
       style="opacity:0.01000001;fill:url(#linearGradient3188-8);fill-opacity:1;fill-rule:nonzero;stroke:none;display:inline" />
    <path
       d="M 12,90 C 8.676,90 6,87.324 6,84 L 6,82 6,14 6,12 c 0,-0.334721 0.04135,-0.6507 0.09375,-0.96875 0.0487,-0.295596 0.09704,-0.596915 0.1875,-0.875 C 6.29113,10.12587 6.302142,10.09265 6.3125,10.0625 6.411365,9.774729 6.5473802,9.515048 6.6875,9.25 6.8320918,8.976493 7.0031161,8.714385 7.1875,8.46875 7.3718839,8.223115 7.5612765,7.995278 7.78125,7.78125 8.221197,7.353194 8.72416,6.966724 9.28125,6.6875 9.559795,6.547888 9.8547231,6.440553 10.15625,6.34375 9.9000482,6.443972 9.6695391,6.580022 9.4375,6.71875 c -0.00741,0.0044 -0.023866,-0.0045 -0.03125,0 -0.031933,0.0193 -0.062293,0.04251 -0.09375,0.0625 -0.120395,0.0767 -0.2310226,0.163513 -0.34375,0.25 -0.1061728,0.0808 -0.2132809,0.161112 -0.3125,0.25 C 8.4783201,7.442683 8.3087904,7.626638 8.15625,7.8125 8.0486711,7.942755 7.9378561,8.077785 7.84375,8.21875 7.818661,8.25713 7.805304,8.30462 7.78125,8.34375 7.716487,8.446782 7.6510225,8.548267 7.59375,8.65625 7.4927417,8.850956 7.3880752,9.071951 7.3125,9.28125 7.30454,9.30306 7.288911,9.3218 7.28125,9.34375 7.2494249,9.4357 7.2454455,9.530581 7.21875,9.625 7.1884177,9.731618 7.1483606,9.828031 7.125,9.9375 7.0521214,10.279012 7,10.635705 7,11 l 0,2 0,68 0,2 c 0,2.781848 2.2181517,5 5,5 l 2,0 68,0 2,0 c 2.781848,0 5,-2.218152 5,-5 l 0,-2 0,-68 0,-2 C 89,10.635705 88.94788,10.279012 88.875,9.9375 88.83085,9.730607 88.78662,9.539842 88.71875,9.34375 88.71105,9.3218 88.69545,9.30306 88.6875,9.28125 88.62476,9.107511 88.549117,8.913801 88.46875,8.75 88.42717,8.6672 88.38971,8.580046 88.34375,8.5 88.28915,8.40279 88.216976,8.31165 88.15625,8.21875 88.06214,8.077785 87.951329,7.942755 87.84375,7.8125 87.700576,7.63805 87.540609,7.465502 87.375,7.3125 87.36383,7.3023 87.35502,7.29135 87.34375,7.28125 87.205364,7.155694 87.058659,7.046814 86.90625,6.9375 86.803679,6.86435 86.701932,6.784136 86.59375,6.71875 c -0.0074,-0.0045 -0.02384,0.0044 -0.03125,0 -0.232039,-0.138728 -0.462548,-0.274778 -0.71875,-0.375 0.301527,0.0968 0.596455,0.204138 0.875,0.34375 0.55709,0.279224 1.060053,0.665694 1.5,1.09375 0.219973,0.214028 0.409366,0.441865 0.59375,0.6875 0.184384,0.245635 0.355408,0.507743 0.5,0.78125 0.14012,0.265048 0.276135,0.524729 0.375,0.8125 0.01041,0.03078 0.02133,0.06274 0.03125,0.09375 0.09046,0.278085 0.1388,0.579404 0.1875,0.875 C 89.95865,11.3493 90,11.665279 90,12 l 0,2 0,68 0,2 c 0,3.324 -2.676,6 -6,6 l -72,0 z"
       inkscape:connector-curvature="0"
       id="path3615-6"
       style="opacity:0.15;fill:url(#radialGradient3619-3);fill-opacity:1;fill-rule:nonzero;stroke:none;display:inline" />
  </g>
  <g
     id="layer5"
     style="display:none">
    <rect
       width="66"
       height="66"
       rx="12"
       ry="12"
       x="15"
       y="15"
       clip-path="url(#clipPath3613)"
       id="rect3171"
       style="opacity:0.1;fill:url(#linearGradient3613);fill-opacity:1;fill-rule:nonzero;stroke:#ffffff;stroke-width:0.5;stroke-linecap:round;stroke-linejoin:miter;stroke-miterlimit:4;stroke-opacity:1;stroke-dasharray:none;stroke-dashoffset:0;filter:url(#filter3794)" />
  </g>
  <g
     id="g3115"
     transform="translate(0.40677966,-8.9491524)">
    <path
       sodipodi:nodetypes="cccccccccccccccccccccccccccccccccccc"
       d="m 44.925847,24.242585 c -1.601973,0.03059 -2.082081,1.790103 -1.875,3.108034 0.02082,8.713127 -0.04165,17.433149 0.03125,26.141966 0.102119,1.612545 1.897385,1.95417 3.203824,1.78125 2.010758,-0.08908 4.064765,0.187641 6.046176,-0.15625 1.437241,-1.58684 3.422185,1.117609 5.41281,0.608455 4.074947,0.352262 7.987403,-2.166793 9.63344,-5.836146 2.420056,-4.882011 2.089992,-11.337469 -1.39,-15.616059 -2.548136,-3.010647 -6.781382,-4.606995 -10.628539,-3.331879 -1.591508,1.021294 -2.092317,0.832548 -1.808961,-0.844776 -0.146537,-1.648933 0.339764,-3.435988 -0.34375,-4.979595 -1.101565,-1.426177 -3.093554,-0.693613 -4.63252,-0.875 -1.216243,0 -2.432487,0 -3.64873,0 z m -22.6875,0.09375 c -1.717652,0.02646 -1.992766,1.948253 -2.504518,3.207731 -3.160123,8.508122 -6.443357,16.980865 -9.526732,25.511019 -0.2403615,1.422136 1.235523,2.486473 2.570662,2.21875 2.323681,-0.0809 4.70307,0.163482 6.991838,-0.125 1.583546,-0.570318 1.544838,-2.588817 2.219995,-3.897783 0.02358,-1.347103 1.320176,-0.87939 2.241991,-0.945967 2.096005,0 4.192009,0 6.288014,0 0.653737,1.474611 0.798824,3.244451 1.84375,4.5 1.329036,0.883359 3.062826,0.299759 4.574101,0.46875 1.560758,-0.116288 3.207532,0.250743 4.707149,-0.21875 1.291806,-0.637428 1.198831,-2.261899 0.572434,-3.357895 -3.335947,-8.823345 -6.594314,-17.688853 -9.978684,-26.485855 -1.088581,-1.433446 -3.096574,-0.690514 -4.63252,-0.875 -1.78916,0 -3.57832,0 -5.36748,0 z m 4.21875,14.25 c 0.322917,0.9375 0.645833,1.875 0.96875,2.8125 -0.824017,-0.09871 -2.55014,0.445981 -1.6282,-0.897967 0.219817,-0.638178 0.439633,-1.276355 0.65945,-1.914533 z m 29.4375,0.65625 c 3.214535,0.347706 2.795691,5.519439 1.341142,7.558335 -3.575124,1.792739 -4.223793,-3.338399 -3.468391,-5.689986 0.200157,-1.03213 0.904547,-2.148609 2.127249,-1.868349 z"
       inkscape:connector-curvature="0"
       id="path3939"
       style="font-size:8.9971447px;font-style:normal;font-variant:normal;font-weight:bold;font-stretch:normal;text-align:start;line-height:125%;writing-mode:lr-tb;text-anchor:start;opacity:0.1;fill:#000000;fill-opacity:1;stroke:none;display:inline;font-family:Sans;-inkscape-font-specification:Abandoned Bitplane Bold" />
    <path
       sodipodi:nodetypes="cccccccccsccccccccccccccccccccccccccccccccccccscscc"
       d="m 45.019597,25.336335 c -0.459774,-0.006 -0.881048,0.415226 -0.875,0.875 l 0,27.09375 c -0.006,0.459774 0.415226,0.881048 0.875,0.875 l 6.5625,0 c 0.459774,0.006 0.881048,-0.415226 0.875,-0.875 l 0,-0.78125 c 0.538921,0.46689 1.118022,0.876648 1.71875,1.1875 0.01042,1.88e-4 0.02083,1.88e-4 0.03125,0 1.219803,0.617749 2.584589,0.9375 4.125,0.9375 2.730754,0 5.083117,-1.067562 6.84375,-3.21875 1.88e-4,-0.01042 1.88e-4,-0.02083 0,-0.03125 1.758312,-2.161515 2.656225,-4.945409 2.65625,-8.21875 -2.5e-5,-3.262656 -0.906279,-6.069177 -2.65625,-8.21875 -0.0054,-0.0067 -0.02581,0.0067 -0.03125,0 -1.751425,-2.142269 -4.071593,-3.343727 -6.8125,-3.34375 -1.524659,2.2e-5 -2.903907,0.311429 -4.125,0.9375 -0.0087,0.0045 -0.02257,-0.0045 -0.03125,0 l 0,0.03125 c -0.592205,0.304058 -1.190144,0.696732 -1.71875,1.15625 l 0,-7.53125 c 0.006,-0.459774 -0.415226,-0.881048 -0.875,-0.875 z m -22.75,0.09375 c -0.350682,-0.0012 -0.690203,0.233831 -0.8125,0.5625 l -10.125,27 c -0.212545,0.525477 0.245718,1.195247 0.8125,1.1875 l 7.03125,0 c 0.358065,-0.0033 0.700593,-0.253606 0.8125,-0.59375 l 1.5625,-4.375 9.75,0 1.5,4.375 c 0.111907,0.340144 0.454435,0.590453 0.8125,0.59375 l 7.125,0 c 0.566782,0.0077 1.025045,-0.662023 0.8125,-1.1875 l -10.125,-27 c -0.122297,-0.328669 -0.461818,-0.563722 -0.8125,-0.5625 z m 4.21875,9.8125 2.4375,7.25 -4.96875,0 z m 29.40625,2.90625 c 1.198484,1.3e-5 1.924751,0.327023 2.5,1.125 0.59109,0.806574 0.937483,2.091762 0.9375,3.90625 -1.7e-5,1.814507 -0.346417,3.0997 -0.9375,3.90625 -0.57525,0.797995 -1.301521,1.125003 -2.5,1.125 -1.19851,3e-6 -1.892333,-0.340447 -2.5,-1.15625 -0.586831,-0.822909 -0.937508,-2.088161 -0.9375,-3.875 -8e-6,-1.80171 0.348322,-3.102317 0.9375,-3.90625 0.606443,-0.823839 1.296524,-1.124987 2.5,-1.125 z"
       id="path3935"
       style="font-size:8.9971447px;font-style:normal;font-variant:normal;font-weight:bold;font-stretch:normal;text-align:start;line-height:125%;writing-mode:lr-tb;text-anchor:start;opacity:0.15;fill:#000000;fill-opacity:1;stroke:none;display:inline;font-family:Sans;-inkscape-font-specification:Abandoned Bitplane Bold"
       inkscape:connector-curvature="0" />
    <path
       sodipodi:nodetypes="cccccscccccccccccccccccccccccccscscc"
       d="m 45.019597,26.211335 0,27.09375 6.5625,0 0,-3 c 0.900258,1.181385 1.905066,2.058417 3,2.625 1.09491,0.554499 2.326587,0.84375 3.75,0.84375 2.518305,0 4.569423,-0.929241 6.1875,-2.90625 1.618029,-1.989063 2.437476,-4.565265 2.4375,-7.6875 -2.4e-5,-3.122217 -0.819471,-5.710473 -2.4375,-7.6875 -1.618077,-1.989045 -3.669195,-2.999979 -6.1875,-3 -1.423413,2.1e-5 -2.65509,0.2772 -3.75,0.84375 -1.094934,0.554547 -2.099742,1.443633 -3,2.625 l 0,-9.75 z m -22.75,0.09375 -10.125,27 7.03125,0 1.78125,-4.96875 10.96875,0 1.6875,4.96875 7.125,0 -10.125,-27 z m 4.21875,6.28125 3.65625,10.78125 -7.40625,0 z m 29.40625,4.6875 c 1.399053,1.5e-5 2.457534,0.487401 3.1875,1.5 0.742095,1.012629 1.124982,2.477472 1.125,4.40625 -1.8e-5,1.928796 -0.382905,3.393639 -1.125,4.40625 -0.729966,1.01262 -1.788447,1.500003 -3.1875,1.5 -1.39908,3e-6 -2.433231,-0.48738 -3.1875,-1.5 -0.742125,-1.024662 -1.125009,-2.489505 -1.125,-4.40625 -9e-6,-1.916724 0.382875,-3.393621 1.125,-4.40625 0.754269,-1.024656 1.78842,-1.499985 3.1875,-1.5 z"
       inkscape:connector-curvature="0"
       id="path3929"
       style="font-size:8.9971447px;font-style:normal;font-variant:normal;font-weight:bold;font-stretch:normal;text-align:start;line-height:125%;writing-mode:lr-tb;text-anchor:start;opacity:0.3;fill:#000000;fill-opacity:1;stroke:none;display:inline;font-family:Sans;-inkscape-font-specification:Abandoned Bitplane Bold" />
    <path
       sodipodi:nodetypes="cccccscccccccccccccccccccccccccscscc"
       d="m 45.019597,25.211335 0,27.09375 6.5625,0 0,-3 c 0.900258,1.181385 1.905066,2.058417 3,2.625 1.09491,0.554499 2.326587,0.84375 3.75,0.84375 2.518305,0 4.569423,-0.929241 6.1875,-2.90625 1.618029,-1.989063 2.437476,-4.565265 2.4375,-7.6875 -2.4e-5,-3.122217 -0.819471,-5.710473 -2.4375,-7.6875 -1.618077,-1.989045 -3.669195,-2.999979 -6.1875,-3 -1.423413,2.1e-5 -2.65509,0.2772 -3.75,0.84375 -1.094934,0.554547 -2.099742,1.443633 -3,2.625 l 0,-9.75 z m -22.75,0.09375 -10.125,27 7.03125,0 1.78125,-4.96875 10.96875,0 1.6875,4.96875 7.125,0 -10.125,-27 z m 4.21875,6.28125 3.65625,10.78125 -7.40625,0 z m 29.40625,4.6875 c 1.399053,1.5e-5 2.457534,0.487401 3.1875,1.5 0.742095,1.012629 1.124982,2.477472 1.125,4.40625 -1.8e-5,1.928796 -0.382905,3.393639 -1.125,4.40625 -0.729966,1.01262 -1.788447,1.500003 -3.1875,1.5 -1.39908,3e-6 -2.433231,-0.48738 -3.1875,-1.5 -0.742125,-1.024662 -1.125009,-2.489505 -1.125,-4.40625 -9e-6,-1.916724 0.382875,-3.393621 1.125,-4.40625 0.754269,-1.024656 1.78842,-1.499985 3.1875,-1.5 z"
       inkscape:connector-curvature="0"
       id="path3108"
       style="font-size:8.9971447px;font-style:normal;font-variant:normal;font-weight:bold;font-stretch:normal;text-align:start;line-height:125%;writing-mode:lr-tb;text-anchor:start;fill:url(#linearGradient3123);fill-opacity:1;stroke:none;display:inline;font-family:Sans;-inkscape-font-specification:Abandoned Bitplane Bold" />
    <path
       sodipodi:nodetypes="cccccccccccccccccccccccccccccccscsccccscc"
       d="m 45.019597,25.211335 0,1 6.5625,0 0,-1 z m -22.75,0.09375 -10.125,27 0.375,0 9.75,-26 8.34375,0 9.75,26 0.375,0 -10.125,-27 z m 36.0625,6.1875 c -1.423413,2.1e-5 -2.65509,0.2772 -3.75,0.84375 -1.094934,0.554547 -2.099742,1.443633 -3,2.625 l 0,1 c 0.900258,-1.181367 1.905066,-2.070453 3,-2.625 1.09491,-0.56655 2.326587,-0.843729 3.75,-0.84375 2.518305,2.1e-5 4.569423,1.010955 6.1875,3 1.530632,1.870239 2.353795,4.288709 2.4375,7.1875 0.0048,-0.165454 -10e-7,-0.331354 0,-0.5 -2.4e-5,-3.122217 -0.819471,-5.710473 -2.4375,-7.6875 -1.618077,-1.989045 -3.669195,-2.999979 -6.1875,-3 z m -35.25,10.875 -0.34375,1 7.40625,0 -0.34375,-1 z m 28.53125,0.3125 c -0.0066,0.170789 -0.03125,0.321568 -0.03125,0.5 -9e-6,1.916745 0.382875,3.381588 1.125,4.40625 0.754269,1.01262 1.78842,1.500003 3.1875,1.5 1.399053,3e-6 2.457534,-0.48738 3.1875,-1.5 0.742095,-1.012611 1.124982,-2.477454 1.125,-4.40625 -2e-6,-0.175479 -0.02493,-0.332192 -0.03125,-0.5 -0.06317,1.676664 -0.41917,2.985766 -1.09375,3.90625 -0.729966,1.01262 -1.788447,1.500003 -3.1875,1.5 -1.39908,3e-6 -2.433231,-0.48738 -3.1875,-1.5 -0.673039,-0.929274 -1.029292,-2.244152 -1.09375,-3.90625 z"
       inkscape:connector-curvature="0"
       id="path3143"
       style="font-size:8.9971447px;font-style:normal;font-variant:normal;font-weight:bold;font-stretch:normal;text-align:start;line-height:125%;writing-mode:lr-tb;text-anchor:start;opacity:0.75;fill:#ffffff;fill-opacity:1;stroke:none;display:inline;font-family:Sans;-inkscape-font-specification:Abandoned Bitplane Bold" />
    <path
       sodipodi:nodetypes="cccccccccccccccsccccsccccsccccccccccccccccccccc"
       d="m 26.488347,30.586335 -3.75,10.78125 0.34375,0 3.40625,-9.78125 3.3125,9.78125 0.34375,0 z m 29.40625,4.6875 c -1.39908,1.5e-5 -2.433231,0.475344 -3.1875,1.5 -0.742125,1.012629 -1.125009,2.489526 -1.125,4.40625 -10e-7,0.178434 0.02463,0.329389 0.03125,0.5 0.06446,-1.663834 0.420711,-2.987889 1.09375,-3.90625 0.754269,-1.024656 1.78842,-1.499985 3.1875,-1.5 1.399053,1.5e-5 2.457534,0.487401 3.1875,1.5 0.67458,0.920501 1.030584,2.2296 1.09375,3.90625 0.0063,-0.167809 0.03125,-0.324519 0.03125,-0.5 -1.8e-5,-1.928778 -0.382905,-3.393621 -1.125,-4.40625 -0.729966,-1.012599 -1.788447,-1.499985 -3.1875,-1.5 z m 11.0625,6.40625 c -0.0837,2.897674 -0.906868,5.305875 -2.4375,7.1875 -1.618077,1.977009 -3.669195,2.90625 -6.1875,2.90625 -1.423413,0 -2.65509,-0.289251 -3.75,-0.84375 -1.094934,-0.566583 -2.099742,-1.443615 -3,-2.625 l 0,1 c 0.900258,1.181385 1.905066,2.058417 3,2.625 1.09491,0.554499 2.326587,0.84375 3.75,0.84375 2.518305,0 4.569423,-0.929241 6.1875,-2.90625 1.618029,-1.989063 2.437476,-4.565265 2.4375,-7.6875 -10e-7,-0.168645 0.0048,-0.334483 0,-0.5 z m -46,4.65625 -1.78125,4.96875 -6.65625,0 -0.375,1 7.03125,0 1.78125,-4.96875 10.96875,0 1.6875,4.96875 7.125,0 -0.375,-1 -6.75,0 -1.6875,-4.96875 z m 24.0625,4.96875 0,1 6.5625,0 0,-1 z"
       inkscape:connector-curvature="0"
       id="path3920"
       style="font-size:8.9971447px;font-style:normal;font-variant:normal;font-weight:bold;font-stretch:normal;text-align:start;line-height:125%;writing-mode:lr-tb;text-anchor:start;opacity:0.15;fill:#000000;fill-opacity:1;stroke:none;display:inline;font-family:Sans;-inkscape-font-specification:Abandoned Bitplane Bold" />
  </g>
  <g
     id="g3403">
    <path
       style="font-size:40px;font-style:normal;font-variant:normal;font-weight:normal;font-stretch:normal;line-height:125%;letter-spacing:0px;word-spacing:0px;opacity:0.1;fill:none;stroke:#000000;stroke-width:2;font-family:Webdings;-inkscape-font-specification:Webdings"
       inkscape:connector-curvature="0"
       id="path3291"
       d="m 80.367785,55.978453 -25.75459,25.754597 -14.30812,-14.308109 0,-17.169731 14.30812,14.263394 25.75459,-25.709882 0,17.169731" />
    <path
       style="font-size:40px;font-style:normal;font-variant:normal;font-weight:normal;font-stretch:normal;line-height:125%;letter-spacing:0px;word-spacing:0px;opacity:0.3;fill:#000000;fill-opacity:0.78823529;stroke:none;font-family:Webdings;-inkscape-font-specification:Webdings"
       inkscape:connector-curvature="0"
       id="path3219"
       d="m 80.367785,57.910653 -25.7546,25.754597 -14.30811,-14.308109 0,-17.169731 14.30811,14.263394 25.7546,-25.709882 0,17.169731" />
    <path
       d="m 80.367785,55.978453 -25.7546,25.754597 -14.30811,-14.308109 0,-17.169731 14.30811,14.263394 25.7546,-25.709882 0,17.169731"
       id="path3113"
       inkscape:connector-curvature="0"
       style="font-size:40px;font-style:normal;font-variant:normal;font-weight:normal;font-stretch:normal;line-height:125%;letter-spacing:0px;word-spacing:0px;fill:url(#linearGradient3399);fill-opacity:1;stroke:none;font-family:Webdings;-inkscape-font-specification:Webdings" />
  </g>
</svg>
