<?xml version="1.0" encoding="UTF-8" standalone="no"?>
<!-- Created with Inkscape (http://www.inkscape.org/) -->

<svg
   xmlns:dc="http://purl.org/dc/elements/1.1/"
   xmlns:cc="http://creativecommons.org/ns#"
   xmlns:rdf="http://www.w3.org/1999/02/22-rdf-syntax-ns#"
   xmlns:svg="http://www.w3.org/2000/svg"
   xmlns="http://www.w3.org/2000/svg"
   xmlns:xlink="http://www.w3.org/1999/xlink"
   xmlns:sodipodi="http://sodipodi.sourceforge.net/DTD/sodipodi-0.dtd"
   xmlns:inkscape="http://www.inkscape.org/namespaces/inkscape"
   version="1.0"
   width="96"
   height="96"
   id="svg2408"
   inkscape:version="0.48.0 r9654"
   sodipodi:docname="insert-image.svg">
  <sodipodi:namedview
     pagecolor="#ffffff"
     bordercolor="#666666"
     borderopacity="1"
     objecttolerance="10"
     gridtolerance="10"
     guidetolerance="10"
     inkscape:pageopacity="0"
     inkscape:pageshadow="2"
     inkscape:window-width="1280"
     inkscape:window-height="680"
     id="namedview93"
     showgrid="false"
     showguides="true"
     inkscape:guide-bbox="true"
     inkscape:zoom="4.7604167"
     inkscape:cx="48"
     inkscape:cy="48"
     inkscape:window-x="0"
     inkscape:window-y="24"
     inkscape:window-maximized="1"
     inkscape:current-layer="svg2408" />
  <defs
     id="defs2410">
    <linearGradient
       id="linearGradient3637">
      <stop
         id="stop3639"
         style="stop-color:#f0f0f0;stop-opacity:1"
         offset="0" />
      <stop
         id="stop3641"
         style="stop-color:#aaaaaa;stop-opacity:1"
         offset="1" />
    </linearGradient>
    <linearGradient
       x1="45.447727"
       y1="92.539597"
       x2="45.447727"
       y2="7.0165396"
       id="ButtonShadow"
       gradientUnits="userSpaceOnUse"
       gradientTransform="scale(1.0058652,0.994169)">
      <stop
         id="stop3750"
         style="stop-color:#000000;stop-opacity:1"
         offset="0" />
      <stop
         id="stop3752"
         style="stop-color:#000000;stop-opacity:0.58823532"
         offset="1" />
    </linearGradient>
    <linearGradient
       id="linearGradient3737">
      <stop
         id="stop3739"
         style="stop-color:#ffffff;stop-opacity:1"
         offset="0" />
      <stop
         id="stop3741"
         style="stop-color:#ffffff;stop-opacity:0"
         offset="1" />
    </linearGradient>
    <linearGradient
       id="linearGradient3700">
      <stop
         id="stop3702"
         style="stop-color:#2276c5;stop-opacity:1"
         offset="0" />
      <stop
         id="stop3704"
         style="stop-color:#68baf4;stop-opacity:1"
         offset="1" />
    </linearGradient>
    <filter
       color-interpolation-filters="sRGB"
       id="filter3174">
      <feGaussianBlur
         id="feGaussianBlur3176"
         stdDeviation="1.71" />
    </filter>
    <linearGradient
       x1="36.357143"
       y1="6"
       x2="36.357143"
       y2="63.893143"
       id="linearGradient3188"
       xlink:href="#linearGradient3737"
       gradientUnits="userSpaceOnUse" />
    <filter
       x="-0.192"
       y="-0.192"
       width="1.3839999"
       height="1.3839999"
       color-interpolation-filters="sRGB"
       id="filter3794">
      <feGaussianBlur
         id="feGaussianBlur3796"
         stdDeviation="5.28" />
    </filter>
    <linearGradient
       x1="48"
       y1="20.220806"
       x2="48"
       y2="138.66119"
       id="linearGradient3613"
       xlink:href="#linearGradient3737"
       gradientUnits="userSpaceOnUse" />
    <radialGradient
       cx="48"
       cy="90.171875"
       r="42"
       fx="48"
       fy="90.171875"
       id="radialGradient3619"
       xlink:href="#linearGradient3737"
       gradientUnits="userSpaceOnUse"
       gradientTransform="matrix(1.1573129,0,0,0.99590774,-7.5510206,0.19713193)" />
    <clipPath
       id="clipPath3613">
      <rect
         width="84"
         height="84"
         rx="6"
         ry="6"
         x="6"
         y="6"
         id="rect3615"
         style="fill:#ffffff;fill-opacity:1;fill-rule:nonzero;stroke:none" />
    </clipPath>
    <linearGradient
       x1="48"
       y1="90"
       x2="48"
       y2="5.9877172"
       id="linearGradient2843"
       xlink:href="#linearGradient3700"
       gradientUnits="userSpaceOnUse"
       gradientTransform="translate(0,100)" />
    <clipPath
       id="clipPath3625">
      <path
         d="M 0,0 0,96 96,96 96,0 0,0 z m 12,6 72,0 c 3.324,0 6,2.676 6,6 l 0,72 c 0,3.324 -2.676,6 -6,6 L 12,90 C 8.676,90 6,87.324 6,84 L 6,12 C 6,8.676 8.676,6 12,6 z"
         inkscape:connector-curvature="0"
         id="path3627"
         style="fill:#ffffff;fill-opacity:1;stroke:none" />
    </clipPath>
    <linearGradient
       x1="44.512066"
       y1="6"
       x2="44.512066"
       y2="90.015434"
       id="linearGradient3643"
       xlink:href="#linearGradient3637"
       gradientUnits="userSpaceOnUse" />
    <clipPath
       id="clipPath3649">
      <rect
         width="76"
         height="76"
         rx="4"
         ry="4"
         x="10"
         y="10"
         id="rect3651"
         style="fill:#ffffff;fill-opacity:1;fill-rule:nonzero;stroke:none" />
    </clipPath>
    <filter
       color-interpolation-filters="sRGB"
       id="filter3657">
      <feGaussianBlur
         id="feGaussianBlur3659"
         stdDeviation="1.14" />
    </filter>
    <linearGradient
       x1="45.447727"
       y1="92.539597"
       x2="45.447727"
       y2="7.0165396"
       id="ButtonShadow-0"
       gradientUnits="userSpaceOnUse"
       gradientTransform="matrix(1.0058652,0,0,0.994169,100,0)">
      <stop
         id="stop3750-8"
         style="stop-color:#000000;stop-opacity:1"
         offset="0" />
      <stop
         id="stop3752-5"
         style="stop-color:#000000;stop-opacity:0.58823532"
         offset="1" />
    </linearGradient>
    <linearGradient
       x1="32.251034"
       y1="6.1317081"
       x2="32.251034"
       y2="90.238609"
       id="linearGradient3780"
       xlink:href="#ButtonShadow-0"
       gradientUnits="userSpaceOnUse"
       gradientTransform="matrix(1.0238095,0,0,-1.0119048,-1.1428571,98.071429)" />
    <linearGradient
       x1="32.251034"
       y1="6.1317081"
       x2="32.251034"
       y2="90.238609"
       id="linearGradient3772"
       xlink:href="#ButtonShadow-0"
       gradientUnits="userSpaceOnUse"
       gradientTransform="matrix(1.0238095,0,0,-1.0119048,-1.1428571,98.071429)" />
    <linearGradient
       x1="32.251034"
       y1="6.1317081"
       x2="32.251034"
       y2="90.238609"
       id="linearGradient3725"
       xlink:href="#ButtonShadow-0"
       gradientUnits="userSpaceOnUse"
       gradientTransform="matrix(1.0238095,0,0,-1.0119048,-1.1428571,98.071429)" />
    <linearGradient
       x1="32.251034"
       y1="6.1317081"
       x2="32.251034"
       y2="90.238609"
       id="linearGradient3721"
       xlink:href="#ButtonShadow-0"
       gradientUnits="userSpaceOnUse"
       gradientTransform="matrix(1,0,0,-1,0,97)" />
    <linearGradient
       x1="32.251034"
       y1="6.1317081"
       x2="32.251034"
       y2="90.238609"
       id="linearGradient3199"
       xlink:href="#ButtonShadow-0"
       gradientUnits="userSpaceOnUse"
       gradientTransform="matrix(1.0238095,0,0,-1.0119048,-1.1428571,98.071429)" />
    <linearGradient
       x1="36.357143"
       y1="6"
       x2="36.357143"
       y2="63.893143"
       id="linearGradient3188-8"
       xlink:href="#linearGradient3737-3"
       gradientUnits="userSpaceOnUse" />
    <linearGradient
       id="linearGradient3737-3">
      <stop
         id="stop3739-6"
         style="stop-color:#ffffff;stop-opacity:1"
         offset="0" />
      <stop
         id="stop3741-1"
         style="stop-color:#ffffff;stop-opacity:0"
         offset="1" />
    </linearGradient>
    <radialGradient
       cx="48"
       cy="90.171875"
       r="42"
       fx="48"
       fy="90.171875"
       id="radialGradient3619-3"
       xlink:href="#linearGradient3737-3"
       gradientUnits="userSpaceOnUse"
       gradientTransform="matrix(1.1573129,0,0,0.99590774,-7.551021,0.1971319)" />
    <linearGradient
       x1="104"
       y1="8"
       x2="120"
       y2="8"
       id="linearGradient3905"
       xlink:href="#linearGradient3637"
       gradientUnits="userSpaceOnUse"
       gradientTransform="translate(-104,104)" />
    <linearGradient
       x1="104"
       y1="8"
       x2="120"
       y2="8"
       id="linearGradient3913"
       xlink:href="#linearGradient3183-0"
       gradientUnits="userSpaceOnUse"
       gradientTransform="translate(-144,104)" />
    <linearGradient
       id="linearGradient3183-0">
      <stop
         id="stop3185-9"
         style="stop-color:#c80000;stop-opacity:1"
         offset="0" />
      <stop
         id="stop3187-6"
         style="stop-color:#f3604d;stop-opacity:1"
         offset="1" />
    </linearGradient>
    <linearGradient
       x1="9.1734705"
       y1="-0.66666669"
       x2="9.1734705"
       y2="18.002266"
       id="linearGradient3117"
       xlink:href="#linearGradient3637"
       gradientUnits="userSpaceOnUse"
       gradientTransform="matrix(3,0,0,3,12,26)" />
    <radialGradient
       gradientTransform="matrix(1.1573129,0,0,0.99590774,-7.551021,0.1971319)"
       gradientUnits="userSpaceOnUse"
       xlink:href="#linearGradient3737-2"
       id="radialGradient3619-5"
       fy="90.171875"
       fx="48"
       r="42"
       cy="90.171875"
       cx="48" />
    <linearGradient
       id="linearGradient3737-2">
      <stop
         offset="0"
         style="stop-color:#ffffff;stop-opacity:1"
         id="stop3739-0" />
      <stop
         offset="1"
         style="stop-color:#ffffff;stop-opacity:0"
         id="stop3741-1-7" />
    </linearGradient>
    <linearGradient
       gradientUnits="userSpaceOnUse"
       xlink:href="#linearGradient3737-2"
       id="linearGradient3188-2"
       y2="63.893143"
       x2="36.357143"
       y1="6"
       x1="36.357143" />
    <linearGradient
       gradientTransform="matrix(1.0238095,0,0,-1.0119048,-1.1428571,98.071429)"
       gradientUnits="userSpaceOnUse"
       xlink:href="#ButtonShadow-0-7"
       id="linearGradient3289"
       y2="90.238609"
       x2="32.251034"
       y1="6.1317081"
       x1="32.251034" />
    <linearGradient
       gradientTransform="matrix(1,0,0,-1,0,97)"
       gradientUnits="userSpaceOnUse"
       xlink:href="#ButtonShadow-0-7"
       id="linearGradient3721-9"
       y2="90.238609"
       x2="32.251034"
       y1="6.1317081"
       x1="32.251034" />
    <linearGradient
       gradientTransform="matrix(1.0238095,0,0,-1.0119048,-1.1428571,98.071429)"
       gradientUnits="userSpaceOnUse"
       xlink:href="#ButtonShadow-0-7"
       id="linearGradient3725-6"
       y2="90.238609"
       x2="32.251034"
       y1="6.1317081"
       x1="32.251034" />
    <linearGradient
       gradientTransform="matrix(1.0238095,0,0,-1.0119048,-1.1428571,98.071429)"
       gradientUnits="userSpaceOnUse"
       xlink:href="#ButtonShadow-0-7"
       id="linearGradient3772-5"
       y2="90.238609"
       x2="32.251034"
       y1="6.1317081"
       x1="32.251034" />
    <linearGradient
       gradientTransform="matrix(1.0238095,0,0,-1.0119048,-1.1428571,98.071429)"
       gradientUnits="userSpaceOnUse"
       xlink:href="#ButtonShadow-0-7"
       id="linearGradient3780-8"
       y2="90.238609"
       x2="32.251034"
       y1="6.1317081"
       x1="32.251034" />
    <linearGradient
       gradientTransform="matrix(1.0058652,0,0,0.994169,100,0)"
       gradientUnits="userSpaceOnUse"
       id="ButtonShadow-0-7"
       y2="7.0165396"
       x2="45.447727"
       y1="92.539597"
       x1="45.447727">
      <stop
         offset="0"
         style="stop-color:#000000;stop-opacity:1"
         id="stop3750-8-4" />
      <stop
         offset="1"
         style="stop-color:#000000;stop-opacity:0.58823532"
         id="stop3752-5-1" />
    </linearGradient>
    <linearGradient
       id="linearGradient4081">
      <stop
         offset="0"
         style="stop-color:#aaaaaa;stop-opacity:1"
         id="stop4083" />
      <stop
         offset="1"
         style="stop-color:#f0f0f0;stop-opacity:1"
         id="stop4085" />
    </linearGradient>
    <linearGradient
       gradientTransform="matrix(0.47268421,0.12665535,0.12665535,-0.47268421,44.47921,74.733655)"
       gradientUnits="userSpaceOnUse"
       xlink:href="#linearGradient4081"
       id="linearGradient3669"
       y2="45.017357"
       x2="20.758585"
       y1="1"
       x1="20.758585" />
    <linearGradient
       gradientTransform="matrix(0.93022994,0,0,-0.93022994,23.674475,61.395341)"
       gradientUnits="userSpaceOnUse"
       xlink:href="#linearGradient4081"
       id="linearGradient3665"
       y2="45.017357"
       x2="20.758585"
       y1="1"
       x1="20.758585" />
    <filter
       id="filter3657-8"
       color-interpolation-filters="sRGB">
      <feGaussianBlur
         stdDeviation="1.14"
         id="feGaussianBlur3659-5" />
    </filter>
    <clipPath
       id="clipPath3649-1">
      <rect
         style="fill:#ffffff;fill-opacity:1;fill-rule:nonzero;stroke:none"
         id="rect3651-7"
         y="10"
         x="10"
         ry="4"
         rx="4"
         height="76"
         width="76" />
    </clipPath>
    <linearGradient
       gradientUnits="userSpaceOnUse"
       xlink:href="#linearGradient3637-9"
       id="linearGradient3643-2"
       y2="90.015434"
       x2="44.512066"
       y1="6"
       x1="44.512066" />
    <clipPath
       id="clipPath3625-9">
      <path
         style="fill:#ffffff;fill-opacity:1;stroke:none"
         id="path3627-6"
         inkscape:connector-curvature="0"
         d="M 0,0 0,96 96,96 96,0 0,0 z m 12,6 72,0 c 3.324,0 6,2.676 6,6 l 0,72 c 0,3.324 -2.676,6 -6,6 L 12,90 C 8.676,90 6,87.324 6,84 L 6,12 C 6,8.676 8.676,6 12,6 z" />
    </clipPath>
    <linearGradient
       gradientTransform="translate(0,100)"
       gradientUnits="userSpaceOnUse"
       xlink:href="#linearGradient3700-4"
       id="linearGradient2843-5"
       y2="5.9877172"
       x2="48"
       y1="90"
       x1="48" />
    <radialGradient
       gradientTransform="matrix(1.1573129,0,0,0.99590774,-7.5510206,0.19713193)"
       gradientUnits="userSpaceOnUse"
       xlink:href="#linearGradient3737-30"
       id="radialGradient3619-7"
       fy="90.171875"
       fx="48"
       r="42"
       cy="90.171875"
       cx="48" />
    <linearGradient
       gradientUnits="userSpaceOnUse"
       xlink:href="#linearGradient3737-30"
       id="linearGradient3188-1"
       y2="63.893143"
       x2="36.357143"
       y1="6"
       x1="36.357143" />
    <filter
       id="filter3174-6"
       color-interpolation-filters="sRGB">
      <feGaussianBlur
         stdDeviation="1.71"
         id="feGaussianBlur3176-3" />
    </filter>
    <linearGradient
       id="linearGradient3700-4">
      <stop
         offset="0"
         style="stop-color:#2276c5;stop-opacity:1"
         id="stop3702-4" />
      <stop
         offset="1"
         style="stop-color:#68baf4;stop-opacity:1"
         id="stop3704-7" />
    </linearGradient>
    <linearGradient
       id="linearGradient3737-30">
      <stop
         offset="0"
         style="stop-color:#ffffff;stop-opacity:1"
         id="stop3739-4" />
      <stop
         offset="1"
         style="stop-color:#ffffff;stop-opacity:0"
         id="stop3741-4" />
    </linearGradient>
    <linearGradient
       gradientTransform="scale(1.0058652,0.994169)"
       gradientUnits="userSpaceOnUse"
       id="ButtonShadow-8"
       y2="7.0165396"
       x2="45.447727"
       y1="92.539597"
       x1="45.447727">
      <stop
         offset="0"
         style="stop-color:#000000;stop-opacity:1"
         id="stop3750-1" />
      <stop
         offset="1"
         style="stop-color:#000000;stop-opacity:0.58823532"
         id="stop3752-0" />
    </linearGradient>
    <linearGradient
       id="linearGradient3637-9">
      <stop
         offset="0"
         style="stop-color:#f0f0f0;stop-opacity:1"
         id="stop3639-8" />
      <stop
         offset="1"
         style="stop-color:#dcdcdc;stop-opacity:1"
         id="stop3641-4" />
    </linearGradient>
    <linearGradient
       inkscape:collect="always"
       xlink:href="#linearGradient4081"
       id="linearGradient3259"
       gradientUnits="userSpaceOnUse"
       gradientTransform="matrix(0.47268421,0.12665535,0.12665535,-0.47268421,-51.707559,74.750477)"
       x1="20.758585"
       y1="1"
       x2="20.758585"
       y2="45.017357" />
    <linearGradient
       inkscape:collect="always"
       xlink:href="#linearGradient4081"
       id="linearGradient3262"
       gradientUnits="userSpaceOnUse"
       gradientTransform="matrix(0.93022994,0,0,-0.93022994,-72.512294,61.412163)"
       x1="20.758585"
       y1="1"
       x2="20.758585"
       y2="45.017357" />
    <radialGradient
       inkscape:collect="always"
       xlink:href="#linearGradient3737-2"
       id="radialGradient3272"
       gradientUnits="userSpaceOnUse"
       gradientTransform="matrix(1.1573129,0,0,0.99590774,-103.73779,0.21395436)"
       cx="48"
       cy="90.171875"
       fx="48"
       fy="90.171875"
       r="42" />
    <linearGradient
       inkscape:collect="always"
       xlink:href="#linearGradient3737-2"
       id="linearGradient3275"
       gradientUnits="userSpaceOnUse"
       x1="36.357143"
       y1="6"
       x2="36.357143"
       y2="63.893143"
       gradientTransform="translate(-96.186769,0.01682246)" />
    <linearGradient
       inkscape:collect="always"
       xlink:href="#linearGradient3637-9"
       id="linearGradient3278"
       gradientUnits="userSpaceOnUse"
       x1="44.512066"
       y1="6"
       x2="44.512066"
       y2="90.015434"
       gradientTransform="translate(-96.186769,0.01682246)" />
    <linearGradient
       inkscape:collect="always"
       xlink:href="#linearGradient3737-30"
       id="linearGradient3280"
       gradientUnits="userSpaceOnUse"
       x1="36.357143"
       y1="6"
       x2="36.357143"
       y2="63.893143"
       gradientTransform="translate(-96.186769,0.01682246)" />
    <radialGradient
       inkscape:collect="always"
       xlink:href="#linearGradient3737-30"
       id="radialGradient3282"
       gradientUnits="userSpaceOnUse"
       gradientTransform="matrix(1.1573129,0,0,0.99590774,-103.73779,0.21395439)"
       cx="48"
       cy="90.171875"
       fx="48"
       fy="90.171875"
       r="42" />
    <linearGradient
       inkscape:collect="always"
       xlink:href="#linearGradient3700-4"
       id="linearGradient3284"
       gradientUnits="userSpaceOnUse"
       gradientTransform="translate(-96.186769,100.01682)"
       x1="48"
       y1="90"
       x2="48"
       y2="5.9877172" />
    <linearGradient
       inkscape:collect="always"
       xlink:href="#ButtonShadow-0-7"
       id="linearGradient3297"
       gradientUnits="userSpaceOnUse"
       gradientTransform="matrix(1,0,0,-1,-96.186769,97.016822)"
       x1="32.251034"
       y1="6.1317081"
       x2="32.251034"
       y2="90.238609" />
    <linearGradient
       inkscape:collect="always"
       xlink:href="#ButtonShadow-0-7"
       id="linearGradient3300"
       gradientUnits="userSpaceOnUse"
       gradientTransform="matrix(1.0238095,0,0,-1.0119048,-97.329626,98.088251)"
       x1="32.251034"
       y1="6.1317081"
       x2="32.251034"
       y2="90.238609" />
    <linearGradient
       inkscape:collect="always"
       xlink:href="#ButtonShadow-0-7"
       id="linearGradient3303"
       gradientUnits="userSpaceOnUse"
       gradientTransform="matrix(1.0238095,0,0,-1.0119048,-97.329626,98.088251)"
       x1="32.251034"
       y1="6.1317081"
       x2="32.251034"
       y2="90.238609" />
    <linearGradient
       inkscape:collect="always"
       xlink:href="#ButtonShadow-0-7"
       id="linearGradient3306"
       gradientUnits="userSpaceOnUse"
       gradientTransform="matrix(1.0238095,0,0,-1.0119048,-97.329626,98.088251)"
       x1="32.251034"
       y1="6.1317081"
       x2="32.251034"
       y2="90.238609" />
    <linearGradient
       inkscape:collect="always"
       xlink:href="#ButtonShadow-0-7"
       id="linearGradient3309"
       gradientUnits="userSpaceOnUse"
       gradientTransform="matrix(1.0238095,0,0,-1.0119048,-97.329626,98.088251)"
       x1="32.251034"
       y1="6.1317081"
       x2="32.251034"
       y2="90.238609" />
    <linearGradient
       inkscape:collect="always"
       xlink:href="#ButtonShadow-8"
       id="linearGradient3311"
       gradientUnits="userSpaceOnUse"
       gradientTransform="scale(1.0058652,0.994169)"
       x1="45.447727"
       y1="92.539597"
       x2="45.447727"
       y2="7.0165396" />
    <linearGradient
       inkscape:collect="always"
       xlink:href="#linearGradient4081"
       id="linearGradient3322"
       gradientUnits="userSpaceOnUse"
       gradientTransform="matrix(0.93022994,0,0,-0.93022994,-72.512294,61.412163)"
       x1="20.758585"
       y1="1"
       x2="20.758585"
       y2="45.017357" />
    <linearGradient
       inkscape:collect="always"
       xlink:href="#linearGradient4081"
       id="linearGradient3324"
       gradientUnits="userSpaceOnUse"
       gradientTransform="matrix(0.47268421,0.12665535,0.12665535,-0.47268421,-51.707559,74.750477)"
       x1="20.758585"
       y1="1"
       x2="20.758585"
       y2="45.017357" />
    <linearGradient
       inkscape:collect="always"
       xlink:href="#linearGradient3637"
       id="linearGradient3329"
       gradientUnits="userSpaceOnUse"
       gradientTransform="matrix(3,0,0,3,12,26)"
       x1="9.1734705"
       y1="-0.66666669"
       x2="9.1734705"
       y2="18.002266" />
    <linearGradient
       inkscape:collect="always"
       xlink:href="#linearGradient3183-0"
       id="linearGradient3336"
       gradientUnits="userSpaceOnUse"
       gradientTransform="translate(-144,104)"
       x1="104"
       y1="8"
       x2="120"
       y2="8" />
    <linearGradient
       inkscape:collect="always"
       xlink:href="#linearGradient3637"
       id="linearGradient3341"
       gradientUnits="userSpaceOnUse"
       gradientTransform="translate(-104,104)"
       x1="104"
       y1="8"
       x2="120"
       y2="8" />
  </defs>
  <metadata
     id="metadata2413">
    <rdf:RDF>
      <cc:Work
         rdf:about="">
        <dc:format>image/svg+xml</dc:format>
        <dc:type
           rdf:resource="http://purl.org/dc/dcmitype/StillImage" />
        <dc:title />
      </cc:Work>
    </rdf:RDF>
  </metadata>
  <g
     id="layer2"
     style="display:none">
    <rect
       width="86"
       height="85"
       rx="6"
       ry="6"
       x="5"
       y="7"
       clip-path="url(#clipPath3625)"
       id="rect3745"
       style="opacity:0.9;fill:url(#ButtonShadow);fill-opacity:1;fill-rule:nonzero;stroke:none;filter:url(#filter3174)" />
  </g>
  <g
     id="layer3">
    <path
       d="M 12,3.96875 C 6.4889098,3.96875 1.96875,8.4889098 1.96875,14 l 0,71 c 0,5.51109 4.5201597,10.03125 10.03125,10.03125 l 72,0 c 5.51109,0 10.03125,-4.52016 10.03125,-10.03125 l 0,-71 C 94.03125,8.4889097 89.51109,3.96875 84,3.96875 l -72,0 z M 12,6 84,6 c 3.324,0 6,2.676 6,6 l 0,72 c 0,3.324 -2.676,6 -6,6 L 12,90 C 8.676,90 6,87.324 6,84 L 6,12 C 6,8.676 8.676,6 12,6 z"
       inkscape:connector-curvature="0"
       id="path3786"
       style="opacity:0.07999998;fill:url(#linearGradient3199);fill-opacity:1;fill-rule:nonzero;stroke:none;display:inline" />
    <path
       d="M 12,4.96875 C 7.0283671,4.96875 2.96875,9.0283671 2.96875,14 l 0,71 c 0,4.971633 4.059617,9.03125 9.03125,9.03125 l 72,0 c 4.971633,0 9.03125,-4.059617 9.03125,-9.03125 l 0,-71 C 93.03125,9.028367 88.971633,4.96875 84,4.96875 l -72,0 z M 12,6 84,6 c 3.324,0 6,2.676 6,6 l 0,72 c 0,3.324 -2.676,6 -6,6 L 12,90 C 8.676,90 6,87.324 6,84 L 6,12 C 6,8.676 8.676,6 12,6 z"
       inkscape:connector-curvature="0"
       id="path3778"
       style="opacity:0.1;fill:url(#linearGradient3780);fill-opacity:1;fill-rule:nonzero;stroke:none;display:inline" />
    <path
       d="M 11.1875,6.03125 C 7.159982,6.4419011 4,9.8664375 4,14 l 0,71 c 0,4.409133 3.590867,8 8,8 l 72,0 c 4.409133,0 8,-3.590867 8,-8 L 92,14 C 92,9.8029382 88.741028,6.3539584 84.625,6.03125 87.657886,6.337417 90,8.88375 90,12 l 0,72 c 0,3.324 -2.676,6 -6,6 L 12,90 C 8.676,90 6,87.324 6,84 L 6,12 c 0,-3.11625 2.342114,-5.662583 5.375,-5.96875 -0.06227,0.00488 -0.12563,-0.00631 -0.1875,0 z"
       inkscape:connector-curvature="0"
       id="path3770"
       style="opacity:0.2;fill:url(#linearGradient3772);fill-opacity:1;fill-rule:nonzero;stroke:none;display:inline" />
    <path
       d="M 6.4375,9.75 C 5.5380109,10.927446 5,12.397277 5,14 l 0,71 c 0,3.878 3.122,7 7,7 l 72,0 c 3.878,0 7,-3.122 7,-7 L 91,14 C 91,12.397277 90.461989,10.927446 89.5625,9.75 89.841816,10.444095 90,11.203625 90,12 l 0,72 c 0,3.324 -2.676,6 -6,6 L 12,90 C 8.676,90 6,87.324 6,84 L 6,12 C 6,11.203625 6.1581836,10.444095 6.4375,9.75 z"
       inkscape:connector-curvature="0"
       id="rect3723"
       style="opacity:0.3;fill:url(#linearGradient3725);fill-opacity:1;fill-rule:nonzero;stroke:none;display:inline" />
    <path
       d="m 6,84 0,1 c 0,3.324 2.676,6 6,6 l 72,0 c 3.324,0 6,-2.676 6,-6 l 0,-1 c 0,3.324 -2.676,6 -6,6 L 12,90 C 8.676,90 6,87.324 6,84 z"
       inkscape:connector-curvature="0"
       id="rect3716"
       style="opacity:0.45;fill:url(#linearGradient3721);fill-opacity:1;fill-rule:nonzero;stroke:none;display:inline" />
  </g>
  <g
     id="layer1"
     style="display:none">
    <rect
       width="84"
       height="84"
       rx="6"
       ry="6"
       x="6"
       y="6"
       id="rect2419"
       style="opacity:0.8;fill:#000000;fill-opacity:1;fill-rule:nonzero;stroke:none" />
    <path
       d="m 14,10 c -2.216,0 -4,1.784 -4,4 l 0,68 c 0,2.216 1.784,4 4,4 l 68,0 c 2.216,0 4,-1.784 4,-4 l 0,-68 c 0,-2.216 -1.784,-4 -4,-4 l -68,0 z m 0,3.0625 68,0 c 0.578769,0 0.9375,0.358731 0.9375,0.9375 l 0,68 c 0,0.578769 -0.358731,0.9375 -0.9375,0.9375 l -68,0 c -0.578769,0 -0.9375,-0.358731 -0.9375,-0.9375 l 0,-68 c 0,-0.578769 0.358731,-0.9375 0.9375,-0.9375 z"
       inkscape:connector-curvature="0"
       id="rect3726"
       style="opacity:0.07999998;fill:#000000;fill-opacity:1;fill-rule:nonzero;stroke:none" />
    <path
       d="M 12,6 C 8.676,6 6,8.676 6,12 l 0,72 c 0,3.324 2.676,6 6,6 l 72,0 c 3.324,0 6,-2.676 6,-6 L 90,12 C 90,8.676 87.324,6 84,6 L 12,6 z m 2,4 68,0 c 2.216,0 4,1.784 4,4 l 0,68 c 0,2.216 -1.784,4 -4,4 l -68,0 c -2.216,0 -4,-1.784 -4,-4 l 0,-68 c 0,-2.216 1.784,-4 4,-4 z"
       inkscape:connector-curvature="0"
       id="rect3629"
       style="fill:url(#linearGradient3643);fill-opacity:1;fill-rule:nonzero;stroke:none" />
    <path
       d="M 12,6 C 8.676,6 6,8.676 6,12 l 0,2 0,68 0,2 c 0,0.334721 0.04135,0.6507 0.09375,0.96875 0.0487,0.295596 0.09704,0.596915 0.1875,0.875 0.00988,0.03038 0.020892,0.0636 0.03125,0.09375 0.098865,0.287771 0.2348802,0.547452 0.375,0.8125 0.1445918,0.273507 0.3156161,0.535615 0.5,0.78125 0.1843839,0.245635 0.3737765,0.473472 0.59375,0.6875 0.439947,0.428056 0.94291,0.814526 1.5,1.09375 0.278545,0.139612 0.5734731,0.246947 0.875,0.34375 -0.2562018,-0.100222 -0.4867109,-0.236272 -0.71875,-0.375 -0.00741,-0.0044 -0.023866,0.0045 -0.03125,0 -0.031933,-0.0193 -0.062293,-0.04251 -0.09375,-0.0625 -0.120395,-0.0767 -0.2310226,-0.163513 -0.34375,-0.25 -0.1061728,-0.0808 -0.2132809,-0.161112 -0.3125,-0.25 C 8.4783201,88.557317 8.3087904,88.373362 8.15625,88.1875 8.0486711,88.057245 7.9378561,87.922215 7.84375,87.78125 7.818661,87.74287 7.805304,87.69538 7.78125,87.65625 7.716487,87.553218 7.6510225,87.451733 7.59375,87.34375 7.4927417,87.149044 7.3880752,86.928049 7.3125,86.71875 7.30454,86.69694 7.288911,86.6782 7.28125,86.65625 7.2494249,86.5643 7.2454455,86.469419 7.21875,86.375 7.1884177,86.268382 7.1483606,86.171969 7.125,86.0625 7.0521214,85.720988 7,85.364295 7,85 L 7,83 7,15 7,13 C 7,10.218152 9.2181517,8 12,8 l 2,0 68,0 2,0 c 2.781848,0 5,2.218152 5,5 l 0,2 0,68 0,2 c 0,0.364295 -0.05212,0.720988 -0.125,1.0625 -0.04415,0.206893 -0.08838,0.397658 -0.15625,0.59375 -0.0077,0.02195 -0.0233,0.04069 -0.03125,0.0625 -0.06274,0.173739 -0.138383,0.367449 -0.21875,0.53125 -0.04158,0.0828 -0.07904,0.169954 -0.125,0.25 -0.0546,0.09721 -0.126774,0.18835 -0.1875,0.28125 -0.09411,0.140965 -0.204921,0.275995 -0.3125,0.40625 -0.143174,0.17445 -0.303141,0.346998 -0.46875,0.5 -0.01117,0.0102 -0.01998,0.02115 -0.03125,0.03125 -0.138386,0.125556 -0.285091,0.234436 -0.4375,0.34375 -0.102571,0.07315 -0.204318,0.153364 -0.3125,0.21875 -0.0074,0.0045 -0.02384,-0.0044 -0.03125,0 -0.232039,0.138728 -0.462548,0.274778 -0.71875,0.375 0.301527,-0.0968 0.596455,-0.204138 0.875,-0.34375 0.55709,-0.279224 1.060053,-0.665694 1.5,-1.09375 0.219973,-0.214028 0.409366,-0.441865 0.59375,-0.6875 0.184384,-0.245635 0.355408,-0.507743 0.5,-0.78125 0.14012,-0.265048 0.276135,-0.524729 0.375,-0.8125 0.01041,-0.03078 0.02133,-0.06274 0.03125,-0.09375 0.09046,-0.278085 0.1388,-0.579404 0.1875,-0.875 C 89.95865,84.6507 90,84.334721 90,84 l 0,-2 0,-68 0,-2 C 90,8.676 87.324,6 84,6 L 12,6 z"
       inkscape:connector-curvature="0"
       id="rect3728"
       style="fill:url(#linearGradient3188);fill-opacity:1;fill-rule:nonzero;stroke:none" />
    <path
       d="M 12,90 C 8.676,90 6,87.324 6,84 L 6,82 6,14 6,12 c 0,-0.334721 0.04135,-0.6507 0.09375,-0.96875 0.0487,-0.295596 0.09704,-0.596915 0.1875,-0.875 C 6.29113,10.12587 6.302142,10.09265 6.3125,10.0625 6.411365,9.774729 6.5473802,9.515048 6.6875,9.25 6.8320918,8.976493 7.0031161,8.714385 7.1875,8.46875 7.3718839,8.223115 7.5612765,7.995278 7.78125,7.78125 8.221197,7.353194 8.72416,6.966724 9.28125,6.6875 9.559795,6.547888 9.8547231,6.440553 10.15625,6.34375 9.9000482,6.443972 9.6695391,6.580022 9.4375,6.71875 c -0.00741,0.0044 -0.023866,-0.0045 -0.03125,0 -0.031933,0.0193 -0.062293,0.04251 -0.09375,0.0625 -0.120395,0.0767 -0.2310226,0.163513 -0.34375,0.25 -0.1061728,0.0808 -0.2132809,0.161112 -0.3125,0.25 C 8.4783201,7.442683 8.3087904,7.626638 8.15625,7.8125 8.0486711,7.942755 7.9378561,8.077785 7.84375,8.21875 7.818661,8.25713 7.805304,8.30462 7.78125,8.34375 7.716487,8.446782 7.6510225,8.548267 7.59375,8.65625 7.4927417,8.850956 7.3880752,9.071951 7.3125,9.28125 7.30454,9.30306 7.288911,9.3218 7.28125,9.34375 7.2494249,9.4357 7.2454455,9.530581 7.21875,9.625 7.1884177,9.731618 7.1483606,9.828031 7.125,9.9375 7.0521214,10.279012 7,10.635705 7,11 l 0,2 0,68 0,2 c 0,2.781848 2.2181517,5 5,5 l 2,0 68,0 2,0 c 2.781848,0 5,-2.218152 5,-5 l 0,-2 0,-68 0,-2 C 89,10.635705 88.94788,10.279012 88.875,9.9375 88.83085,9.730607 88.78662,9.539842 88.71875,9.34375 88.71105,9.3218 88.69545,9.30306 88.6875,9.28125 88.62476,9.107511 88.549117,8.913801 88.46875,8.75 88.42717,8.6672 88.38971,8.580046 88.34375,8.5 88.28915,8.40279 88.216976,8.31165 88.15625,8.21875 88.06214,8.077785 87.951329,7.942755 87.84375,7.8125 87.700576,7.63805 87.540609,7.465502 87.375,7.3125 87.36383,7.3023 87.35502,7.29135 87.34375,7.28125 87.205364,7.155694 87.058659,7.046814 86.90625,6.9375 86.803679,6.86435 86.701932,6.784136 86.59375,6.71875 c -0.0074,-0.0045 -0.02384,0.0044 -0.03125,0 -0.232039,-0.138728 -0.462548,-0.274778 -0.71875,-0.375 0.301527,0.0968 0.596455,0.204138 0.875,0.34375 0.55709,0.279224 1.060053,0.665694 1.5,1.09375 0.219973,0.214028 0.409366,0.441865 0.59375,0.6875 0.184384,0.245635 0.355408,0.507743 0.5,0.78125 0.14012,0.265048 0.276135,0.524729 0.375,0.8125 0.01041,0.03078 0.02133,0.06274 0.03125,0.09375 0.09046,0.278085 0.1388,0.579404 0.1875,0.875 C 89.95865,11.3493 90,11.665279 90,12 l 0,2 0,68 0,2 c 0,3.324 -2.676,6 -6,6 l -72,0 z"
       inkscape:connector-curvature="0"
       id="path3615"
       style="opacity:0.6;fill:url(#radialGradient3619);fill-opacity:1;fill-rule:nonzero;stroke:none" />
    <rect
       width="84"
       height="84"
       rx="6"
       ry="6"
       x="6"
       y="106"
       id="rect2841"
       style="fill:url(#linearGradient2843);fill-opacity:1;fill-rule:nonzero;stroke:none" />
    <rect
       width="76"
       height="76"
       rx="4"
       ry="4"
       x="10"
       y="110"
       id="rect3634"
       style="fill:#ff0000;fill-opacity:1;fill-rule:nonzero;stroke:none" />
    <path
       d="m 14,9 c -2.752703,0 -5,2.247297 -5,5 l 0,68 c 0,2.752703 2.247297,5 5,5 l 68,0 c 2.752703,0 5,-2.247297 5,-5 L 87,14 C 87,11.247297 84.752703,9 82,9 L 14,9 z m 0,2 68,0 c 1.679297,0 3,1.320703 3,3 l 0,68 c 0,1.679297 -1.320703,3 -3,3 l -68,0 c -1.679297,0 -3,-1.320703 -3,-3 l 0,-68 c 0,-1.679297 1.320703,-3 3,-3 z"
       inkscape:connector-curvature="0"
       transform="translate(-110,0)"
       clip-path="url(#clipPath3649)"
       id="rect3647"
       style="font-size:medium;font-style:normal;font-variant:normal;font-weight:normal;font-stretch:normal;text-indent:0;text-align:start;text-decoration:none;line-height:normal;letter-spacing:normal;word-spacing:normal;text-transform:none;direction:ltr;block-progression:tb;writing-mode:lr-tb;text-anchor:start;color:#000000;fill:#000000;fill-opacity:1;stroke:none;stroke-width:2;marker:none;visibility:visible;display:inline;overflow:visible;filter:url(#filter3657);enable-background:accumulate;font-family:Abandoned Bitplane;-inkscape-font-specification:Abandoned Bitplane" />
    <path
       d="m 14.089286,10 c -2.216,0 -4,1.784 -4,4 l 0,68 c 0,2.216 1.784,4 4,4 l 68,0 c 2.216,0 4,-1.784 4,-4 l 0,-68 c 0,-2.216 -1.784,-4 -4,-4 l -68,0 z m 0,2 68,0 c 1.140301,0 2,0.859699 2,2 l 0,68 c 0,1.140301 -0.859699,2 -2,2 l -68,0 c -1.140301,0 -2,-0.859699 -2,-2 l 0,-68 c 0,-1.140301 0.859699,-2 2,-2 z"
       inkscape:connector-curvature="0"
       id="path3709"
       style="opacity:0.16000001;fill:#000000;fill-opacity:1;fill-rule:nonzero;stroke:none" />
    <path
       d="m 14,10 c -2.216,0 -4,1.784 -4,4 l 0,68 c 0,2.216 1.784,4 4,4 l 68,0 c 2.216,0 4,-1.784 4,-4 l 0,-68 c 0,-2.216 -1.784,-4 -4,-4 l -68,0 z m 0,1 68,0 c 1.673848,0 3,1.326152 3,3 l 0,68 c 0,1.673848 -1.326152,3 -3,3 l -68,0 c -1.673848,0 -3,-1.326152 -3,-3 l 0,-68 c 0,-1.673848 1.326152,-3 3,-3 z"
       inkscape:connector-curvature="0"
       id="path3707"
       style="opacity:0.36000001;fill:#000000;fill-opacity:1;fill-rule:nonzero;stroke:none" />
  </g>
  <g
     id="layer4"
     style="display:inline">
    <rect
       width="84"
       height="84"
       rx="6"
       ry="6"
       x="6"
       y="6"
       id="rect2419-9"
       style="opacity:0.6;fill:#000000;fill-opacity:1;fill-rule:nonzero;stroke:none;display:inline" />
    <path
       d="M 12,6 C 8.676,6 6,8.676 6,12 l 0,2 0,68 0,2 c 0,0.334721 0.04135,0.6507 0.09375,0.96875 0.0487,0.295596 0.09704,0.596915 0.1875,0.875 0.00988,0.03038 0.020892,0.0636 0.03125,0.09375 0.098865,0.287771 0.2348802,0.547452 0.375,0.8125 0.1445918,0.273507 0.3156161,0.535615 0.5,0.78125 0.1843839,0.245635 0.3737765,0.473472 0.59375,0.6875 0.439947,0.428056 0.94291,0.814526 1.5,1.09375 0.278545,0.139612 0.5734731,0.246947 0.875,0.34375 -0.2562018,-0.100222 -0.4867109,-0.236272 -0.71875,-0.375 -0.00741,-0.0044 -0.023866,0.0045 -0.03125,0 -0.031933,-0.0193 -0.062293,-0.04251 -0.09375,-0.0625 -0.120395,-0.0767 -0.2310226,-0.163513 -0.34375,-0.25 -0.1061728,-0.0808 -0.2132809,-0.161112 -0.3125,-0.25 C 8.4783201,88.557317 8.3087904,88.373362 8.15625,88.1875 8.0486711,88.057245 7.9378561,87.922215 7.84375,87.78125 7.818661,87.74287 7.805304,87.69538 7.78125,87.65625 7.716487,87.553218 7.6510225,87.451733 7.59375,87.34375 7.4927417,87.149044 7.3880752,86.928049 7.3125,86.71875 7.30454,86.69694 7.288911,86.6782 7.28125,86.65625 7.2494249,86.5643 7.2454455,86.469419 7.21875,86.375 7.1884177,86.268382 7.1483606,86.171969 7.125,86.0625 7.0521214,85.720988 7,85.364295 7,85 L 7,83 7,15 7,13 C 7,10.218152 9.2181517,8 12,8 l 2,0 68,0 2,0 c 2.781848,0 5,2.218152 5,5 l 0,2 0,68 0,2 c 0,0.364295 -0.05212,0.720988 -0.125,1.0625 -0.04415,0.206893 -0.08838,0.397658 -0.15625,0.59375 -0.0077,0.02195 -0.0233,0.04069 -0.03125,0.0625 -0.06274,0.173739 -0.138383,0.367449 -0.21875,0.53125 -0.04158,0.0828 -0.07904,0.169954 -0.125,0.25 -0.0546,0.09721 -0.126774,0.18835 -0.1875,0.28125 -0.09411,0.140965 -0.204921,0.275995 -0.3125,0.40625 -0.143174,0.17445 -0.303141,0.346998 -0.46875,0.5 -0.01117,0.0102 -0.01998,0.02115 -0.03125,0.03125 -0.138386,0.125556 -0.285091,0.234436 -0.4375,0.34375 -0.102571,0.07315 -0.204318,0.153364 -0.3125,0.21875 -0.0074,0.0045 -0.02384,-0.0044 -0.03125,0 -0.232039,0.138728 -0.462548,0.274778 -0.71875,0.375 0.301527,-0.0968 0.596455,-0.204138 0.875,-0.34375 0.55709,-0.279224 1.060053,-0.665694 1.5,-1.09375 0.219973,-0.214028 0.409366,-0.441865 0.59375,-0.6875 0.184384,-0.245635 0.355408,-0.507743 0.5,-0.78125 0.14012,-0.265048 0.276135,-0.524729 0.375,-0.8125 0.01041,-0.03078 0.02133,-0.06274 0.03125,-0.09375 0.09046,-0.278085 0.1388,-0.579404 0.1875,-0.875 C 89.95865,84.6507 90,84.334721 90,84 l 0,-2 0,-68 0,-2 C 90,8.676 87.324,6 84,6 L 12,6 z"
       inkscape:connector-curvature="0"
       id="rect3728-4"
       style="opacity:0.01000001;fill:url(#linearGradient3188-8);fill-opacity:1;fill-rule:nonzero;stroke:none;display:inline" />
    <path
       d="M 12,90 C 8.676,90 6,87.324 6,84 L 6,82 6,14 6,12 c 0,-0.334721 0.04135,-0.6507 0.09375,-0.96875 0.0487,-0.295596 0.09704,-0.596915 0.1875,-0.875 C 6.29113,10.12587 6.302142,10.09265 6.3125,10.0625 6.411365,9.774729 6.5473802,9.515048 6.6875,9.25 6.8320918,8.976493 7.0031161,8.714385 7.1875,8.46875 7.3718839,8.223115 7.5612765,7.995278 7.78125,7.78125 8.221197,7.353194 8.72416,6.966724 9.28125,6.6875 9.559795,6.547888 9.8547231,6.440553 10.15625,6.34375 9.9000482,6.443972 9.6695391,6.580022 9.4375,6.71875 c -0.00741,0.0044 -0.023866,-0.0045 -0.03125,0 -0.031933,0.0193 -0.062293,0.04251 -0.09375,0.0625 -0.120395,0.0767 -0.2310226,0.163513 -0.34375,0.25 -0.1061728,0.0808 -0.2132809,0.161112 -0.3125,0.25 C 8.4783201,7.442683 8.3087904,7.626638 8.15625,7.8125 8.0486711,7.942755 7.9378561,8.077785 7.84375,8.21875 7.818661,8.25713 7.805304,8.30462 7.78125,8.34375 7.716487,8.446782 7.6510225,8.548267 7.59375,8.65625 7.4927417,8.850956 7.3880752,9.071951 7.3125,9.28125 7.30454,9.30306 7.288911,9.3218 7.28125,9.34375 7.2494249,9.4357 7.2454455,9.530581 7.21875,9.625 7.1884177,9.731618 7.1483606,9.828031 7.125,9.9375 7.0521214,10.279012 7,10.635705 7,11 l 0,2 0,68 0,2 c 0,2.781848 2.2181517,5 5,5 l 2,0 68,0 2,0 c 2.781848,0 5,-2.218152 5,-5 l 0,-2 0,-68 0,-2 C 89,10.635705 88.94788,10.279012 88.875,9.9375 88.83085,9.730607 88.78662,9.539842 88.71875,9.34375 88.71105,9.3218 88.69545,9.30306 88.6875,9.28125 88.62476,9.107511 88.549117,8.913801 88.46875,8.75 88.42717,8.6672 88.38971,8.580046 88.34375,8.5 88.28915,8.40279 88.216976,8.31165 88.15625,8.21875 88.06214,8.077785 87.951329,7.942755 87.84375,7.8125 87.700576,7.63805 87.540609,7.465502 87.375,7.3125 87.36383,7.3023 87.35502,7.29135 87.34375,7.28125 87.205364,7.155694 87.058659,7.046814 86.90625,6.9375 86.803679,6.86435 86.701932,6.784136 86.59375,6.71875 c -0.0074,-0.0045 -0.02384,0.0044 -0.03125,0 -0.232039,-0.138728 -0.462548,-0.274778 -0.71875,-0.375 0.301527,0.0968 0.596455,0.204138 0.875,0.34375 0.55709,0.279224 1.060053,0.665694 1.5,1.09375 0.219973,0.214028 0.409366,0.441865 0.59375,0.6875 0.184384,0.245635 0.355408,0.507743 0.5,0.78125 0.14012,0.265048 0.276135,0.524729 0.375,0.8125 0.01041,0.03078 0.02133,0.06274 0.03125,0.09375 0.09046,0.278085 0.1388,0.579404 0.1875,0.875 C 89.95865,11.3493 90,11.665279 90,12 l 0,2 0,68 0,2 c 0,3.324 -2.676,6 -6,6 l -72,0 z"
       inkscape:connector-curvature="0"
       id="path3615-6"
       style="opacity:0.15;fill:url(#radialGradient3619-3);fill-opacity:1;fill-rule:nonzero;stroke:none;display:inline" />
  </g>
  <g
     id="layer5"
     style="display:none">
    <rect
       width="66"
       height="66"
       rx="12"
       ry="12"
       x="15"
       y="15"
       clip-path="url(#clipPath3613)"
       id="rect3171"
       style="opacity:0.1;fill:url(#linearGradient3613);fill-opacity:1;fill-rule:nonzero;stroke:#ffffff;stroke-width:0.5;stroke-linecap:round;stroke-linejoin:miter;stroke-miterlimit:4;stroke-opacity:1;stroke-dasharray:none;stroke-dashoffset:0;filter:url(#filter3794)" />
  </g>
  <path
     style="font-size:8.9971447px;font-style:normal;font-variant:normal;font-weight:bold;font-stretch:normal;text-align:start;line-height:125%;writing-mode:lr-tb;text-anchor:start;opacity:0.1;fill:#000000;fill-opacity:1;stroke:none;display:inline;font-family:Sans;-inkscape-font-specification:Abandoned Bitplane Bold"
     id="path3915"
     inkscape:connector-curvature="0"
     d="m 34.677302,70.583253 c 4.075139,4.022881 8.077427,8.139344 12.197698,12.104247 1.19428,0.875077 2.613708,-0.03424 3.365071,-1.052571 3.840704,-3.903272 7.815423,-7.690315 11.572429,-11.666179 1.571375,-5.920558 -33.109792,-4.413873 -27.135198,0.614503 z"
     sodipodi:nodetypes="ccccc" />
  <path
     inkscape:connector-curvature="0"
     style="font-size:8.9971447px;font-style:normal;font-variant:normal;font-weight:bold;font-stretch:normal;text-align:start;line-height:125%;writing-mode:lr-tb;text-anchor:start;opacity:0.15;fill:#000000;fill-opacity:1;stroke:none;display:inline;font-family:Sans;-inkscape-font-specification:Abandoned Bitplane Bold"
     id="path3911"
     d="m 35.90625,67.96875 c -0.773563,0.06924 -1.179683,1.206382 -0.625,1.75 l 12,12 c 0.378139,0.373163 1.059361,0.373163 1.4375,0 l 12,-12 c 0.571462,-0.566451 0.08588,-1.74873 -0.71875,-1.75 l -24,0 c -0.03123,-0.0014 -0.06252,-0.0014 -0.09375,0 z"
     sodipodi:nodetypes="cccccccc" />
  <path
     style="font-size:8.9971447px;font-style:normal;font-variant:normal;font-weight:bold;font-stretch:normal;text-align:start;line-height:125%;writing-mode:lr-tb;text-anchor:start;opacity:0.3;fill:#000000;fill-opacity:1;stroke:none;display:inline;font-family:Sans;-inkscape-font-specification:Abandoned Bitplane Bold"
     id="path3905"
     inkscape:connector-curvature="0"
     d="M 36,69 48,81 60,69 z"
     sodipodi:nodetypes="cccc" />
  <rect
     style="color:#000000;fill:url(#linearGradient3341);fill-opacity:1;fill-rule:nonzero;stroke:none;stroke-width:2;marker:none;visibility:visible;display:inline;overflow:visible;enable-background:accumulate"
     id="rect3897"
     transform="matrix(0,1,1,0,0,0)"
     y="104"
     x="0"
     height="16"
     width="16" />
  <text
     sodipodi:linespacing="125%"
     style="font-size:4px;font-style:normal;font-variant:normal;font-weight:normal;font-stretch:normal;text-align:start;line-height:125%;letter-spacing:0px;word-spacing:0px;writing-mode:lr-tb;text-anchor:start;fill:#000000;fill-opacity:1;stroke:none;font-family:Liberation Sans;-inkscape-font-specification:Liberation Sans"
     xml:space="preserve"
     id="text3907"
     y="48"
     x="104"><tspan
       id="tspan3909"
       y="48"
       x="104">Shadow opacity : 30, 15, 10, (8)</tspan></text>
  <rect
     style="color:#000000;fill:url(#linearGradient3336);fill-opacity:1;fill-rule:nonzero;stroke:none;stroke-width:2;marker:none;visibility:visible;display:inline;overflow:visible;enable-background:accumulate"
     id="rect3911"
     transform="matrix(0,-1,1,0,0,0)"
     y="104"
     x="-40"
     height="16"
     width="16" />
  <text
     sodipodi:linespacing="125%"
     style="font-size:4px;font-style:normal;font-variant:normal;font-weight:normal;font-stretch:normal;text-align:start;line-height:125%;letter-spacing:0px;word-spacing:0px;writing-mode:lr-tb;text-anchor:start;fill:#000000;fill-opacity:1;stroke:none;font-family:Liberation Sans;-inkscape-font-specification:Liberation Sans"
     xml:space="preserve"
     id="text3951"
     y="32"
     x="124"><tspan
       id="tspan3953"
       y="32"
       x="124">Bevel opacity : 30 / 10</tspan></text>
  <text
     sodipodi:linespacing="125%"
     style="font-size:4px;font-style:normal;font-variant:normal;font-weight:normal;font-stretch:normal;text-align:start;line-height:125%;letter-spacing:0px;word-spacing:0px;writing-mode:lr-tb;text-anchor:start;fill:#000000;fill-opacity:1;stroke:none;font-family:Liberation Sans;-inkscape-font-specification:Liberation Sans"
     xml:space="preserve"
     id="text3955"
     y="8"
     x="124"><tspan
       id="tspan3957"
       y="8"
       x="124">Bevel opacity : 75 / 15</tspan></text>
  <path
     style="font-size:8.9971447px;font-style:normal;font-variant:normal;font-weight:bold;font-stretch:normal;text-align:start;line-height:125%;writing-mode:lr-tb;text-anchor:start;fill:url(#linearGradient3329);fill-opacity:1;stroke:none;display:inline;font-family:Sans;-inkscape-font-specification:Abandoned Bitplane Bold"
     id="path3648"
     inkscape:connector-curvature="0"
     d="M 36,68 48,80 60,68 z"
     sodipodi:nodetypes="cccc" />
  <path
     style="font-size:8.9971447px;font-style:normal;font-variant:normal;font-weight:bold;font-stretch:normal;text-align:start;line-height:125%;writing-mode:lr-tb;text-anchor:start;opacity:0.75;fill:#ffffff;fill-opacity:1;stroke:none;display:inline;font-family:Sans;-inkscape-font-specification:Abandoned Bitplane Bold"
     id="path3119"
     inkscape:connector-curvature="0"
     d="m 36,68 1,1 22,0 1,-1 z"
     sodipodi:nodetypes="ccccc" />
  <path
     style="font-size:8.9971447px;font-style:normal;font-variant:normal;font-weight:bold;font-stretch:normal;text-align:start;line-height:125%;writing-mode:lr-tb;text-anchor:start;opacity:0.15;fill:#000000;fill-opacity:1;stroke:none;display:inline;font-family:Sans;-inkscape-font-specification:Abandoned Bitplane Bold"
     id="path3896"
     inkscape:connector-curvature="0"
     d="M 36,68 48,80 60,68 59,68 48,79 37,68 z"
     sodipodi:nodetypes="ccccccc" />
  <rect
     style="opacity:0.9;fill:url(#linearGradient3311);fill-opacity:1;fill-rule:nonzero;stroke:none;display:none;filter:url(#filter3174-6)"
     id="rect3745-8"
     clip-path="url(#clipPath3625-9)"
     y="7"
     x="5"
     ry="6"
     rx="6"
     height="85"
     width="86"
     transform="translate(-96.186769,0.01682246)" />
  <rect
     style="opacity:0.7;fill:#000000;fill-opacity:1;fill-rule:nonzero;stroke:none;display:none"
     id="rect2419-33"
     y="6.0168223"
     x="-90.186768"
     ry="6"
     rx="6"
     height="84"
     width="84" />
  <path
     style="opacity:0.07999998;fill:#000000;fill-opacity:1;fill-rule:nonzero;stroke:none;display:none"
     id="rect3726-3"
     inkscape:connector-curvature="0"
     d="m -82.186769,10.016822 c -2.216,0 -4,1.784 -4,4 l 0,68 c 0,2.216 1.784,4 4,4 l 68,0 c 2.216,0 4,-1.784 4,-4 l 0,-68 c 0,-2.216 -1.784,-4 -4,-4 l -68,0 z m 0,3.0625 68,0 c 0.578769,0 0.9375,0.358731 0.9375,0.9375 l 0,68 c 0,0.578769 -0.358731,0.9375 -0.9375,0.9375 l -68,0 c -0.578769,0 -0.9375,-0.358731 -0.9375,-0.9375 l 0,-68 c 0,-0.578769 0.358731,-0.9375 0.9375,-0.9375 z" />
  <path
     style="fill:url(#linearGradient3278);fill-opacity:1;fill-rule:nonzero;stroke:none;display:none"
     id="rect3629-8"
     inkscape:connector-curvature="0"
     d="m -84.186769,6.0168225 c -3.324,0 -6,2.676 -6,5.9999995 l 0,72 c 0,3.324 2.676,6 6,6 l 72,0 c 3.324,0 6,-2.676 6,-6 l 0,-72 c 0,-3.3239995 -2.676,-5.9999995 -6,-5.9999995 l -72,0 z m 2,3.9999995 68,0 c 2.216,0 4,1.784 4,4 l 0,68 c 0,2.216 -1.784,4 -4,4 l -68,0 c -2.216,0 -4,-1.784 -4,-4 l 0,-68 c 0,-2.216 1.784,-4 4,-4 z" />
  <path
     style="fill:url(#linearGradient3280);fill-opacity:1;fill-rule:nonzero;stroke:none;display:none"
     id="rect3728-6"
     inkscape:connector-curvature="0"
     d="m -84.186769,6.0168225 c -3.324,0 -6,2.676 -6,5.9999995 l 0,2 0,68 0,2 c 0,0.334721 0.04135,0.6507 0.09375,0.96875 0.0487,0.295596 0.09704,0.596915 0.1875,0.875 0.0099,0.03038 0.02089,0.0636 0.03125,0.09375 0.09887,0.287771 0.23488,0.547452 0.375,0.8125 0.144592,0.273507 0.315616,0.535615 0.5,0.78125 0.184384,0.245635 0.373777,0.473472 0.59375,0.6875 0.439947,0.428056 0.94291,0.814526 1.5,1.09375 0.278545,0.139612 0.573473,0.246947 0.875,0.34375 -0.256202,-0.100222 -0.486711,-0.236272 -0.71875,-0.375 -0.0074,-0.0044 -0.02387,0.0045 -0.03125,0 -0.03193,-0.0193 -0.06229,-0.04251 -0.09375,-0.0625 -0.120395,-0.0767 -0.231023,-0.163513 -0.34375,-0.25 -0.106173,-0.0808 -0.213281,-0.161112 -0.3125,-0.25 -0.17793,-0.161433 -0.34746,-0.345388 -0.5,-0.53125 -0.107579,-0.130255 -0.218394,-0.265285 -0.3125,-0.40625 -0.02509,-0.03838 -0.03845,-0.08587 -0.0625,-0.125 -0.06476,-0.103032 -0.130228,-0.204517 -0.1875,-0.3125 -0.101008,-0.194706 -0.205675,-0.415701 -0.28125,-0.625 -0.008,-0.02181 -0.02359,-0.04055 -0.03125,-0.0625 -0.03182,-0.09195 -0.0358,-0.186831 -0.0625,-0.28125 -0.03033,-0.106618 -0.07039,-0.203031 -0.09375,-0.3125 -0.07288,-0.341512 -0.125,-0.698205 -0.125,-1.0625 l 0,-2 0,-68 0,-2 c 0,-2.781848 2.218152,-4.9999995 5,-4.9999995 l 2,0 68,0 2,0 c 2.781848,0 5,2.2181515 5,4.9999995 l 0,2 0,68 0,2 c 0,0.364295 -0.05212,0.720988 -0.125,1.0625 -0.04415,0.206893 -0.08838,0.397658 -0.15625,0.59375 -0.0077,0.02195 -0.0233,0.04069 -0.03125,0.0625 -0.06274,0.173739 -0.138383,0.367449 -0.21875,0.53125 -0.04158,0.0828 -0.07904,0.169954 -0.125,0.25 -0.0546,0.09721 -0.126774,0.18835 -0.1875,0.28125 -0.09411,0.140965 -0.204921,0.275995 -0.3125,0.40625 -0.143174,0.17445 -0.303141,0.346998 -0.46875,0.5 -0.01117,0.0102 -0.01998,0.02115 -0.03125,0.03125 -0.138386,0.125556 -0.285091,0.234436 -0.4375,0.34375 -0.102571,0.07315 -0.204318,0.153364 -0.3125,0.21875 -0.0074,0.0045 -0.02384,-0.0044 -0.03125,0 -0.232039,0.138728 -0.462548,0.274778 -0.71875,0.375 0.301527,-0.0968 0.596455,-0.204138 0.875,-0.34375 0.55709,-0.279224 1.060053,-0.665694 1.5,-1.09375 0.219973,-0.214028 0.409366,-0.441865 0.59375,-0.6875 0.184384,-0.245635 0.355408,-0.507743 0.5,-0.78125 0.14012,-0.265048 0.276135,-0.524729 0.375,-0.8125 0.01041,-0.03078 0.02133,-0.06274 0.03125,-0.09375 0.09046,-0.278085 0.1388,-0.579404 0.1875,-0.875 0.0524,-0.31805 0.09375,-0.634029 0.09375,-0.96875 l 0,-2 0,-68 0,-2 c 0,-3.3239995 -2.676,-5.9999995 -6,-5.9999995 l -72,0 z" />
  <path
     style="opacity:0.6;fill:url(#radialGradient3282);fill-opacity:1;fill-rule:nonzero;stroke:none;display:none"
     id="path3615-0"
     inkscape:connector-curvature="0"
     d="m -84.186769,90.016822 c -3.324,0 -6,-2.676 -6,-6 l 0,-2 0,-68 0,-2 c 0,-0.334721 0.04135,-0.6507 0.09375,-0.96875 0.0487,-0.295596 0.09704,-0.596915 0.1875,-0.875 0.0099,-0.03038 0.02089,-0.0636 0.03125,-0.09375 0.09887,-0.2877705 0.23488,-0.5474515 0.375,-0.8124995 0.144592,-0.273507 0.315616,-0.535615 0.5,-0.78125 0.184384,-0.245635 0.373777,-0.473472 0.59375,-0.6875 0.439947,-0.428056 0.94291,-0.814526 1.5,-1.09375 0.278545,-0.139612 0.573473,-0.246947 0.875,-0.34375 -0.256202,0.100222 -0.486711,0.236272 -0.71875,0.375 -0.0074,0.0044 -0.02387,-0.0045 -0.03125,0 -0.03193,0.0193 -0.06229,0.04251 -0.09375,0.0625 -0.120395,0.0767 -0.231023,0.163513 -0.34375,0.25 -0.106173,0.0808 -0.213281,0.161112 -0.3125,0.25 -0.17793,0.161433 -0.34746,0.345388 -0.5,0.53125 -0.107579,0.130255 -0.218394,0.265285 -0.3125,0.40625 -0.02509,0.03838 -0.03845,0.08587 -0.0625,0.125 -0.06476,0.103032 -0.130228,0.204517 -0.1875,0.3125 -0.101008,0.194706 -0.205675,0.415701 -0.28125,0.625 -0.008,0.02181 -0.02359,0.04055 -0.03125,0.0625 -0.03182,0.09195 -0.0358,0.186831 -0.0625,0.28125 -0.03033,0.106618 -0.07039,0.203031 -0.09375,0.3125 -0.07288,0.3415115 -0.125,0.6982045 -0.125,1.0624995 l 0,2 0,68 0,2 c 0,2.781848 2.218152,5 5,5 l 2,0 68,0 2,0 c 2.781848,0 5,-2.218152 5,-5 l 0,-2 0,-68 0,-2 c 0,-0.364295 -0.05212,-0.720988 -0.125,-1.0624995 -0.04415,-0.206893 -0.08838,-0.397658 -0.15625,-0.59375 -0.0077,-0.02195 -0.0233,-0.04069 -0.03125,-0.0625 -0.06274,-0.173739 -0.138383,-0.367449 -0.21875,-0.53125 -0.04158,-0.0828 -0.07904,-0.169954 -0.125,-0.25 -0.0546,-0.09721 -0.126774,-0.18835 -0.1875,-0.28125 -0.09411,-0.140965 -0.204921,-0.275995 -0.3125,-0.40625 -0.143174,-0.17445 -0.303141,-0.346998 -0.46875,-0.5 -0.01117,-0.0102 -0.01998,-0.02115 -0.03125,-0.03125 -0.138386,-0.125556 -0.285091,-0.234436 -0.4375,-0.34375 -0.102571,-0.07315 -0.204318,-0.153364 -0.3125,-0.21875 -0.0074,-0.0045 -0.02384,0.0044 -0.03125,0 -0.232039,-0.138728 -0.462548,-0.274778 -0.71875,-0.375 0.301527,0.0968 0.596455,0.204138 0.875,0.34375 0.55709,0.279224 1.060053,0.665694 1.5,1.09375 0.219973,0.214028 0.409366,0.441865 0.59375,0.6875 0.184384,0.245635 0.355408,0.507743 0.5,0.78125 0.14012,0.265048 0.276135,0.524729 0.375,0.8124995 0.01041,0.03078 0.02133,0.06274 0.03125,0.09375 0.09046,0.278085 0.1388,0.579404 0.1875,0.875 0.0524,0.31805 0.09375,0.634029 0.09375,0.96875 l 0,2 0,68 0,2 c 0,3.324 -2.676,6 -6,6 l -72,0 z" />
  <rect
     style="fill:url(#linearGradient3284);fill-opacity:1;fill-rule:nonzero;stroke:none;display:none"
     id="rect2841-4"
     y="106.01682"
     x="-90.186768"
     ry="6"
     rx="6"
     height="84"
     width="84" />
  <rect
     style="fill:#ff0000;fill-opacity:1;fill-rule:nonzero;stroke:none;display:none"
     id="rect3634-8"
     y="110.01682"
     x="-86.186768"
     ry="4"
     rx="4"
     height="76"
     width="76" />
  <path
     style="font-size:medium;font-style:normal;font-variant:normal;font-weight:normal;font-stretch:normal;text-indent:0;text-align:start;text-decoration:none;line-height:normal;letter-spacing:normal;word-spacing:normal;text-transform:none;direction:ltr;block-progression:tb;writing-mode:lr-tb;text-anchor:start;color:#000000;fill:#000000;fill-opacity:1;stroke:none;stroke-width:2;marker:none;visibility:visible;display:none;overflow:visible;filter:url(#filter3657-8);enable-background:accumulate;font-family:Abandoned Bitplane;-inkscape-font-specification:Abandoned Bitplane"
     id="rect3647-8"
     clip-path="url(#clipPath3649-1)"
     transform="translate(-206.18677,0.01682246)"
     inkscape:connector-curvature="0"
     d="m 14,9 c -2.752703,0 -5,2.247297 -5,5 l 0,68 c 0,2.752703 2.247297,5 5,5 l 68,0 c 2.752703,0 5,-2.247297 5,-5 L 87,14 C 87,11.247297 84.752703,9 82,9 L 14,9 z m 0,2 68,0 c 1.679297,0 3,1.320703 3,3 l 0,68 c 0,1.679297 -1.320703,3 -3,3 l -68,0 c -1.679297,0 -3,-1.320703 -3,-3 l 0,-68 c 0,-1.679297 1.320703,-3 3,-3 z" />
  <path
     style="opacity:0.16000001;fill:#000000;fill-opacity:1;fill-rule:nonzero;stroke:none;display:none"
     id="path3709-8"
     inkscape:connector-curvature="0"
     d="m -82.097483,10.016822 c -2.216,0 -4,1.784 -4,4 l 0,68 c 0,2.216 1.784,4 4,4 l 68,0 c 2.216,0 4,-1.784 4,-4 l 0,-68 c 0,-2.216 -1.784,-4 -4,-4 l -68,0 z m 0,2 68,0 c 1.140301,0 2,0.859699 2,2 l 0,68 c 0,1.140301 -0.859699,2 -2,2 l -68,0 c -1.140301,0 -2,-0.859699 -2,-2 l 0,-68 c 0,-1.140301 0.859699,-2 2,-2 z" />
  <path
     style="opacity:0.36000001;fill:#000000;fill-opacity:1;fill-rule:nonzero;stroke:none;display:none"
     id="path3707-9"
     inkscape:connector-curvature="0"
     d="m -82.186769,10.016822 c -2.216,0 -4,1.784 -4,4 l 0,68 c 0,2.216 1.784,4 4,4 l 68,0 c 2.216,0 4,-1.784 4,-4 l 0,-68 c 0,-2.216 -1.784,-4 -4,-4 l -68,0 z m 0,1 68,0 c 1.673848,0 3,1.326152 3,3 l 0,68 c 0,1.673848 -1.326152,3 -3,3 l -68,0 c -1.673848,0 -3,-1.326152 -3,-3 l 0,-68 c 0,-1.673848 1.326152,-3 3,-3 z" />
  <g
     id="g3314"
     transform="matrix(0.79626335,-0.47070879,0.47070879,0.79626335,61.667059,-16.056803)">
    <path
       inkscape:connector-curvature="0"
       d="m -52.936769,19.079322 c -1.877522,0 -3.375,1.555723 -3.375,3.40625 l 0,1.53125 c -0.539589,0.189719 -1.069021,0.413062 -1.59375,0.65625 l -1.09375,-1.09375 c -1.287677,-1.287674 -3.430728,-1.350534 -4.75,-0.03125 l -3.90625,3.90625 c -1.31939,1.319286 -1.256393,3.462355 0.03125,4.750001 l 1.09375,1.09375 c -0.243187,0.524728 -0.466531,1.054161 -0.65625,1.59375 l -1.53125,0 c -1.85053,0 -3.40625,1.49748 -3.40625,3.375 l 0,5.5 c 0,1.877518 1.55572,3.375 3.40625,3.375 l 1.53125,0 c 0.189719,0.539587 0.413063,1.06902 0.65625,1.59375 l -1.09375,1.09375 c -1.287545,1.287662 -1.350544,3.430692 -0.03125,4.75 l 3.90625,3.90625 c 0.691547,0.691548 1.580865,0.975961 2.40625,0.96875 0.920858,-0.0078 1.750772,-0.40703 2.34375,-1 l 1.09375,-1.09375 c 0.524729,0.243188 1.054162,0.466531 1.59375,0.65625 l 0,1.53125 c 0,1.850527 1.497478,3.40625 3.375,3.40625 l 3.96875,0 c -0.0503,0.116997 -0.122344,0.217213 -0.15625,0.34375 l -0.75,2.8125 c -0.382516,1.427572 0.521582,2.755726 1.8125,3.1875 -1.060824,0.683813 -1.385217,1.986181 -0.96875,3.15625 l -0.0625,0 0,0.03125 a 0.84712339,0.84712339 0 0 0 0.09375,0.375 0.84712339,0.84712339 0 0 0 0.03125,0.0625 l 1.34375,2.34375 a 0.84712339,0.84712339 0 0 0 0.09375,0.15625 0.84712339,0.84712339 0 0 0 0,0.03125 c 0.407218,0.705338 1.055874,1.063539 1.65625,1.21875 0.678608,0.175669 1.352584,0.05754 1.90625,-0.21875 -0.263044,1.368506 0.526676,2.755347 1.90625,3.125 l 2.78125,0.75 c 1.361731,0.364879 2.793497,-0.400763 3.25,-1.75 0.772233,1.164699 2.31331,1.596214 3.5625,0.875 l 2.53125,-1.46875 c 1.213703,-0.700655 1.649694,-2.232478 1.0625,-3.5 l 0,-0.03125 c 1.358313,0.244305 2.726925,-0.537258 3.09375,-1.90625 l 0.75,-2.8125 c 0.335761,-1.253075 -0.380445,-2.339844 -1.40625,-2.90625 -0.0074,-0.0041 -0.02379,0.004 -0.03125,0 -0.146563,-0.07919 -0.215205,-0.260767 -0.375,-0.3125 1.138876,-0.732675 1.693296,-2.28466 0.9375,-3.59375 l -1.46875,-2.53125 c -0.742219,-1.285572 -2.351343,-1.606719 -3.59375,-0.96875 0.270054,-1.332451 -0.418788,-2.774438 -1.84375,-3.15625 l -1.25,-0.34375 1.34375,-1.34375 c 1.319413,-1.319288 1.256383,-3.46236 -0.03125,-4.75 l -1.09375,-1.09375 c 0.243188,-0.52473 0.466531,-1.054161 0.65625,-1.59375 l 1.53125,0 c 1.850529,0 3.40625,-1.497478 3.40625,-3.375 l 0,-5.5 c 0,-1.877525 -1.555724,-3.375 -3.40625,-3.375 l -1.53125,0 c -0.189719,-0.53959 -0.413063,-1.069022 -0.65625,-1.59375 l 1.09375,-1.09375 c 1.287543,-1.287663 1.350542,-3.430693 0.03125,-4.750001 l -3.90625,-3.90625 c -1.319272,-1.319268 -3.462322,-1.25643 -4.75,0.03125 l -1.09375,1.09375 c -0.524729,-0.243188 -1.054161,-0.466531 -1.59375,-0.65625 l 0,-1.53125 c 0,-1.850532 -1.497483,-3.40625 -3.375,-3.40625 l -5.5,0 z m 26.09375,47.437501 c 0.08513,0.05622 0.343966,0.25026 0.34375,0.25 -0.002,-0.0037 2e-5,-0.03123 0,-0.03125 -1.98e-4,-2.36e-4 -0.232674,-0.147092 -0.34375,-0.21875 z m -23.34375,-29.59375 c 2.291887,0 4.09375,1.801865 4.09375,4.09375 0,2.291879 -1.801865,4.09375 -4.09375,4.09375 -2.291874,0 -4.09375,-1.801873 -4.09375,-4.09375 0,-2.291881 1.801875,-4.09375 4.09375,-4.09375 z m 12.8125,29.75 c -0.168347,-0.01008 0.03967,0.0061 0.25,0.0625 0.704061,0.188652 1.061009,0.8058 0.875,1.5 -0.179882,0.671325 -0.851361,1.057175 -1.53125,0.875 -0.704052,-0.188651 -1.061007,-0.805813 -0.875,-1.5 0.151991,-0.567238 0.748983,-0.969363 1.28125,-0.9375 z"
       id="path3714"
       style="opacity:0.1;fill:#000000;fill-opacity:1;fill-rule:nonzero;stroke:none;stroke-width:1;marker:none;visibility:visible;display:block;overflow:visible;enable-background:accumulate" />
    <path
       inkscape:connector-curvature="0"
       d="m -52.936769,19.923072 c -1.412149,0 -2.53125,1.163776 -2.53125,2.5625 l 0,2.09375 c -0.907745,0.294425 -1.791673,0.631066 -2.625,1.0625 l -1.5,-1.46875 c -0.959539,-0.959537 -2.585417,-1.008342 -3.5625,-0.03125 l -3.90625,3.90625 c -0.977164,0.977087 -0.928263,2.602985 0.03125,3.5625 l 1.46875,1.500001 c -0.431432,0.833325 -0.768073,1.717255 -1.0625,2.625 l -2.09375,0 c -1.398728,0 -2.5625,1.119102 -2.5625,2.53125 l 0,5.5 c 0,1.412148 1.163772,2.53125 2.5625,2.53125 l 2.09375,0 c 0.294427,0.907742 0.631068,1.791675 1.0625,2.625 l -1.46875,1.5 c -0.959445,0.959532 -1.008347,2.585393 -0.03125,3.5625 l 3.90625,3.90625 c 0.517303,0.517303 1.17579,0.724312 1.8125,0.71875 0.665072,-0.0056 1.31239,-0.312396 1.75,-0.75 l 1.5,-1.46875 c 0.833325,0.431433 1.717255,0.768074 2.625,1.0625 l 0,2.09375 c 0,1.398724 1.119101,2.5625 2.53125,2.5625 l 5.5,0 c 1.061196,0 1.804845,-0.733018 2.1875,-1.65625 0.02871,0.21304 -0.04145,0.436465 0.0625,0.625 l 0,0.03125 0.375,0.65625 c -0.171801,0.203587 -0.344379,0.40545 -0.5,0.625 l -0.71875,-0.1875 c -0.983871,-0.263626 -2.014422,0.316687 -2.28125,1.3125 l -0.75,2.8125 c -0.271351,1.012697 0.403799,1.99814 1.34375,2.25 l 0.71875,0.1875 c 0.02149,0.263998 0.08167,0.51891 0.125,0.78125 l -0.6875,0.40625 c -0.849942,0.507502 -1.167368,1.632389 -0.6875,2.5 l 0,0.03125 1.4375,2.5 a 1.1045137,1.1045137 0 0 0 0,0.03125 c 0.275332,0.4769 0.718867,0.730676 1.15625,0.84375 0.497607,0.128814 1.027144,0.03139 1.40625,-0.1875 a 1.1045137,1.1045137 0 0 0 0,-0.03125 l 0.625,-0.375 c 0.213519,0.176302 0.429031,0.342937 0.65625,0.5 l -0.1875,0.71875 c -0.263626,0.983866 0.316689,2.014425 1.3125,2.28125 l 2.78125,0.75 c 0.974745,0.261184 2.012072,-0.307914 2.28125,-1.3125 l 0.1875,-0.75 c 0.254549,-0.02552 0.502067,-0.04896 0.75,-0.09375 l 0.40625,0.6875 c 0.482724,0.836087 1.676136,1.181196 2.53125,0.6875 l 2.53125,-1.46875 c 0.868877,-0.501592 1.199739,-1.675263 0.6875,-2.5625 a 1.1045137,1.1045137 0 0 0 -0.03125,0 l -0.375,-0.625 c 0.171011,-0.20711 0.347093,-0.404952 0.5,-0.625 l 0.6875,0.1875 a 1.1045137,1.1045137 0 0 0 0.03125,0 c 0.983873,0.263626 2.014419,-0.316687 2.28125,-1.3125 l 0.75,-2.8125 c 0.267132,-0.99695 -0.395455,-1.94824 -1.3125,-2.21875 -0.0062,-0.0018 0.0062,-0.02948 0,-0.03125 l -0.03125,0 -0.71875,-0.21875 c -0.02761,-0.275408 -0.04371,-0.544909 -0.09375,-0.8125 l 0.65625,-0.375 c 0.798131,-0.476759 1.231883,-1.611219 0.71875,-2.5 l -1.46875,-2.53125 c -0.515497,-0.892875 -1.716212,-1.144856 -2.5625,-0.65625 a 1.1045137,1.1045137 0 0 0 0,0.03125 l -0.625,0.375 c -0.214321,-0.182404 -0.423751,-0.365665 -0.65625,-0.53125 l 0.1875,-0.6875 c 0.249971,-0.9329 -0.27154,-2.010703 -1.28125,-2.28125 l -2.65625,-0.71875 2.375,-2.375 c 0.97718,-0.977087 0.928257,-2.602987 -0.03125,-3.5625 l -1.46875,-1.5 c 0.431433,-0.833325 0.768074,-1.717252 1.0625,-2.625 l 2.09375,0 c 1.398729,0 2.5625,-1.119096 2.5625,-2.53125 l 0,-5.5 c 0,-1.412154 -1.163774,-2.53125 -2.5625,-2.53125 l -2.09375,0 c -0.294427,-0.907747 -0.631068,-1.791677 -1.0625,-2.625 l 1.46875,-1.500001 c 0.959443,-0.959532 1.008345,-2.585393 0.03125,-3.5625 l -3.90625,-3.90625 c -0.977083,-0.97708 -2.602964,-0.928287 -3.5625,0.03125 l -1.5,1.46875 c -0.833327,-0.431434 -1.717255,-0.768075 -2.625,-1.0625 l 0,-2.09375 c 0,-1.398732 -1.119103,-2.5625 -2.53125,-2.5625 l -5.5,0 z m 2.75,16.156251 c 2.743483,0 4.9375,2.194019 4.9375,4.9375 0,2.743477 -2.194018,4.9375 -4.9375,4.9375 -2.743473,0 -4.9375,-2.194024 -4.9375,-4.9375 0,-2.743479 2.194027,-4.9375 4.9375,-4.9375 z m 7.90625,20.3125 0.6875,0.6875 c -0.133137,0.03741 -0.283196,-0.0398 -0.40625,0.03125 l -2.53125,1.46875 c -0.195848,0.113064 -0.242031,0.356834 -0.375,0.53125 l 0,-1.65625 c 0.907745,-0.294426 1.791673,-0.631067 2.625,-1.0625 z m 3.96875,1.9375 0,0.03125 c -0.05306,0.0043 -0.10323,0.02608 -0.15625,0.03125 0.05564,-0.01192 0.101446,-0.04678 0.15625,-0.0625 z m 1,7.5 c 0.06,0.0036 0.189782,0.03575 0.40625,0.09375 1.126992,0.301975 1.769028,1.410591 1.46875,2.53125 -0.298701,1.114763 -1.445119,1.768151 -2.5625,1.46875 -1.126986,-0.301976 -1.769028,-1.410598 -1.46875,-2.53125 0.260486,-0.972145 1.207363,-1.619303 2.15625,-1.5625 z"
       id="path3710"
       style="opacity:0.15;fill:#000000;fill-opacity:1;fill-rule:nonzero;stroke:none;stroke-width:1;marker:none;visibility:visible;display:block;overflow:visible;enable-background:accumulate" />
    <path
       inkscape:connector-curvature="0"
       d="m -52.936769,21.016822 c -0.787101,0 -1.4375,0.668201 -1.4375,1.46875 l 0,2.8125 c -1.40738,0.374981 -2.738343,0.940656 -3.96875,1.65625 l -2.03125,-2 c -0.566072,-0.566071 -1.443445,-0.58781 -2,-0.03125 l -3.90625,3.90625 c -0.556606,0.556562 -0.534822,1.433927 0.03125,2 l 2,2.031251 c -0.71559,1.230402 -1.281261,2.561365 -1.65625,3.96875 l -2.8125,0 c -0.800548,0 -1.46875,0.650403 -1.46875,1.4375 l 0,5.5 c 0,0.787095 0.668202,1.4375 1.46875,1.4375 l 2.8125,0 c 0.374989,1.407382 0.94066,2.738346 1.65625,3.96875 l -2,2.03125 c -0.566022,0.566074 -0.587805,1.443439 -0.03125,2 l 3.90625,3.90625 c 0.278278,0.278278 0.664972,0.409449 1.03125,0.40625 0.36628,-0.0031 0.68571,-0.154464 0.96875,-0.4375 l 2.03125,-2 c 1.230407,0.715591 2.56137,1.281269 3.96875,1.65625 l 0,2.8125 c 0,0.800548 0.650399,1.46875 1.4375,1.46875 l 5.5,0 c 0.787094,0 1.4375,-0.668202 1.4375,-1.46875 l 0,-2.8125 c 1.407381,-0.374981 2.738338,-0.940656 3.96875,-1.65625 l 2.03125,2 c 0.566071,0.566074 1.443436,0.587811 2,0.03125 l 3.90625,-3.90625 c 0.556613,-0.556561 0.534821,-1.433926 -0.03125,-2 l -2,-2.03125 c 0.715589,-1.230404 1.281272,-2.561368 1.65625,-3.96875 l 2.8125,0 c 0.800542,0 1.46875,-0.650407 1.46875,-1.4375 l 0,-5.5 c 0,-0.787098 -0.668208,-1.4375 -1.46875,-1.4375 l -2.8125,0 c -0.374982,-1.407385 -0.940662,-2.738348 -1.65625,-3.96875 l 2,-2.031251 c 0.566021,-0.566073 0.587805,-1.443438 0.03125,-2 l -3.90625,-3.90625 c -0.556562,-0.55656 -1.433928,-0.534823 -2,0.03125 l -2.03125,2 c -1.230407,-0.715594 -2.56137,-1.281269 -3.96875,-1.65625 l 0,-2.8125 c 0,-0.800549 -0.650407,-1.46875 -1.4375,-1.46875 l -5.5,0 z m 2.75,13.968751 c 3.33767,0 6.03125,2.693582 6.03125,6.03125 0,3.337665 -2.69358,6.03125 -6.03125,6.03125 -3.337662,0 -6.03125,-2.693585 -6.03125,-6.03125 0,-3.337668 2.693588,-6.03125 6.03125,-6.03125 z m 13.75,22.375 c -0.289925,0.04277 -0.543251,0.257408 -0.625,0.5625 l -0.375,1.4375 c -0.766198,-0.0011 -1.527359,0.08514 -2.25,0.28125 l -0.75,-1.28125 c -0.210569,-0.36471 -0.641415,-0.488281 -1,-0.28125 l -2.53125,1.46875 c -0.358607,0.207026 -0.460569,0.635284 -0.25,1 l 0.71875,1.3125 c -0.531143,0.527783 -0.992832,1.117162 -1.375,1.78125 l -1.4375,-0.375 c -0.406788,-0.108998 -0.830333,0.131298 -0.9375,0.53125 l -0.75,2.8125 c -0.107167,0.399952 0.155712,0.797251 0.5625,0.90625 l 1.4375,0.375 c -0.0011,0.7662 0.08513,1.52736 0.28125,2.25 l -1.28125,0.75 c -0.36469,0.210573 -0.488279,0.672663 -0.28125,1.03125 l 1.4375,2.53125 c 0.103514,0.179295 0.282191,0.295519 0.46875,0.34375 0.186544,0.04829 0.38014,0.01154 0.5625,-0.09375 l 1.28125,-0.75 c 0.527785,0.531143 1.148413,0.992835 1.8125,1.375 l -0.375,1.4375 c -0.108999,0.40679 0.131295,0.830332 0.53125,0.9375 l 2.78125,0.75 c 0.399952,0.107168 0.828501,-0.124461 0.9375,-0.53125 l 0.375,-1.4375 c 0.766199,0.0011 1.527356,-0.116385 2.25,-0.3125 l 0.75,1.3125 c 0.21057,0.364711 0.64141,0.48828 1,0.28125 l 2.53125,-1.46875 c 0.358612,-0.207022 0.491818,-0.66653 0.28125,-1.03125 l -0.75,-1.28125 c 0.531143,-0.527782 0.992846,-1.14841 1.375,-1.8125 l 1.4375,0.40625 c 0.406785,0.108997 0.830332,-0.131299 0.9375,-0.53125 l 0.75,-2.8125 c 0.107167,-0.399953 -0.155716,-0.797252 -0.5625,-0.90625 l -1.40625,-0.40625 c 0.0011,-0.766199 -0.116385,-1.527362 -0.3125,-2.25 l 1.28125,-0.75 c 0.364691,-0.210577 0.519528,-0.641413 0.3125,-1 l -1.46875,-2.53125 c -0.207031,-0.358592 -0.666534,-0.46057 -1.03125,-0.25 l -1.28125,0.75 c -0.527783,-0.531146 -1.148413,-1.024086 -1.8125,-1.40625 l 0.375,-1.40625 c 0.108999,-0.406788 -0.100047,-0.830335 -0.5,-0.9375 l -2.8125,-0.75 c -0.09999,-0.02679 -0.215858,-0.0455 -0.3125,-0.03125 z m -0.8125,7.375 c 0.210922,0.01263 0.413001,0.0682 0.625,0.125 1.695994,0.45444 2.704438,2.179007 2.25,3.875 -0.454441,1.695992 -2.210257,2.70444 -3.90625,2.25 -1.695989,-0.454441 -2.70444,-2.179009 -2.25,-3.875 0.397635,-1.483994 1.804799,-2.463384 3.28125,-2.375 z"
       id="path3703"
       style="opacity:0.3;fill:#000000;fill-opacity:1;fill-rule:nonzero;stroke:none;stroke-width:1;marker:none;visibility:visible;display:block;overflow:visible;enable-background:accumulate" />
    <path
       d="m -52.948391,60.016818 c -0.787101,0 -1.424421,-0.652935 -1.424421,-1.453484 l 0,-2.819759 c -1.40738,-0.37498 -2.752137,-0.941381 -3.982544,-1.656972 l -2.005812,2.005807 c -0.28304,0.283037 -0.622087,0.432943 -0.988367,0.436047 -0.366278,0.0032 -0.739159,-0.128697 -1.017437,-0.406976 l -3.92441,-3.924408 c -0.556555,-0.55656 -0.537002,-1.439735 0.02902,-2.005809 l 2.005811,-2.005808 c -0.71559,-1.230403 -1.281987,-2.575163 -1.656976,-3.982546 l -2.819756,0 c -0.800548,0 -1.453486,-0.637319 -1.453486,-1.424415 l 0,-5.52324 c 0,-0.787096 0.652938,-1.424416 1.453486,-1.424416 l 2.819756,0 c 0.374989,-1.407384 0.941386,-2.752143 1.656976,-3.982546 l -2.005811,-2.005809 c -0.566072,-0.566073 -0.585626,-1.449247 -0.02902,-2.005809 l 3.92441,-3.924408 c 0.556555,-0.55656 1.439732,-0.537001 2.005804,0.02907 l 2.005812,2.005806 c 1.230407,-0.715594 2.575164,-1.281991 3.982544,-1.656972 l 0,-2.81976 c 0,-0.800549 0.63732,-1.453485 1.424421,-1.453485 l 5.523239,0 c 0.787093,0 1.424413,0.652936 1.424413,1.453485 l 0,2.81976 c 1.40738,0.374981 2.752137,0.941378 3.982544,1.656972 l 2.005811,-2.005809 c 0.566072,-0.566073 1.449249,-0.58563 2.005811,-0.02907 l 3.924404,3.924408 c 0.556555,0.556562 0.537001,1.439736 -0.02902,2.005809 l -2.005799,2.005812 c 0.715588,1.230403 1.281985,2.575162 1.656967,3.982546 l 2.819765,0 c 0.800542,0 1.453483,0.637319 1.453483,1.424416 l 0,5.52324 c 0,0.787094 -0.652941,1.424415 -1.453483,1.424415 l -2.819765,0 c -0.374978,1.407383 -0.941375,2.752143 -1.656964,3.982546 l 2.005803,2.005808 c 0.566071,0.566074 0.585633,1.449249 0.02902,2.005809 l -3.924403,3.924408 c -0.556564,0.556561 -1.43974,0.537004 -2.005811,-0.02907 l -2.005812,-2.005807 c -1.230412,0.715595 -2.575168,1.281995 -3.982549,1.656975 l 0,2.819759 c 0,0.800549 -0.637319,1.453484 -1.424413,1.453484 l -5.523239,0 z m 2.761615,-13.953448 c 3.33767,0 6.046496,-2.70883 6.046496,-6.046495 0,-3.337667 -2.708826,-6.046495 -6.046496,-6.046495 -3.337662,0 -6.046495,2.708828 -6.046495,6.046495 0,3.337665 2.708833,6.046495 6.046495,6.046495 z"
       inkscape:connector-curvature="0"
       id="rect3267"
       style="fill:url(#linearGradient3322);fill-opacity:1;fill-rule:nonzero;stroke:none;stroke-width:1;marker:none;visibility:visible;display:block;overflow:visible;enable-background:accumulate" />
    <path
       d="m -41.576436,76.705171 c -0.399955,-0.107167 -0.6349,-0.525721 -0.525901,-0.932511 l 0.383924,-1.432823 c -0.664087,-0.382164 -1.270289,-0.853068 -1.798074,-1.384211 l -1.292326,0.746122 c -0.18236,0.105287 -0.375055,0.135292 -0.561599,0.087 -0.186559,-0.04823 -0.35807,-0.166033 -0.461584,-0.345329 l -1.45981,-2.528464 c -0.207029,-0.358586 -0.07684,-0.804699 0.28785,-1.015273 l 1.292328,-0.746125 c -0.196116,-0.72264 -0.300811,-1.483084 -0.299732,-2.249284 l -1.432823,-0.383923 c -0.406788,-0.108999 -0.651796,-0.521745 -0.544629,-0.921698 l 0.752016,-2.806562 c 0.107167,-0.399952 0.525723,-0.634897 0.932511,-0.525899 l 1.432823,0.383923 c 0.382168,-0.664087 0.85307,-1.270291 1.384213,-1.798074 l -0.746125,-1.292329 c -0.210569,-0.364715 -0.100256,-0.816151 0.258351,-1.023178 l 2.528464,-1.459808 c 0.358585,-0.207031 0.804697,-0.07684 1.015266,0.287869 l 0.746127,1.292325 c 0.722641,-0.196115 1.483085,-0.30081 2.249283,-0.299726 l 0.383925,-1.432824 c 0.108998,-0.406788 0.521744,-0.651795 0.921699,-0.544627 l 2.80656,0.752016 c 0.399953,0.107166 0.634899,0.525722 0.5259,0.932509 l -0.383925,1.432825 c 0.664087,0.382164 1.27029,0.853066 1.798073,1.384211 l 1.292327,-0.746125 c 0.364716,-0.210569 0.816154,-0.100258 1.023185,0.258333 l 1.459807,2.528464 c 0.207028,0.358587 0.07684,0.804698 -0.287851,1.015274 l -1.292322,0.746127 c 0.196115,0.722638 0.3008,1.483084 0.299724,2.249283 l 1.432827,0.383924 c 0.406784,0.108999 0.651794,0.521745 0.544627,0.921698 l -0.752015,2.806562 c -0.107168,0.399951 -0.525726,0.634897 -0.932511,0.5259 l -1.432827,-0.383925 c -0.382154,0.66409 -0.853057,1.270295 -1.3842,1.798076 l 0.746123,1.292326 c 0.210568,0.36472 0.10026,0.816158 -0.258352,1.02318 l -2.52846,1.459812 c -0.35859,0.20703 -0.804701,0.07684 -1.015271,-0.287871 l -0.746125,-1.292324 c -0.722644,0.196115 -1.483088,0.300811 -2.249287,0.299727 l -0.383923,1.432822 c -0.108999,0.406789 -0.521745,0.651796 -0.921697,0.544628 l -2.806562,-0.752015 z m 3.303109,-6.714255 c 1.695993,0.45444 3.441269,-0.553195 3.89571,-2.249187 0.454438,-1.695993 -0.553196,-3.441268 -2.24919,-3.895708 -1.69599,-0.454438 -3.441267,0.553196 -3.895707,2.249189 -0.45444,1.695991 0.553198,3.441266 2.249187,3.895706 z"
       inkscape:connector-curvature="0"
       id="path3667"
       style="fill:url(#linearGradient3324);fill-opacity:1;fill-rule:nonzero;stroke:none;stroke-width:1;marker:none;visibility:visible;display:block;overflow:visible;enable-background:accumulate" />
    <path
       d="m -52.936769,20.016822 c -0.787101,0 -1.4375,0.668201 -1.4375,1.46875 l 0,1 c 0,-0.800549 0.650399,-1.46875 1.4375,-1.46875 l 5.5,0 c 0.787093,0 1.4375,0.668201 1.4375,1.46875 l 0,-1 c 0,-0.800549 -0.650407,-1.46875 -1.4375,-1.46875 l -5.5,0 z m -8.4375,3.5 c -0.359672,-0.0066 -0.721722,0.12797 -1,0.40625 l -3.90625,3.90625 c -0.40122,0.401188 -0.499571,0.970931 -0.3125,1.46875 0.06739,-0.169364 0.173348,-0.32961 0.3125,-0.46875 l 3.90625,-3.90625 c 0.556555,-0.55656 1.433928,-0.534821 2,0.03125 l 2.03125,2 c 1.230407,-0.715594 2.56137,-1.281269 3.96875,-1.65625 l 0,-1 c -1.40738,0.374981 -2.738343,0.940656 -3.96875,1.65625 l -2.03125,-2 c -0.283036,-0.283036 -0.640328,-0.430876 -1,-0.4375 z m 22.375,0 c -0.359671,0.0066 -0.716964,0.154463 -1,0.4375 l -2.03125,2 c -1.230407,-0.715594 -2.56137,-1.281269 -3.96875,-1.65625 l 0,1 c 1.40738,0.374981 2.738343,0.940656 3.96875,1.65625 l 2.03125,-2 c 0.566072,-0.566073 1.443438,-0.58781 2,-0.03125 l 3.90625,3.90625 c 0.139139,0.13914 0.245121,0.299386 0.3125,0.46875 0.187055,-0.497819 0.08868,-1.067562 -0.3125,-1.46875 l -3.90625,-3.90625 c -0.278281,-0.27828 -0.640329,-0.412873 -1,-0.40625 z m -25.59375,9 c -0.54668,1.044275 -1.002875,2.150434 -1.3125,3.3125 l -2.8125,0 c -0.800548,0 -1.46875,0.650404 -1.46875,1.4375 l 0,1 c 0,-0.787096 0.668202,-1.4375 1.46875,-1.4375 l 2.8125,0 c 0.374989,-1.407384 0.94066,-2.738347 1.65625,-3.96875 l -0.34375,-0.34375 z m 28.8125,0 -0.34375,0.34375 c 0.715588,1.230403 1.281268,2.561366 1.65625,3.96875 l 2.8125,0 c 0.800542,0 1.46875,0.650403 1.46875,1.4375 l 0,-1 c 0,-0.787097 -0.668208,-1.4375 -1.46875,-1.4375 l -2.8125,0 c -0.30962,-1.162066 -0.765819,-2.268225 -1.3125,-3.3125 z m -20.40625,8.125 c -0.0075,0.123444 -0.03125,0.249629 -0.03125,0.375 0,3.337665 2.693588,6.03125 6.03125,6.03125 3.33767,0 6.03125,-2.693585 6.03125,-6.03125 0,-0.125371 -0.02376,-0.251556 -0.03125,-0.375 -0.308148,3.046077 -2.870934,5.40625 -6,5.40625 -3.129058,0 -5.691851,-2.360173 -6,-5.40625 z m -8.40625,7.875 -1.65625,1.6875 c -0.424516,0.424555 -0.545888,1.023157 -0.34375,1.53125 0.07244,-0.192797 0.185736,-0.373221 0.34375,-0.53125 l 2,-2.03125 c -0.124733,-0.214469 -0.228343,-0.435798 -0.34375,-0.65625 z m 28.8125,0 c -0.115408,0.220452 -0.219017,0.441781 -0.34375,0.65625 l 2,2.03125 c 0.158028,0.158029 0.2713,0.338453 0.34375,0.53125 0.202158,-0.508093 0.0808,-1.106695 -0.34375,-1.53125 l -1.65625,-1.6875 z m -0.65625,7.84375 c -0.289925,0.04277 -0.543251,0.257409 -0.625,0.5625 l -0.375,1.4375 c -0.766198,-0.0011 -1.527359,0.08514 -2.25,0.28125 l -0.75,-1.28125 c -0.210569,-0.364709 -0.641415,-0.488281 -1,-0.28125 l -2.53125,1.46875 c -0.358607,0.207027 -0.460569,0.635285 -0.25,1 l 0.09375,0.15625 c 0.04941,-0.05376 0.08769,-0.116671 0.15625,-0.15625 l 2.53125,-1.46875 c 0.358585,-0.207031 0.789431,-0.08346 1,0.28125 l 0.75,1.28125 c 0.722641,-0.19611 1.483802,-0.28235 2.25,-0.28125 l 0.375,-1.4375 c 0.08175,-0.305091 0.335075,-0.51973 0.625,-0.5625 0.09664,-0.01425 0.21251,0.0045 0.3125,0.03125 l 2.8125,0.75 c 0.184684,0.04948 0.315497,0.160894 0.40625,0.3125 l 0.09375,-0.375 c 0.108999,-0.406787 -0.100047,-0.830334 -0.5,-0.9375 l -2.8125,-0.75 c -0.09999,-0.02679 -0.215858,-0.0455 -0.3125,-0.03125 z m 3.46875,3.28125 -0.21875,0.84375 c 0.664087,0.382164 1.284717,0.875105 1.8125,1.40625 l 1.28125,-0.75 c 0.364716,-0.210569 0.824219,-0.108591 1.03125,0.25 l 1.375,2.34375 c 0.187697,-0.226818 0.249021,-0.54356 0.09375,-0.8125 l -1.46875,-2.53125 c -0.207031,-0.358591 -0.666534,-0.460569 -1.03125,-0.25 l -1.28125,0.75 c -0.467175,-0.47015 -1.015335,-0.890049 -1.59375,-1.25 z m -10.875,1.59375 c -0.386843,0.430897 -0.73518,0.891773 -1.03125,1.40625 l -1.4375,-0.375 c -0.406788,-0.108998 -0.830333,0.131298 -0.9375,0.53125 l -0.75,2.8125 c -0.05768,0.215269 0.0035,0.424559 0.125,0.59375 l 0.625,-2.40625 c 0.107167,-0.399952 0.530712,-0.640248 0.9375,-0.53125 l 1.4375,0.375 c 0.382168,-0.664087 0.843857,-1.253467 1.375,-1.78125 l -0.34375,-0.625 z m 14.84375,4.34375 -0.1875,0.09375 c 0.196115,0.722638 0.3136,1.483801 0.3125,2.25 l 1.40625,0.40625 c 0.187838,0.05033 0.333295,0.167347 0.4375,0.3125 l 0.125,-0.40625 c 0.107167,-0.399953 -0.155716,-0.797251 -0.5625,-0.90625 l -1.40625,-0.40625 c 6.3e-4,-0.448353 -0.05244,-0.905556 -0.125,-1.34375 z m -5.3125,1.78125 c -0.01796,0.127282 -0.02833,0.24749 -0.0625,0.375 -0.454441,1.695992 -2.210257,2.70444 -3.90625,2.25 -1.227505,-0.32891 -2.099286,-1.332789 -2.3125,-2.5 -0.220895,1.565666 0.744021,3.079726 2.3125,3.5 1.695993,0.45444 3.451809,-0.554008 3.90625,-2.25 0.12553,-0.468485 0.143874,-0.929527 0.0625,-1.375 z m -11.59375,1.875 -1.09375,0.65625 c -0.36469,0.210574 -0.488279,0.672664 -0.28125,1.03125 l 0.09375,0.15625 c 0.05721,-0.0705 0.103836,-0.139192 0.1875,-0.1875 l 1.28125,-0.75 c -0.08136,-0.299776 -0.142354,-0.595606 -0.1875,-0.90625 z m 14.84375,4.34375 c -0.117311,0.134026 -0.218596,0.281888 -0.34375,0.40625 l 0.65625,1.15625 c 0.203237,-0.235197 0.259727,-0.587515 0.09375,-0.875 l -0.40625,-0.6875 z m -10.875,1.59375 -0.15625,0.59375 c -0.05867,0.218949 -0.02039,0.448288 0.09375,0.625 l 0.28125,-1.0625 c -0.07734,-0.04451 -0.142668,-0.109602 -0.21875,-0.15625 z"
       inkscape:connector-curvature="0"
       id="path3716"
       style="fill:#ffffff;fill-opacity:1;fill-rule:nonzero;stroke:none;stroke-width:1;marker:none;visibility:visible;display:block;overflow:visible;enable-background:accumulate" />
  </g>
</svg>
