/* XPM */
static char *nested[] = {
/* columns rows colors chars-per-pixel */
"32 32 129 2 ",
"   c #000000",
".  c #010101",
"X  c #020202",
"o  c #070707",
"O  c #090909",
"+  c #0A0A0A",
"@  c #0B0B0B",
"#  c #0E0E0E",
"$  c #111111",
"%  c #121212",
"&  c #191919",
"*  c #1A1A1A",
"=  c #1B1B1B",
"-  c #212121",
";  c #252525",
":  c #272727",
">  c #2D2D2D",
",  c #2E2E2E",
"<  c #343434",
"1  c #414141",
"2  c #444444",
"3  c #484848",
"4  c #494949",
"5  c #4B4B4B",
"6  c #545454",
"7  c #565656",
"8  c #595959",
"9  c #5E5E5E",
"0  c #5F5F5F",
"q  c #606060",
"w  c #616161",
"e  c #626262",
"r  c #636363",
"t  c #666666",
"y  c #6B6B6B",
"u  c #6C6C6C",
"i  c #6D6D6D",
"p  c #6F6F6F",
"a  c #707070",
"s  c #717171",
"d  c #757575",
"f  c #7A7A7A",
"g  c #7B7B7B",
"h  c #7C7C7C",
"j  c #808080",
"k  c #848484",
"l  c #888888",
"z  c #8E8E8E",
"x  c #919191",
"c  c #929292",
"v  c #949494",
"b  c #979797",
"n  c #989898",
"m  c #9A9A9A",
"M  c #9B9B9B",
"N  c #9C9C9C",
"B  c #9E9E9E",
"V  c #9F9F9F",
"C  c #A2A2A2",
"Z  c #A3A3A3",
"A  c #A6A6A6",
"S  c #A7A7A7",
"D  c #A9A9A9",
"F  c #AAAAAA",
"G  c #ACACAC",
"H  c #ADADAD",
"J  c #AEAEAE",
"K  c #B0B0B0",
"L  c #B2B2B2",
"P  c #B3B3B3",
"I  c #B4B4B4",
"U  c #B5B5B5",
"Y  c #B6B6B6",
"T  c #B7B7B7",
"R  c #B8B8B8",
"E  c #B9B9B9",
"W  c #BBBBBB",
"Q  c #BCBCBC",
"!  c #BDBDBD",
"~  c #BFBFBF",
"^  c #C0C0C0",
"/  c #C1C1C1",
"(  c #C2C2C2",
")  c #C4C4C4",
"_  c #C5C5C5",
"`  c #C6C6C6",
"'  c #C7C7C7",
"]  c #D0D0D0",
"[  c #D2D2D2",
"{  c #D3D3D3",
"}  c #D4D4D4",
"|  c #D5D5D5",
" . c #D6D6D6",
".. c #D7D7D7",
"X. c #D8D8D8",
"o. c #D9D9D9",
"O. c #DADADA",
"+. c #DBDBDB",
"@. c #DCDCDC",
"#. c #DDDDDD",
"$. c #DEDEDE",
"%. c #DFDFDF",
"&. c #E0E0E0",
"*. c #E1E1E1",
"=. c #E2E2E2",
"-. c #E3E3E3",
";. c #E4E4E4",
":. c #E5E5E5",
">. c #E6E6E6",
",. c #E7E7E7",
"<. c #E8E8E8",
"1. c #E9E9E9",
"2. c #EAEAEA",
"3. c #EBEBEB",
"4. c #ECECEC",
"5. c #EDEDED",
"6. c #EEEEEE",
"7. c #EFEFEF",
"8. c #F0F0F0",
"9. c #F1F1F1",
"0. c #F2F2F2",
"q. c #F3F3F3",
"w. c #F4F4F4",
"e. c #F5F5F5",
"r. c #F6F6F6",
"t. c #F7F7F7",
"y. c #F8F8F8",
"u. c #F9F9F9",
"i. c None",
/* pixels */
"i.i.i.i.i.i.i.i.i.i.i.i.i.i.i.i.i.i.i.i.i.i.i.i.i.i.i.i.i.i.i.i.",
"i.i.i.i.i.i.i.i.i.i.i.i.i.i.i.i.i.i.i.i.i.i.i.i.i.i.i.i.i.i.i.i.",
"i.i.i.i.i.i.i.i.i.i.i.i.i.i.i.i.i.i.i.i.i.i.i.i.i.i.i.i.i.i.i.i.",
"i.i.i.i.i.i.i.i.i.i.i.i.i.i.i.i.i.i.i.i.i.i.i.i.i.<.,.@.=.=.,.i.",
"i.i.i.Y Y W Y P P F G F S C C N m b b x z i.i.i.i.,.@.| | | =.i.",
"i.i./ 9.5.5.5.5.5.5.5.9.9.5.5.5.9.5.5.5.5.Y i.i.i.<.W i +.+.,.i.",
"i.i.` <.@.=.=.=.=.,.=.,.=.,.,.,.,.,.,.=.<.W i.i.i.P # s =.=.<.i.",
"i.i.` <.=.=.=.@.[ | | | | | | | | | +.,.<.~ i.i.i.O k @.=.,.5.i.",
"i.i.` ,.@.,.=.+.[ | [ | | | | | | | @.,.<.W i.. . m ,.+.@.<.5.i.",
"i.i.` <.=.,.=.=.| | | | | +.| | j 1 ; * 2 - . . i.<.<.9.9.e.<.i.",
"i.i./ <.=.,.,.@.[ | | | | | | | Y < O > i s i.i.i.i.i.i.i.i.i.i.",
"i.i.~ 5.=.<.,.@.[ [ | | | | | [ | | [ i | ~ i.i.i.i.i.i.i.i.i.i.",
"i.i.~ ,.| ,.,.@.| +.| +.+.+.+.+.+.+.@.5.5.~ i.i.i.=.@.@.@.+.+.i.",
"i.i.~ 5.,.,.,.=.+.| +.+.+.| +.+.+.+.=.5.5.W i.i.i.,.@.| | | ,.i.",
"i.i.~ 5.=.<.<.=.| +.+.+.+.+.@.@.@.@.` y l ~ i.i.i.<.@.| | | ,.i.",
"i.i.Y <.,.<.<.,.+.| | +.+.+.+.+.C ; . . # O . . O 8 f F =.=.<.i.",
"i.i.W 5.<.<.<.=.| +.+.+.+.+.+.+.@.` h w t x i.i.> i 3 6 =.,.<.i.",
"i.i.Y <.<.5.<.=.[ [ | | =.9.9.9.e.9.9.9.9.Y i.i.i.5.,.@.=.,.5.i.",
"i.i.Y 5.=.5.5.,.=.@.=.=.=.=.,.,.=.,.<.e.9.W i.i.i.5.5.5.9.y.5.i.",
"i.i.Y <.<.<.<.=.+.+.@.@.@.@.@.=.=.=.<.e.9.W i.i.i.i.i.i.i.i.i.i.",
"i.i.P <.<.5.<.,.+.+.@.@.@.=.=.=.=.=.<.e.e.W i.i.i.i.i.i.i.i.i.i.",
"i.i.G 5.<.5.5.,.+.+.@.@.@.=.@.=.d 2 m e.e.Y i.i.i.=.@.+.+.| | i.",
"i.i.G 9.<.<.<.=.| | +.| +.| +.+.+.* . $ j W i.i.i.,.@.| [ | ,.i.",
"i.i.F 5.<.5.5.,.| | | +.| +.+.9.y.5.> t $ * i.i.i.,.@.| +.| ,.i.",
"i.i.S 5.,.5.5.5.9.9.9.e.9.e.e.y.y.y.=.` 5.i . . o 3 i N =.=.<.i.",
"i.i.S 5.,.<.5.5.5.5.9.9.e.e.e.y.y.e.e.e.e.Y i.i.i.h 6 w <.5.<.i.",
"i.i.x 9.9.9.9.e.e.e.e.e.e.e.e.e.e.y.e.e.e.S i.i.i.5.,.@.@.=.5.i.",
"i.i.i.0 w 0 0 0 0 0 0 w w w w w w w 0 w w i.i.i.i.5.<.,.5.y.5.i.",
"i.i.i.i.i.i.i.i.i.i.i.i.i.i.i.i.i.i.i.i.i.i.i.i.i.G G G G P F i.",
"i.i.i.i.i.i.i.i.i.i.i.i.i.i.i.i.i.i.i.i.i.i.i.i.i.i.i.i.i.i.i.i.",
"i.i.i.i.i.i.i.i.i.i.i.i.i.i.i.i.i.i.i.i.i.i.i.i.i.i.i.i.i.i.i.i.",
"i.i.i.i.i.i.i.i.i.i.i.i.i.i.i.i.i.i.i.i.i.i.i.i.i.i.i.i.i.i.i.i."
};
